{
.appVersion = "1352";
classes = (
{
automatic = 1;

glyphs = (
{
glyphname = A;
lastChange = "2021-07-22 17:34:46 +0000";
layers = (
{
anchors = (
{
name = bottom;
position = "{616, 0}";
},
{
name = ogonek;
position = "{1090, 20}";
},
{
name = top;
position = "{616, 1400}";
}
);
layerId = UUID0;
paths = (
{
closed = 1;
nodes = (
"244 0 LINE",
"576 1046 LINE SMOOTH",
"583 1067 OFFCURVE",
"608 1146 OFFCURVE",
"614 1172 CURVE",
"620 1146 OFFCURVE",
"647 1066 OFFCURVE",
"654 1046 CURVE SMOOTH",
"992 0 LINE",
"1134 0 LINE",
"668 1400 LINE",
"560 1400 LINE",
"98 0 LINE"
);
},
{
closed = 1;
nodes = (
"920 362 LINE",
"878 486 LINE",
"352 486 LINE",
"310 362 LINE"
);
}
);
width = 1232;
},
{
anchors = (
{
name = bottom;
position = "{616, 0}";
},
{
name = ogonek;
position = "{1210, 20}";
},
{
name = top;
position = "{616, 1400}";
}
);
layerId = "C8970C82-1F9F-492B-A412-6BE281DD1303";
paths = (
{
closed = 1;
nodes = (
"302 0 LINE",
"582 940 LINE SMOOTH",
"592 972 OFFCURVE",
"606 1044 OFFCURVE",
"616 1096 CURVE",
"624 1044 OFFCURVE",
"640 972 OFFCURVE",
"650 940 CURVE SMOOTH",
"930 0 LINE",
"1186 0 LINE",
"728 1400 LINE",
"504 1400 LINE",
"46 0 LINE"
);
},
{
closed = 1;
nodes = (
"890 308 LINE",
"826 524 LINE",
"406 524 LINE",
"342 308 LINE"
);
}
);
width = 1232;
}
);
unicode = 0041;
},
{
color = 4;
glyphname = "Alpha-latin";
lastChange = "2021-07-14 20:51:44 +0000";
layers = (
{
layerId = UUID0;
paths = (
{
closed = 1;
nodes = (
"710 -24 OFFCURVE",
"826 46 OFFCURVE",
"882 147 CURVE",
"882 0 LINE",
"1022 0 LINE",
"1022 1400 LINE",
"882 1400 LINE",
"882 1256 LINE",
"833 1350 OFFCURVE",
"734 1424 OFFCURVE",
"604 1424 CURVE SMOOTH",
"278 1424 OFFCURVE",
"166 1046 OFFCURVE",
"166 700 CURVE SMOOTH",
"166 354 OFFCURVE",
"278 -24 OFFCURVE",
"604 -24 CURVE SMOOTH"
);
},
{
closed = 1;
nodes = (
"384 109 OFFCURVE",
"312 407 OFFCURVE",
"312 700 CURVE SMOOTH",
"312 971 OFFCURVE",
"384 1292 OFFCURVE",
"621 1292 CURVE SMOOTH",
"733 1292 OFFCURVE",
"827 1201 OFFCURVE",
"882 1102 CURVE",
"882 297 LINE",
"827 205 OFFCURVE",
"734 109 OFFCURVE",
"621 109 CURVE SMOOTH"
);
}
);
width = 1232;
},
{
layerId = "C8970C82-1F9F-492B-A412-6BE281DD1303";
paths = (
{
closed = 1;
nodes = (
"678 -24 OFFCURVE",
"757 27 OFFCURVE",
"821 107 CURVE",
"821 0 LINE",
"1080 0 LINE",
"1080 1400 LINE",
"821 1400 LINE",
"821 1293 LINE",
"764 1371 OFFCURVE",
"678 1424 OFFCURVE",
"567 1424 CURVE SMOOTH",
"230 1424 OFFCURVE",
"84 1046 OFFCURVE",
"84 700 CURVE SMOOTH",
"84 354 OFFCURVE",
"230 -24 OFFCURVE",
"567 -24 CURVE SMOOTH"
);
},
{
closed = 1;
nodes = (
"422 225 OFFCURVE",
"353 478 OFFCURVE",
"353 700 CURVE SMOOTH",
"353 911 OFFCURVE",
"420 1177 OFFCURVE",
"605 1177 CURVE SMOOTH",
"698 1177 OFFCURVE",
"763 1128 OFFCURVE",
"821 1064 CURVE",
"821 336 LINE",
"759 273 OFFCURVE",
"690 225 OFFCURVE",
"599 225 CURVE SMOOTH"
);
}
);
width = 1232;
}
);
unicode = 2C6D;
},
{
glyphname = Aogonek;
lastChange = "2021-07-22 17:43:29 +0000";
layers = (
{
layerId = UUID0;
paths = (
{
closed = 1;
nodes = (
"1032 -488 OFFCURVE",
"1096 -444 OFFCURVE",
"1136 -400 CURVE",
"1058 -342 LINE",
"1036 -362 OFFCURVE",
"1004 -388 OFFCURVE",
"948 -388 CURVE SMOOTH",
"896 -388 OFFCURVE",
"840 -356 OFFCURVE",
"840 -274 CURVE SMOOTH",
"840 -146 OFFCURVE",
"984 -36 OFFCURVE",
"1134 0 CURVE",
"668 1400 LINE",
"560 1400 LINE",
"98 0 LINE",
"244 0 LINE",
"358 362 LINE",
"876 362 LINE",
"992 0 LINE",
"822 -56 OFFCURVE",
"718 -160 OFFCURVE",
"718 -292 CURVE SMOOTH",
"718 -422 OFFCURVE",
"820 -488 OFFCURVE",
"936 -488 CURVE SMOOTH"
);
},
{
closed = 1;
nodes = (
"576 1044 LINE SMOOTH",
"585 1071 OFFCURVE",
"608 1146 OFFCURVE",
"614 1172 CURVE",
"620 1146 OFFCURVE",
"645 1071 OFFCURVE",
"654 1044 CURVE SMOOTH",
"834 486 LINE",
"398 486 LINE"
);
}
);
width = 1232;
},
{
layerId = "C8970C82-1F9F-492B-A412-6BE281DD1303";
paths = (
{
closed = 1;
nodes = (
"1018 -504 OFFCURVE",
"1088 -448 OFFCURVE",
"1126 -404 CURVE",
"1016 -326 LINE",
"998 -348 OFFCURVE",
"970 -366 OFFCURVE",
"930 -366 CURVE SMOOTH",
"886 -366 OFFCURVE",
"846 -338 OFFCURVE",
"846 -272 CURVE SMOOTH",
"846 -130 OFFCURVE",
"1006 -10 OFFCURVE",
"1186 0 CURVE",
"728 1400 LINE",
"504 1400 LINE",
"46 0 LINE",
"302 0 LINE",
"394 308 LINE",
"838 308 LINE",
"930 0 LINE",
"760 -56 OFFCURVE",
"656 -158 OFFCURVE",
"656 -292 CURVE SMOOTH",
"656 -422 OFFCURVE",
"756 -504 OFFCURVE",
"898 -504 CURVE SMOOTH"
);
},
{
closed = 1;
nodes = (
"582 940 LINE SMOOTH",
"592 974 OFFCURVE",
"606 1044 OFFCURVE",
"616 1096 CURVE",
"624 1044 OFFCURVE",
"640 974 OFFCURVE",
"650 940 CURVE SMOOTH",
"774 524 LINE",
"458 524 LINE"
);
}
);
width = 1232;
}
);
unicode = 0104;
},
{
glyphname = Aring;
lastChange = "2021-07-22 17:38:13 +0000";
layers = (
{
anchors = (
{
name = top;
position = "{616, 1718}";
}
);
layerId = UUID0;
paths = (
{
closed = 1;
nodes = (
"244 0 LINE",
"358 362 LINE",
"876 362 LINE",
"992 0 LINE",
"1134 0 LINE",
"706 1286 LINE",
"786 1322 OFFCURVE",
"846 1404 OFFCURVE",
"846 1496 CURVE SMOOTH",
"846 1620 OFFCURVE",
"740 1718 OFFCURVE",
"616 1718 CURVE SMOOTH",
"492 1718 OFFCURVE",
"386 1620 OFFCURVE",
"386 1496 CURVE SMOOTH",
"386 1404 OFFCURVE",
"444 1324 OFFCURVE",
"524 1288 CURVE",
"98 0 LINE"
);
},
{
closed = 1;
nodes = (
"576 1045 LINE SMOOTH",
"586 1075 OFFCURVE",
"608 1146 OFFCURVE",
"614 1172 CURVE",
"621 1146 OFFCURVE",
"644 1075 OFFCURVE",
"654 1045 CURVE SMOOTH",
"834 486 LINE",
"398 486 LINE"
);
},
{
closed = 1;
nodes = (
"556 1372 OFFCURVE",
"504 1424 OFFCURVE",
"504 1496 CURVE SMOOTH",
"504 1568 OFFCURVE",
"556 1614 OFFCURVE",
"616 1614 CURVE SMOOTH",
"680 1614 OFFCURVE",
"728 1568 OFFCURVE",
"728 1496 CURVE SMOOTH",
"728 1424 OFFCURVE",
"680 1372 OFFCURVE",
"616 1372 CURVE SMOOTH"
);
}
);
width = 1232;
},
{
anchors = (
{
name = top;
position = "{616, 1726}";
}
);
layerId = "C8970C82-1F9F-492B-A412-6BE281DD1303";
paths = (
{
closed = 1;
nodes = (
"302 0 LINE",
"394 308 LINE",
"838 308 LINE",
"930 0 LINE",
"1186 0 LINE",
"768 1278 LINE",
"828 1324 OFFCURVE",
"868 1396 OFFCURVE",
"868 1478 CURVE SMOOTH",
"868 1618 OFFCURVE",
"756 1726 OFFCURVE",
"616 1726 CURVE SMOOTH",
"478 1726 OFFCURVE",
"364 1618 OFFCURVE",
"364 1478 CURVE SMOOTH",
"364 1396 OFFCURVE",
"404 1324 OFFCURVE",
"464 1278 CURVE",
"46 0 LINE"
);
},
{
closed = 1;
nodes = (
"582 940 LINE SMOOTH",
"592 972 OFFCURVE",
"606 1044 OFFCURVE",
"616 1096 CURVE",
"624 1044 OFFCURVE",
"640 972 OFFCURVE",
"650 940 CURVE SMOOTH",
"774 524 LINE",
"458 524 LINE"
);
},
{
closed = 1;
nodes = (
"566 1388 OFFCURVE",
"530 1426 OFFCURVE",
"530 1478 CURVE SMOOTH",
"530 1530 OFFCURVE",
"566 1568 OFFCURVE",
"616 1568 CURVE SMOOTH",
"662 1568 OFFCURVE",
"702 1530 OFFCURVE",
"702 1478 CURVE SMOOTH",
"702 1426 OFFCURVE",
"662 1388 OFFCURVE",
"616 1388 CURVE SMOOTH"
);
}
);
width = 1232;
}
);
unicode = 00C5;
},
{
glyphname = AE;
lastChange = "2020-09-15 16:21:19 +0000";
layers = (
{
anchors = (
{
name = bottom;
position = "{616, 0}";
},
{
name = top;
position = "{734, 1400}";
}
);
layerId = UUID0;
paths = (
{
closed = 1;
nodes = (
"156 0 LINE",
"652 1188 LINE SMOOTH",
"662 1212 OFFCURVE",
"672 1238 OFFCURVE",
"682 1266 CURVE",
"682 0 LINE",
"1230 0 LINE",
"1230 134 LINE",
"822 134 LINE",
"822 658 LINE",
"1112 658 LINE",
"1112 790 LINE",
"822 790 LINE",
"822 1266 LINE",
"1186 1266 LINE",
"1186 1400 LINE",
"614 1400 LINE",
"0 0 LINE"
);
},
{
closed = 1;
nodes = (
"714 362 LINE",
"714 486 LINE",
"322 486 LINE",
"252 362 LINE"
);
}
);
width = 1232;
},
{
anchors = (
{
name = bottom;
position = "{616, 0}";
},
{
name = top;
position = "{786, 1400}";
}
);
layerId = "C8970C82-1F9F-492B-A412-6BE281DD1303";
paths = (
{
closed = 1;
nodes = (
"254 0 LINE",
"626 940 LINE SMOOTH",
"638 972 OFFCURVE",
"658 1034 OFFCURVE",
"668 1066 CURVE",
"668 0 LINE",
"1224 0 LINE",
"1224 226 LINE",
"906 226 LINE",
"906 610 LINE",
"1088 610 LINE",
"1088 836 LINE",
"906 836 LINE",
"906 1174 LINE",
"1204 1174 LINE",
"1204 1400 LINE",
"584 1400 LINE",
"0 0 LINE"
);
},
{
closed = 1;
nodes = (
"700 308 LINE",
"700 524 LINE",
"430 524 LINE",
"344 308 LINE"
);
}
);
width = 1232;
}
);
unicode = 00C6;
},
{
glyphname = B;
lastChange = "2020-09-15 16:21:19 +0000";
layers = (
{
anchors = (
{
name = bottom;
position = "{616, 0}";
},
{
name = center;
position = "{612, 700}";
},
{
name = top;
position = "{616, 1400}";
}
);
layerId = UUID0;
paths = (
{
closed = 1;
nodes = (
"610 0 LINE SMOOTH",
"954 0 OFFCURVE",
"1056 202 OFFCURVE",
"1056 392 CURVE SMOOTH",
"1056 584 OFFCURVE",
"938 700 OFFCURVE",
"786 738 CURVE",
"918 788 OFFCURVE",
"1006 892 OFFCURVE",
"1006 1034 CURVE SMOOTH",
"1006 1216 OFFCURVE",
"906 1400 OFFCURVE",
"578 1400 CURVE SMOOTH",
"212 1400 LINE",
"212 0 LINE"
);
},
{
closed = 1;
nodes = (
"352 666 LINE",
"568 666 LINE SMOOTH",
"854 666 OFFCURVE",
"926 528 OFFCURVE",
"926 380 CURVE SMOOTH",
"926 252 OFFCURVE",
"864 126 OFFCURVE",
"634 126 CURVE SMOOTH",
"352 126 LINE"
);
},
{
closed = 1;
nodes = (
"352 1274 LINE",
"590 1274 LINE SMOOTH",
"824 1274 OFFCURVE",
"876 1152 OFFCURVE",
"876 1038 CURVE SMOOTH",
"876 886 OFFCURVE",
"764 788 OFFCURVE",
"544 788 CURVE SMOOTH",
"352 788 LINE"
);
}
);
width = 1232;
},
{
anchors = (
{
name = bottom;
position = "{616, 0}";
},
{
name = center;
position = "{626, 700}";
},
{
name = top;
position = "{616, 1400}";
}
);
layerId = "C8970C82-1F9F-492B-A412-6BE281DD1303";
paths = (
{
closed = 1;
nodes = (
"654 0 LINE SMOOTH",
"1002 0 OFFCURVE",
"1120 214 OFFCURVE",
"1120 410 CURVE SMOOTH",
"1120 550 OFFCURVE",
"1046 686 OFFCURVE",
"890 738 CURVE",
"1014 794 OFFCURVE",
"1072 902 OFFCURVE",
"1072 1026 CURVE SMOOTH",
"1072 1214 OFFCURVE",
"964 1400 OFFCURVE",
"624 1400 CURVE SMOOTH",
"152 1400 LINE",
"152 0 LINE"
);
},
{
closed = 1;
nodes = (
"390 616 LINE",
"612 616 LINE SMOOTH",
"832 616 OFFCURVE",
"882 512 OFFCURVE",
"882 408 CURVE SMOOTH",
"882 320 OFFCURVE",
"836 220 OFFCURVE",
"670 220 CURVE SMOOTH",
"390 220 LINE"
);
},
{
closed = 1;
nodes = (
"390 1180 LINE",
"630 1180 LINE SMOOTH",
"800 1180 OFFCURVE",
"834 1092 OFFCURVE",
"834 1010 CURVE SMOOTH",
"834 904 OFFCURVE",
"756 834 OFFCURVE",
"592 834 CURVE SMOOTH",
"390 834 LINE"
);
}
);
width = 1232;
}
);
unicode = 0042;
},
{
color = 4;
glyphname = Bhook;
lastChange = "2021-07-19 19:07:39 +0000";
layers = (
{
background = {
paths = (
{
closed = 1;
nodes = (
"183 1194 OFFCURVE",
"213 1271 OFFCURVE",
"321 1271 CURVE SMOOTH",
"408 1271 LINE",
"408 1400 LINE",
"332 1400 LINE SMOOTH",
"131 1400 OFFCURVE",
"51 1300 OFFCURVE",
"40 1061 CURVE",
"176 994 LINE"
);
},
{
closed = 1;
nodes = (
"700 0 LINE SMOOTH",
"994 0 OFFCURVE",
"1086 202 OFFCURVE",
"1086 392 CURVE SMOOTH",
"1086 584 OFFCURVE",
"978 700 OFFCURVE",
"826 738 CURVE",
"958 788 OFFCURVE",
"1036 892 OFFCURVE",
"1036 1034 CURVE SMOOTH",
"1036 1216 OFFCURVE",
"946 1400 OFFCURVE",
"668 1400 CURVE SMOOTH",
"402 1400 LINE",
"402 0 LINE"
);
},
{
closed = 1;
nodes = (
"542 666 LINE",
"658 666 LINE SMOOTH",
"894 666 OFFCURVE",
"956 528 OFFCURVE",
"956 380 CURVE SMOOTH",
"956 252 OFFCURVE",
"904 126 OFFCURVE",
"724 126 CURVE SMOOTH",
"542 126 LINE"
);
},
{
closed = 1;
nodes = (
"542 1274 LINE",
"680 1274 LINE SMOOTH",
"864 1274 OFFCURVE",
"906 1152 OFFCURVE",
"906 1038 CURVE SMOOTH",
"906 886 OFFCURVE",
"804 788 OFFCURVE",
"634 788 CURVE SMOOTH",
"542 788 LINE"
);
}
);
};
layerId = UUID0;
paths = (
{
closed = 1;
nodes = (
"700 0 LINE SMOOTH",
"994 0 OFFCURVE",
"1086 202 OFFCURVE",
"1086 392 CURVE SMOOTH",
"1086 584 OFFCURVE",
"978 700 OFFCURVE",
"826 738 CURVE",
"958 788 OFFCURVE",
"1036 892 OFFCURVE",
"1036 1034 CURVE SMOOTH",
"1036 1216 OFFCURVE",
"946 1400 OFFCURVE",
"668 1400 CURVE SMOOTH",
"332 1400 LINE SMOOTH",
"131 1400 OFFCURVE",
"51 1300 OFFCURVE",
"40 1061 CURVE",
"176 994 LINE",
"183 1194 OFFCURVE",
"213 1271 OFFCURVE",
"321 1271 CURVE SMOOTH",
"402 1271 LINE",
"402 0 LINE"
);
},
{
closed = 1;
nodes = (
"542 666 LINE",
"658 666 LINE SMOOTH",
"894 666 OFFCURVE",
"956 528 OFFCURVE",
"956 380 CURVE SMOOTH",
"956 252 OFFCURVE",
"904 126 OFFCURVE",
"724 126 CURVE SMOOTH",
"542 126 LINE"
);
},
{
closed = 1;
nodes = (
"542 1274 LINE",
"680 1274 LINE SMOOTH",
"864 1274 OFFCURVE",
"906 1152 OFFCURVE",
"906 1038 CURVE SMOOTH",
"906 886 OFFCURVE",
"804 788 OFFCURVE",
"634 788 CURVE SMOOTH",
"542 788 LINE"
);
}
);
width = 1232;
},
{
background = {
paths = (
{
closed = 1;
nodes = (
"751 0 LINE SMOOTH",
"1049 0 OFFCURVE",
"1157 214 OFFCURVE",
"1157 403 CURVE SMOOTH",
"1157 550 OFFCURVE",
"1083 692 OFFCURVE",
"927 738 CURVE",
"1051 788 OFFCURVE",
"1109 902 OFFCURVE",
"1109 1031 CURVE SMOOTH",
"1109 1214 OFFCURVE",
"1011 1400 OFFCURVE",
"721 1400 CURVE SMOOTH",
"389 1400 LINE",
"389 0 LINE"
);
},
{
closed = 1;
nodes = (
"627 616 LINE",
"704 616 LINE SMOOTH",
"879 616 OFFCURVE",
"919 512 OFFCURVE",
"919 408 CURVE SMOOTH",
"919 320 OFFCURVE",
"883 220 OFFCURVE",
"762 220 CURVE SMOOTH",
"627 220 LINE"
);
},
{
closed = 1;
nodes = (
"627 1180 LINE",
"722 1180 LINE SMOOTH",
"847 1180 OFFCURVE",
"871 1092 OFFCURVE",
"871 1010 CURVE SMOOTH",
"871 904 OFFCURVE",
"803 834 OFFCURVE",
"684 834 CURVE SMOOTH",
"627 834 LINE"
);
},
{
closed = 1;
nodes = (
"236 1104 OFFCURVE",
"262 1180 OFFCURVE",
"375 1180 CURVE SMOOTH",
"466 1180 LINE",
"466 1400 LINE",
"383 1400 LINE SMOOTH",
"122 1400 OFFCURVE",
"34 1260 OFFCURVE",
"10 1000 CURVE",
"226 890 LINE"
);
}
);
};
layerId = "C8970C82-1F9F-492B-A412-6BE281DD1303";
paths = (
{
closed = 1;
nodes = (
"751 0 LINE SMOOTH",
"1049 0 OFFCURVE",
"1157 214 OFFCURVE",
"1157 403 CURVE SMOOTH",
"1157 550 OFFCURVE",
"1083 692 OFFCURVE",
"927 738 CURVE",
"1051 788 OFFCURVE",
"1109 902 OFFCURVE",
"1109 1031 CURVE SMOOTH",
"1109 1214 OFFCURVE",
"1011 1400 OFFCURVE",
"721 1400 CURVE SMOOTH",
"383 1400 LINE SMOOTH",
"122 1400 OFFCURVE",
"34 1260 OFFCURVE",
"10 1000 CURVE",
"226 890 LINE",
"236 1104 OFFCURVE",
"262 1180 OFFCURVE",
"375 1180 CURVE SMOOTH",
"389 1180 LINE",
"389 0 LINE"
);
},
{
closed = 1;
nodes = (
"627 616 LINE",
"704 616 LINE SMOOTH",
"879 616 OFFCURVE",
"919 512 OFFCURVE",
"919 408 CURVE SMOOTH",
"919 320 OFFCURVE",
"883 220 OFFCURVE",
"762 220 CURVE SMOOTH",
"627 220 LINE"
);
},
{
closed = 1;
nodes = (
"627 1180 LINE",
"722 1180 LINE SMOOTH",
"847 1180 OFFCURVE",
"871 1092 OFFCURVE",
"871 1010 CURVE SMOOTH",
"871 904 OFFCURVE",
"803 834 OFFCURVE",
"684 834 CURVE SMOOTH",
"627 834 LINE"
);
}
);
width = 1232;
}
);
unicode = 0181;
},
{
color = 4;
glyphname = Bstroke;
lastChange = "2021-07-15 00:02:27 +0000";
layers = (
{
layerId = UUID0;
paths = (
{
closed = 1;
nodes = (
"630 0 LINE SMOOTH",
"974 0 OFFCURVE",
"1076 202 OFFCURVE",
"1076 392 CURVE SMOOTH",
"1076 584 OFFCURVE",
"958 700 OFFCURVE",
"806 738 CURVE",
"938 788 OFFCURVE",
"1026 892 OFFCURVE",
"1026 1034 CURVE SMOOTH",
"1026 1216 OFFCURVE",
"926 1400 OFFCURVE",
"598 1400 CURVE SMOOTH",
"252 1400 LINE",
"252 0 LINE"
);
},
{
closed = 1;
nodes = (
"392 666 LINE",
"588 666 LINE SMOOTH",
"874 666 OFFCURVE",
"946 528 OFFCURVE",
"946 380 CURVE SMOOTH",
"946 252 OFFCURVE",
"884 126 OFFCURVE",
"654 126 CURVE SMOOTH",
"392 126 LINE"
);
},
{
closed = 1;
nodes = (
"392 1274 LINE",
"610 1274 LINE SMOOTH",
"844 1274 OFFCURVE",
"896 1152 OFFCURVE",
"896 1038 CURVE SMOOTH",
"896 886 OFFCURVE",
"784 788 OFFCURVE",
"564 788 CURVE SMOOTH",
"392 788 LINE"
);
},
{
closed = 1;
nodes = (
"694 334 LINE",
"694 458 LINE",
"10 458 LINE",
"10 334 LINE"
);
}
);
width = 1232;
},
{
layerId = "C8970C82-1F9F-492B-A412-6BE281DD1303";
paths = (
{
closed = 1;
nodes = (
"674 0 LINE SMOOTH",
"1022 0 OFFCURVE",
"1140 214 OFFCURVE",
"1140 410 CURVE SMOOTH",
"1140 550 OFFCURVE",
"1066 686 OFFCURVE",
"910 738 CURVE",
"1034 794 OFFCURVE",
"1092 902 OFFCURVE",
"1092 1026 CURVE SMOOTH",
"1092 1214 OFFCURVE",
"984 1400 OFFCURVE",
"644 1400 CURVE SMOOTH",
"216 1400 LINE",
"216 0 LINE"
);
},
{
closed = 1;
nodes = (
"454 616 LINE",
"632 616 LINE SMOOTH",
"852 616 OFFCURVE",
"902 512 OFFCURVE",
"902 408 CURVE SMOOTH",
"902 320 OFFCURVE",
"856 220 OFFCURVE",
"690 220 CURVE SMOOTH",
"454 220 LINE"
);
},
{
closed = 1;
nodes = (
"454 1180 LINE",
"650 1180 LINE SMOOTH",
"820 1180 OFFCURVE",
"854 1092 OFFCURVE",
"854 1010 CURVE SMOOTH",
"854 904 OFFCURVE",
"776 834 OFFCURVE",
"612 834 CURVE SMOOTH",
"454 834 LINE"
);
},
{
closed = 1;
nodes = (
"708 316 LINE",
"708 520 LINE",
"10 520 LINE",
"10 316 LINE"
);
}
);
width = 1232;
}
);
unicode = 0243;
},
{
glyphname = C;
lastChange = "2021-07-16 15:45:05 +0000";
layers = (
{
anchors = (
{
name = bottom;
position = "{656, 0}";
},
{
name = top;
position = "{676, 1408}";
},
{
name = topright;
position = "{1036, 1198}";
}
);
layerId = UUID0;
paths = (
{
closed = 1;
nodes = (
"882 -24 OFFCURVE",
"1002 104 OFFCURVE",
"1056 232 CURVE",
"932 280 LINE",
"882 174 OFFCURVE",
"810 102 OFFCURVE",
"678 102 CURVE SMOOTH",
"420 102 OFFCURVE",
"312 392 OFFCURVE",
"312 700 CURVE SMOOTH",
"312 978 OFFCURVE",
"408 1298 OFFCURVE",
"678 1298 CURVE SMOOTH",
"802 1298 OFFCURVE",
"864 1216 OFFCURVE",
"912 1126 CURVE",
"1036 1198 LINE",
"978 1312 OFFCURVE",
"888 1424 OFFCURVE",
"678 1424 CURVE SMOOTH",
"322 1424 OFFCURVE",
"166 1082 OFFCURVE",
"166 700 CURVE SMOOTH",
"166 334 OFFCURVE",
"310 -24 OFFCURVE",
"678 -24 CURVE SMOOTH"
);
}
);
width = 1232;
},
{
anchors = (
{
name = bottom;
position = "{648, 0}";
},
{
name = top;
position = "{634, 1400}";
},
{
name = topright;
position = "{1074, 1130}";
}
);
layerId = "C8970C82-1F9F-492B-A412-6BE281DD1303";
paths = (
{
closed = 1;
nodes = (
"866 -22 OFFCURVE",
"1004 116 OFFCURVE",
"1080 302 CURVE",
"864 384 LINE",
"814 278 OFFCURVE",
"748 204 OFFCURVE",
"640 204 CURVE SMOOTH",
"428 204 OFFCURVE",
"332 462 OFFCURVE",
"332 700 CURVE SMOOTH",
"332 924 OFFCURVE",
"412 1196 OFFCURVE",
"640 1196 CURVE SMOOTH",
"748 1196 OFFCURVE",
"808 1132 OFFCURVE",
"862 1028 CURVE",
"1074 1130 LINE",
"1016 1276 OFFCURVE",
"876 1422 OFFCURVE",
"640 1422 CURVE SMOOTH",
"240 1422 OFFCURVE",
"86 1036 OFFCURVE",
"86 700 CURVE SMOOTH",
"86 350 OFFCURVE",
"234 -22 OFFCURVE",
"640 -22 CURVE SMOOTH"
);
}
);
width = 1232;
}
);
unicode = 0043;
},
{
glyphname = D;
lastChange = "2020-09-15 16:21:19 +0000";
layers = (
{
anchors = (
{
name = bottom;
position = "{616, 0}";
},
{
name = center;
position = "{366, 700}";
},
{
name = top;
position = "{616, 1400}";
}
);
layerId = UUID0;
paths = (
{
closed = 1;
nodes = (
"520 0 LINE SMOOTH",
"948 0 OFFCURVE",
"1066 378 OFFCURVE",
"1066 700 CURVE SMOOTH",
"1066 1046 OFFCURVE",
"930 1400 OFFCURVE",
"528 1400 CURVE SMOOTH",
"210 1400 LINE",
"210 0 LINE"
);
},
{
closed = 1;
nodes = (
"350 1274 LINE",
"540 1274 LINE SMOOTH",
"816 1274 OFFCURVE",
"920 990 OFFCURVE",
"920 700 CURVE SMOOTH",
"920 428 OFFCURVE",
"832 126 OFFCURVE",
"518 126 CURVE SMOOTH",
"350 126 LINE"
);
}
);
width = 1232;
},
{
anchors = (
{
name = bottom;
position = "{616, 0}";
},
{
name = center;
position = "{346, 700}";
},
{
name = top;
position = "{614, 1398}";
}
);
layerId = "C8970C82-1F9F-492B-A412-6BE281DD1303";
paths = (
{
closed = 1;
nodes = (
"496 0 LINE SMOOTH",
"988 0 OFFCURVE",
"1148 380 OFFCURVE",
"1148 700 CURVE SMOOTH",
"1148 1048 OFFCURVE",
"972 1400 OFFCURVE",
"504 1400 CURVE SMOOTH",
"152 1400 LINE",
"152 0 LINE"
);
},
{
closed = 1;
nodes = (
"390 1176 LINE",
"542 1176 LINE SMOOTH",
"796 1176 OFFCURVE",
"900 936 OFFCURVE",
"900 700 CURVE SMOOTH",
"900 478 OFFCURVE",
"806 224 OFFCURVE",
"520 224 CURVE SMOOTH",
"390 224 LINE"
);
}
);
width = 1232;
}
);
unicode = 0044;
},
{
glyphname = DZ;
lastChange = "2020-09-15 16:21:19 +0000";
layers = (
{
layerId = UUID0;
paths = (
{
closed = 1;
nodes = (
"280 0 LINE SMOOTH",
"548 0 OFFCURVE",
"600 278 OFFCURVE",
"600 700 CURVE SMOOTH",
"600 1122 OFFCURVE",
"530 1400 OFFCURVE",
"288 1400 CURVE SMOOTH",
"70 1400 LINE",
"70 0 LINE"
);
},
{
closed = 1;
nodes = (
"210 1268 LINE",
"290 1268 LINE SMOOTH",
"406 1268 OFFCURVE",
"460 1066 OFFCURVE",
"460 700 CURVE SMOOTH",
"460 328 OFFCURVE",
"406 132 OFFCURVE",
"288 132 CURVE SMOOTH",
"210 132 LINE"
);
},
{
closed = 1;
nodes = (
"1156 0 LINE",
"1156 132 LINE",
"840 132 LINE",
"1164 1298 LINE",
"1164 1400 LINE",
"726 1400 LINE",
"726 1268 LINE",
"1006 1268 LINE",
"680 98 LINE",
"680 0 LINE"
);
}
);
width = 1232;
},
{
layerId = "C8970C82-1F9F-492B-A412-6BE281DD1303";
paths = (
{
closed = 1;
nodes = (
"304 0 LINE SMOOTH",
"596 0 OFFCURVE",
"650 320 OFFCURVE",
"650 700 CURVE SMOOTH",
"650 1108 OFFCURVE",
"580 1400 OFFCURVE",
"312 1400 CURVE SMOOTH",
"40 1400 LINE",
"40 0 LINE"
);
},
{
closed = 1;
nodes = (
"248 1196 LINE",
"304 1196 LINE SMOOTH",
"404 1196 OFFCURVE",
"438 1016 OFFCURVE",
"438 700 CURVE SMOOTH",
"438 398 OFFCURVE",
"404 204 OFFCURVE",
"304 204 CURVE SMOOTH",
"248 204 LINE"
);
},
{
closed = 1;
nodes = (
"1216 0 LINE",
"1216 204 LINE",
"898 204 LINE",
"1198 1240 LINE",
"1198 1400 LINE",
"696 1400 LINE",
"696 1196 LINE",
"966 1196 LINE",
"672 160 LINE",
"672 0 LINE"
);
}
);
width = 1232;
}
);
unicode = 01F1;
},
{
glyphname = DZcaron;
lastChange = "2020-09-15 16:21:19 +0000";
layers = (
{
layerId = UUID0;
paths = (
{
closed = 1;
nodes = (
"280 0 LINE SMOOTH",
"548 0 OFFCURVE",
"600 278 OFFCURVE",
"600 700 CURVE SMOOTH",
"600 1122 OFFCURVE",
"530 1400 OFFCURVE",
"288 1400 CURVE SMOOTH",
"70 1400 LINE",
"70 0 LINE"
);
},
{
closed = 1;
nodes = (
"210 1268 LINE",
"290 1268 LINE SMOOTH",
"406 1268 OFFCURVE",
"460 1066 OFFCURVE",
"460 700 CURVE SMOOTH",
"460 328 OFFCURVE",
"406 132 OFFCURVE",
"288 132 CURVE SMOOTH",
"210 132 LINE"
);
},
{
closed = 1;
nodes = (
"1156 0 LINE",
"1156 132 LINE",
"840 132 LINE",
"1164 1298 LINE",
"1164 1400 LINE",
"726 1400 LINE",
"726 1268 LINE",
"1006 1268 LINE",
"680 98 LINE",
"680 0 LINE"
);
},
{
closed = 1;
nodes = (
"1024 1530 LINE",
"1202 1842 LINE",
"1076 1842 LINE",
"944 1640 LINE",
"812 1842 LINE",
"686 1842 LINE",
"864 1530 LINE"
);
}
);
width = 1232;
},
{
layerId = "C8970C82-1F9F-492B-A412-6BE281DD1303";
paths = (
{
closed = 1;
nodes = (
"304 0 LINE SMOOTH",
"596 0 OFFCURVE",
"650 320 OFFCURVE",
"650 700 CURVE SMOOTH",
"650 1108 OFFCURVE",
"580 1400 OFFCURVE",
"312 1400 CURVE SMOOTH",
"40 1400 LINE",
"40 0 LINE"
);
},
{
closed = 1;
nodes = (
"248 1196 LINE",
"304 1196 LINE SMOOTH",
"404 1196 OFFCURVE",
"438 1016 OFFCURVE",
"438 700 CURVE SMOOTH",
"438 398 OFFCURVE",
"404 204 OFFCURVE",
"304 204 CURVE SMOOTH",
"248 204 LINE"
);
},
{
closed = 1;
nodes = (
"1216 0 LINE",
"1216 204 LINE",
"898 204 LINE",
"1198 1240 LINE",
"1198 1400 LINE",
"696 1400 LINE",
"696 1196 LINE",
"966 1196 LINE",
"672 160 LINE",
"672 0 LINE"
);
},
{
closed = 1;
nodes = (
"1050 1530 LINE",
"1232 1842 LINE",
"1050 1842 LINE",
"946 1688 LINE",
"842 1842 LINE",
"660 1842 LINE",
"842 1530 LINE"
);
}
);
width = 1232;
}
);
unicode = 01C4;
},
{
color = 4;
glyphname = Dhook;
lastChange = "2021-07-19 19:10:11 +0000";
layers = (
{
background = {
paths = (
{
closed = 1;
nodes = (
"622 0 LINE SMOOTH",
"1040 0 OFFCURVE",
"1127 368 OFFCURVE",
"1127 700 CURVE SMOOTH",
"1127 1056 OFFCURVE",
"1022 1400 OFFCURVE",
"630 1400 CURVE SMOOTH",
"402 1400 LINE",
"402 0 LINE"
);
},
{
closed = 1;
nodes = (
"542 1274 LINE",
"642 1274 LINE SMOOTH",
"908 1274 OFFCURVE",
"981 1000 OFFCURVE",
"981 700 CURVE SMOOTH",
"981 418 OFFCURVE",
"924 126 OFFCURVE",
"620 126 CURVE SMOOTH",
"542 126 LINE"
);
},
{
closed = 1;
nodes = (
"183 1194 OFFCURVE",
"213 1271 OFFCURVE",
"321 1271 CURVE SMOOTH",
"408 1271 LINE",
"408 1400 LINE",
"332 1400 LINE SMOOTH",
"131 1400 OFFCURVE",
"51 1300 OFFCURVE",
"40 1061 CURVE",
"176 994 LINE"
);
}
);
};
layerId = UUID0;
paths = (
{
closed = 1;
nodes = (
"622 0 LINE SMOOTH",
"1040 0 OFFCURVE",
"1127 368 OFFCURVE",
"1127 700 CURVE SMOOTH",
"1127 1056 OFFCURVE",
"1022 1400 OFFCURVE",
"630 1400 CURVE SMOOTH",
"332 1400 LINE SMOOTH",
"131 1400 OFFCURVE",
"51 1300 OFFCURVE",
"40 1061 CURVE",
"176 994 LINE",
"183 1194 OFFCURVE",
"213 1271 OFFCURVE",
"321 1271 CURVE SMOOTH",
"402 1271 LINE",
"402 0 LINE"
);
},
{
closed = 1;
nodes = (
"542 1274 LINE",
"642 1274 LINE SMOOTH",
"908 1274 OFFCURVE",
"981 1000 OFFCURVE",
"981 700 CURVE SMOOTH",
"981 418 OFFCURVE",
"924 126 OFFCURVE",
"620 126 CURVE SMOOTH",
"542 126 LINE"
);
}
);
width = 1232;
},
{
background = {
paths = (
{
closed = 1;
nodes = (
"653 0 LINE SMOOTH",
"1075 0 OFFCURVE",
"1182 340 OFFCURVE",
"1182 700 CURVE SMOOTH",
"1182 1088 OFFCURVE",
"1059 1400 OFFCURVE",
"661 1400 CURVE SMOOTH",
"389 1400 LINE",
"389 0 LINE"
);
},
{
closed = 1;
nodes = (
"627 1176 LINE",
"699 1176 LINE SMOOTH",
"883 1176 OFFCURVE",
"934 976 OFFCURVE",
"934 700 CURVE SMOOTH",
"934 438 OFFCURVE",
"893 224 OFFCURVE",
"677 224 CURVE SMOOTH",
"627 224 LINE"
);
},
{
closed = 1;
nodes = (
"236 1104 OFFCURVE",
"262 1180 OFFCURVE",
"375 1180 CURVE SMOOTH",
"466 1180 LINE",
"466 1400 LINE",
"383 1400 LINE SMOOTH",
"122 1400 OFFCURVE",
"34 1260 OFFCURVE",
"10 1000 CURVE",
"226 890 LINE"
);
}
);
};
layerId = "C8970C82-1F9F-492B-A412-6BE281DD1303";
paths = (
{
closed = 1;
nodes = (
"653 0 LINE SMOOTH",
"1075 0 OFFCURVE",
"1182 340 OFFCURVE",
"1182 700 CURVE SMOOTH",
"1182 1088 OFFCURVE",
"1059 1400 OFFCURVE",
"661 1400 CURVE SMOOTH",
"383 1400 LINE SMOOTH",
"122 1400 OFFCURVE",
"34 1260 OFFCURVE",
"10 1000 CURVE",
"226 890 LINE",
"236 1104 OFFCURVE",
"262 1180 OFFCURVE",
"375 1180 CURVE SMOOTH",
"389 1180 LINE",
"389 0 LINE"
);
},
{
closed = 1;
nodes = (
"627 1176 LINE",
"699 1176 LINE SMOOTH",
"883 1176 OFFCURVE",
"934 976 OFFCURVE",
"934 700 CURVE SMOOTH",
"934 438 OFFCURVE",
"893 224 OFFCURVE",
"677 224 CURVE SMOOTH",
"627 224 LINE"
);
}
);
width = 1232;
}
);
unicode = 018A;
},
{
glyphname = Dz;
lastChange = "2020-09-15 16:21:19 +0000";
layers = (
{
layerId = UUID0;
paths = (
{
closed = 1;
nodes = (
"280 0 LINE SMOOTH",
"548 0 OFFCURVE",
"600 278 OFFCURVE",
"600 700 CURVE SMOOTH",
"600 1122 OFFCURVE",
"530 1400 OFFCURVE",
"288 1400 CURVE SMOOTH",
"70 1400 LINE",
"70 0 LINE"
);
},
{
closed = 1;
nodes = (
"210 1268 LINE",
"290 1268 LINE SMOOTH",
"406 1268 OFFCURVE",
"460 1066 OFFCURVE",
"460 700 CURVE SMOOTH",
"460 328 OFFCURVE",
"406 132 OFFCURVE",
"288 132 CURVE SMOOTH",
"210 132 LINE"
);
},
{
closed = 1;
nodes = (
"1110 0 LINE",
"1110 126 LINE",
"886 126 LINE",
"1112 938 LINE",
"1112 1022 LINE",
"780 1022 LINE",
"780 896 LINE",
"962 896 LINE",
"740 86 LINE",
"740 0 LINE"
);
}
);
width = 1232;
},
{
layerId = "C8970C82-1F9F-492B-A412-6BE281DD1303";
paths = (
{
closed = 1;
nodes = (
"304 0 LINE SMOOTH",
"596 0 OFFCURVE",
"650 320 OFFCURVE",
"650 700 CURVE SMOOTH",
"650 1108 OFFCURVE",
"580 1400 OFFCURVE",
"312 1400 CURVE SMOOTH",
"40 1400 LINE",
"40 0 LINE"
);
},
{
closed = 1;
nodes = (
"248 1196 LINE",
"304 1196 LINE SMOOTH",
"404 1196 OFFCURVE",
"438 1016 OFFCURVE",
"438 700 CURVE SMOOTH",
"438 398 OFFCURVE",
"404 204 OFFCURVE",
"304 204 CURVE SMOOTH",
"248 204 LINE"
);
},
{
closed = 1;
nodes = (
"1146 0 LINE",
"1146 204 LINE",
"926 204 LINE",
"1148 852 LINE",
"1148 1022 LINE",
"746 1022 LINE",
"746 818 LINE",
"930 818 LINE",
"708 174 LINE",
"708 0 LINE"
);
}
);
width = 1232;
}
);
unicode = 01F2;
},
{
glyphname = Dzcaron;
lastChange = "2020-09-15 16:21:19 +0000";
layers = (
{
layerId = UUID0;
paths = (
{
closed = 1;
nodes = (
"280 0 LINE SMOOTH",
"548 0 OFFCURVE",
"600 278 OFFCURVE",
"600 700 CURVE SMOOTH",
"600 1122 OFFCURVE",
"530 1400 OFFCURVE",
"288 1400 CURVE SMOOTH",
"70 1400 LINE",
"70 0 LINE"
);
},
{
closed = 1;
nodes = (
"210 1268 LINE",
"290 1268 LINE SMOOTH",
"406 1268 OFFCURVE",
"460 1066 OFFCURVE",
"460 700 CURVE SMOOTH",
"460 328 OFFCURVE",
"406 132 OFFCURVE",
"288 132 CURVE SMOOTH",
"210 132 LINE"
);
},
{
closed = 1;
nodes = (
"1110 0 LINE",
"1110 126 LINE",
"886 126 LINE",
"1112 938 LINE",
"1112 1022 LINE",
"780 1022 LINE",
"780 896 LINE",
"962 896 LINE",
"740 86 LINE",
"740 0 LINE"
);
},
{
closed = 1;
nodes = (
"1024 1152 LINE",
"1202 1464 LINE",
"1076 1464 LINE",
"944 1262 LINE",
"812 1464 LINE",
"686 1464 LINE",
"864 1152 LINE"
);
}
);
width = 1232;
},
{
layerId = "C8970C82-1F9F-492B-A412-6BE281DD1303";
paths = (
{
closed = 1;
nodes = (
"304 0 LINE SMOOTH",
"596 0 OFFCURVE",
"650 320 OFFCURVE",
"650 700 CURVE SMOOTH",
"650 1108 OFFCURVE",
"580 1400 OFFCURVE",
"312 1400 CURVE SMOOTH",
"40 1400 LINE",
"40 0 LINE"
);
},
{
closed = 1;
nodes = (
"248 1196 LINE",
"304 1196 LINE SMOOTH",
"404 1196 OFFCURVE",
"438 1016 OFFCURVE",
"438 700 CURVE SMOOTH",
"438 398 OFFCURVE",
"404 204 OFFCURVE",
"304 204 CURVE SMOOTH",
"248 204 LINE"
);
},
{
closed = 1;
nodes = (
"1146 0 LINE",
"1146 204 LINE",
"926 204 LINE",
"1148 852 LINE",
"1148 1022 LINE",
"746 1022 LINE",
"746 818 LINE",
"930 818 LINE",
"708 174 LINE",
"708 0 LINE"
);
},
{
closed = 1;
nodes = (
"1050 1152 LINE",
"1232 1464 LINE",
"1050 1464 LINE",
"946 1310 LINE",
"842 1464 LINE",
"660 1464 LINE",
"842 1152 LINE"
);
}
);
width = 1232;
}
);
unicode = 01C5;
},
{
glyphname = E;
lastChange = "2020-09-15 16:21:19 +0000";
layers = (
{
anchors = (
{
name = bottom;
position = "{616, 0}";
},
{
name = ogonek;
position = "{926, 0}";
},
{
name = top;
position = "{616, 1400}";
},
{
name = topleft;
position = "{156, 1400}";
}
);
layerId = UUID0;
paths = (
{
closed = 1;
nodes = (
"1036 0 LINE",
"1036 134 LINE",
"352 134 LINE",
"352 658 LINE",
"798 658 LINE",
"798 790 LINE",
"352 790 LINE",
"352 1266 LINE",
"992 1266 LINE",
"992 1400 LINE",
"212 1400 LINE",
"212 0 LINE"
);
}
);
width = 1232;
},
{
anchors = (
{
name = bottom;
position = "{616, 0}";
},
{
name = ogonek;
position = "{960, 0}";
},
{
name = top;
position = "{600, 1400}";
},
{
name = topleft;
position = "{40, 1400}";
}
);
layerId = "C8970C82-1F9F-492B-A412-6BE281DD1303";
paths = (
{
closed = 1;
nodes = (
"1092 0 LINE",
"1092 226 LINE",
"390 226 LINE",
"390 610 LINE",
"820 610 LINE",
"820 836 LINE",
"390 836 LINE",
"390 1174 LINE",
"1050 1174 LINE",
"1050 1400 LINE",
"152 1400 LINE",
"152 0 LINE"
);
}
);
width = 1232;
}
);
unicode = 0045;
},
{
glyphname = Eogonek;
lastChange = "2020-09-15 16:21:19 +0000";
layers = (
{
layerId = UUID0;
paths = (
{
closed = 1;
nodes = (
"866 -468 OFFCURVE",
"930 -424 OFFCURVE",
"970 -380 CURVE",
"892 -322 LINE",
"870 -342 OFFCURVE",
"838 -368 OFFCURVE",
"782 -368 CURVE SMOOTH",
"730 -368 OFFCURVE",
"674 -336 OFFCURVE",
"674 -254 CURVE SMOOTH",
"674 -130 OFFCURVE",
"820 0 OFFCURVE",
"964 0 CURVE SMOOTH",
"1036 0 LINE",
"1036 134 LINE",
"352 134 LINE",
"352 658 LINE",
"798 658 LINE",
"798 790 LINE",
"352 790 LINE",
"352 1266 LINE",
"992 1266 LINE",
"992 1400 LINE",
"212 1400 LINE",
"212 0 LINE",
"772 0 LINE",
"634 -58 OFFCURVE",
"552 -154 OFFCURVE",
"552 -272 CURVE SMOOTH",
"552 -402 OFFCURVE",
"654 -468 OFFCURVE",
"770 -468 CURVE SMOOTH"
);
}
);
width = 1232;
},
{
layerId = "C8970C82-1F9F-492B-A412-6BE281DD1303";
paths = (
{
closed = 1;
nodes = (
"922 -484 OFFCURVE",
"992 -428 OFFCURVE",
"1030 -384 CURVE",
"920 -306 LINE",
"902 -328 OFFCURVE",
"874 -346 OFFCURVE",
"834 -346 CURVE SMOOTH",
"790 -346 OFFCURVE",
"750 -318 OFFCURVE",
"750 -252 CURVE SMOOTH",
"750 -144 OFFCURVE",
"864 0 OFFCURVE",
"1036 0 CURVE SMOOTH",
"1092 0 LINE",
"1092 226 LINE",
"390 226 LINE",
"390 610 LINE",
"820 610 LINE",
"820 836 LINE",
"390 836 LINE",
"390 1174 LINE",
"1050 1174 LINE",
"1050 1400 LINE",
"152 1400 LINE",
"152 0 LINE",
"780 0 LINE",
"642 -58 OFFCURVE",
"560 -154 OFFCURVE",
"560 -272 CURVE SMOOTH",
"560 -402 OFFCURVE",
"660 -484 OFFCURVE",
"802 -484 CURVE SMOOTH"
);
}
);
width = 1232;
}
);
unicode = 0118;
},
{
color = 4;
glyphname = Eopen;
lastChange = "2021-07-19 21:06:34 +0000";
layers = (
{
anchors = (
{
name = bottom;
position = "{616, 0}";
},
{
name = top;
position = "{616, 1400}";
}
);
layerId = UUID0;
paths = (
{
closed = 1;
nodes = (
"882 -24 OFFCURVE",
"1047 107 OFFCURVE",
"1122 294 CURVE",
"996 347 LINE",
"926 181 OFFCURVE",
"802 109 OFFCURVE",
"622 109 CURVE SMOOTH",
"418 109 OFFCURVE",
"286 200 OFFCURVE",
"286 383 CURVE SMOOTH",
"286 551 OFFCURVE",
"395 662 OFFCURVE",
"616 662 CURVE SMOOTH",
"821 662 LINE",
"821 793 LINE",
"632 793 LINE SMOOTH",
"452 793 OFFCURVE",
"341 895 OFFCURVE",
"341 1053 CURVE SMOOTH",
"341 1199 OFFCURVE",
"449 1293 OFFCURVE",
"621 1293 CURVE SMOOTH",
"794 1293 OFFCURVE",
"898 1201 OFFCURVE",
"953 1089 CURVE",
"1080 1139 LINE",
"1010 1303 OFFCURVE",
"849 1424 OFFCURVE",
"621 1424 CURVE SMOOTH",
"366 1424 OFFCURVE",
"194 1271 OFFCURVE",
"194 1053 CURVE SMOOTH",
"194 919 OFFCURVE",
"266 795 OFFCURVE",
"413 737 CURVE",
"237 687 OFFCURVE",
"140 567 OFFCURVE",
"140 387 CURVE SMOOTH",
"140 136 OFFCURVE",
"334 -24 OFFCURVE",
"622 -24 CURVE SMOOTH"
);
}
);
width = 1232;
},
{
anchors = (
{
name = bottom;
position = "{616, 0}";
},
{
name = top;
position = "{616, 1400}";
}
);
layerId = "C8970C82-1F9F-492B-A412-6BE281DD1303";
paths = (
{
closed = 1;
nodes = (
"889 -24 OFFCURVE",
"1073 114 OFFCURVE",
"1150 310 CURVE",
"947 394 LINE",
"880 255 OFFCURVE",
"774 196 OFFCURVE",
"626 196 CURVE SMOOTH",
"451 196 OFFCURVE",
"345 263 OFFCURVE",
"345 399 CURVE SMOOTH",
"345 524 OFFCURVE",
"428 605 OFFCURVE",
"621 605 CURVE SMOOTH",
"840 605 LINE",
"840 827 LINE",
"629 827 LINE SMOOTH",
"479 827 OFFCURVE",
"395 902 OFFCURVE",
"395 1023 CURVE SMOOTH",
"395 1135 OFFCURVE",
"481 1205 OFFCURVE",
"632 1205 CURVE SMOOTH",
"768 1205 OFFCURVE",
"859 1133 OFFCURVE",
"905 1045 CURVE",
"1109 1125 LINE",
"1032 1296 OFFCURVE",
"862 1424 OFFCURVE",
"620 1424 CURVE SMOOTH",
"343 1424 OFFCURVE",
"159 1266 OFFCURVE",
"159 1037 CURVE SMOOTH",
"159 901 OFFCURVE",
"237 783 OFFCURVE",
"368 733 CURVE",
"204 683 OFFCURVE",
"110 565 OFFCURVE",
"110 394 CURVE SMOOTH",
"110 143 OFFCURVE",
"314 -24 OFFCURVE",
"612 -24 CURVE SMOOTH"
);
}
);
width = 1232;
}
);
unicode = 0190;
},
{
glyphname = Ereversed;
lastChange = "2020-09-15 16:21:19 +0000";
layers = (
{
anchors = (
{
name = bottom;
position = "{616, 0}";
},
{
name = top;
position = "{616, 1400}";
}
);
layerId = UUID0;
paths = (
{
closed = 1;
nodes = (
"1020 0 LINE",
"1020 1400 LINE",
"240 1400 LINE",
"240 1266 LINE",
"880 1266 LINE",
"880 790 LINE",
"434 790 LINE",
"434 658 LINE",
"880 658 LINE",
"880 134 LINE",
"196 134 LINE",
"196 0 LINE"
);
}
);
width = 1232;
},
{
anchors = (
{
name = bottom;
position = "{616, 0}";
},
{
name = top;
position = "{616, 1400}";
}
);
layerId = "C8970C82-1F9F-492B-A412-6BE281DD1303";
paths = (
{
closed = 1;
nodes = (
"1080 0 LINE",
"1080 1400 LINE",
"182 1400 LINE",
"182 1174 LINE",
"842 1174 LINE",
"842 836 LINE",
"412 836 LINE",
"412 610 LINE",
"842 610 LINE",
"842 226 LINE",
"140 226 LINE",
"140 0 LINE"
);
}
);
width = 1232;
}
);
unicode = 018E;
},
{
color = 4;
glyphname = Esh;
lastChange = "2021-07-19 21:14:57 +0000";
layers = (
{
layerId = UUID0;
paths = (
{
closed = 1;
nodes = (
"1107 0 LINE",
"1107 133 LINE",
"313 133 LINE",
"752 720 LINE",
"339 1267 LINE",
"1077 1267 LINE",
"1077 1400 LINE",
"157 1400 LINE",
"157 1297 LINE",
"589 720 LINE",
"125 102 LINE",
"125 0 LINE"
);
}
);
width = 1232;
},
{
layerId = "C8970C82-1F9F-492B-A412-6BE281DD1303";
paths = (
{
closed = 1;
nodes = (
"1142 0 LINE",
"1142 220 LINE",
"399 220 LINE",
"772 721 LINE",
"432 1180 LINE",
"1112 1180 LINE",
"1112 1400 LINE",
"120 1400 LINE",
"120 1226 LINE",
"498 721 LINE",
"90 174 LINE",
"90 0 LINE"
);
}
);
width = 1232;
}
);
unicode = 01A9;
},
{
glyphname = Ezh;
lastChange = "2020-09-15 16:21:19 +0000";
layers = (
{
anchors = (
{
name = bottom;
position = "{618, 0}";
},
{
name = top;
position = "{618, 1400}";
}
);
layerId = UUID0;
paths = (
{
closed = 1;
nodes = (
"872 -24 OFFCURVE",
"1062 144 OFFCURVE",
"1062 392 CURVE SMOOTH",
"1062 638 OFFCURVE",
"894 788 OFFCURVE",
"584 794 CURVE",
"1034 1298 LINE",
"1034 1400 LINE",
"204 1400 LINE",
"204 1268 LINE",
"852 1268 LINE",
"412 762 LINE",
"496 678 LINE",
"814 678 OFFCURVE",
"914 558 OFFCURVE",
"914 390 CURVE SMOOTH",
"914 216 OFFCURVE",
"790 106 OFFCURVE",
"616 106 CURVE SMOOTH",
"456 106 OFFCURVE",
"342 184 OFFCURVE",
"270 356 CURVE",
"150 304 LINE",
"232 94 OFFCURVE",
"406 -24 OFFCURVE",
"616 -24 CURVE SMOOTH"
);
}
);
width = 1232;
},
{
anchors = (
{
name = bottom;
position = "{628, 0}";
},
{
name = top;
position = "{620, 1400}";
}
);
layerId = "C8970C82-1F9F-492B-A412-6BE281DD1303";
paths = (
{
closed = 1;
nodes = (
"904 -24 OFFCURVE",
"1102 142 OFFCURVE",
"1102 402 CURVE SMOOTH",
"1102 642 OFFCURVE",
"960 784 OFFCURVE",
"726 808 CURVE",
"1074 1200 LINE",
"1074 1400 LINE",
"174 1400 LINE",
"174 1170 LINE",
"770 1170 LINE",
"418 764 LINE",
"564 628 LINE",
"774 620 OFFCURVE",
"858 536 OFFCURVE",
"858 412 CURVE SMOOTH",
"858 292 OFFCURVE",
"772 204 OFFCURVE",
"628 204 CURVE SMOOTH",
"494 204 OFFCURVE",
"394 272 OFFCURVE",
"326 408 CURVE",
"110 318 LINE",
"188 120 OFFCURVE",
"372 -24 OFFCURVE",
"632 -24 CURVE SMOOTH"
);
}
);
width = 1232;
}
);
unicode = 01B7;
},
{
glyphname = F;
lastChange = "2020-09-15 16:21:19 +0000";
layers = (
{
anchors = (
{
name = bottom;
position = "{282, 0}";
},
{
name = bottomleft;
position = "{212, 0}";
},
{
name = top;
position = "{616, 1400}";
}
);
layerId = UUID0;
paths = (
{
closed = 1;
nodes = (
"352 0 LINE",
"352 658 LINE",
"836 658 LINE",
"836 790 LINE",
"352 790 LINE",
"352 1266 LINE",
"1056 1266 LINE",
"1056 1400 LINE",
"212 1400 LINE",
"212 0 LINE"
);
}
);
width = 1232;
},
{
anchors = (
{
name = bottom;
position = "{268, 0}";
},
{
name = bottomleft;
position = "{152, 0}";
},
{
name = top;
position = "{616, 1400}";
}
);
layerId = "C8970C82-1F9F-492B-A412-6BE281DD1303";
paths = (
{
closed = 1;
nodes = (
"390 0 LINE",
"390 610 LINE",
"904 610 LINE",
"904 836 LINE",
"390 836 LINE",
"390 1174 LINE",
"1096 1174 LINE",
"1096 1400 LINE",
"152 1400 LINE",
"152 0 LINE"
);
}
);
width = 1232;
}
);
unicode = 0046;
},
{
glyphname = G;
lastChange = "2021-07-19 21:18:38 +0000";
layers = (
{
anchors = (
{
name = bottom;
position = "{652, 0}";
},
{
name = top;
position = "{652, 1400}";
},
{
name = topright;
position = "{1020, 1198}";
}
);
layerId = UUID0;
paths = (
{
closed = 1;
nodes = (
"888 -24 OFFCURVE",
"1072 160 OFFCURVE",
"1072 504 CURVE SMOOTH",
"1072 658 LINE",
"666 658 LINE",
"666 534 LINE",
"924 534 LINE",
"924 450 LINE SMOOTH",
"924 238 OFFCURVE",
"820 102 OFFCURVE",
"652 102 CURVE SMOOTH",
"416 102 OFFCURVE",
"318 392 OFFCURVE",
"318 700 CURVE SMOOTH",
"318 978 OFFCURVE",
"406 1298 OFFCURVE",
"652 1298 CURVE SMOOTH",
"782 1298 OFFCURVE",
"846 1216 OFFCURVE",
"896 1126 CURVE",
"1020 1198 LINE",
"960 1312 OFFCURVE",
"868 1424 OFFCURVE",
"652 1424 CURVE SMOOTH",
"318 1424 OFFCURVE",
"172 1082 OFFCURVE",
"172 700 CURVE SMOOTH",
"172 334 OFFCURVE",
"308 -24 OFFCURVE",
"652 -24 CURVE SMOOTH"
);
}
);
width = 1232;
},
{
anchors = (
{
name = bottom;
position = "{634, 0}";
},
{
name = top;
position = "{640, 1400}";
},
{
name = topright;
position = "{1070, 1142}";
}
);
layerId = "C8970C82-1F9F-492B-A412-6BE281DD1303";
paths = (
{
closed = 1;
nodes = (
"902 -24 OFFCURVE",
"1104 168 OFFCURVE",
"1104 522 CURVE SMOOTH",
"1104 716 LINE",
"616 716 LINE",
"616 492 LINE",
"860 492 LINE",
"860 462 LINE SMOOTH",
"860 314 OFFCURVE",
"786 202 OFFCURVE",
"638 202 CURVE SMOOTH",
"430 202 OFFCURVE",
"334 446 OFFCURVE",
"334 700 CURVE SMOOTH",
"334 922 OFFCURVE",
"414 1198 OFFCURVE",
"638 1198 CURVE SMOOTH",
"744 1198 OFFCURVE",
"810 1116 OFFCURVE",
"860 1022 CURVE",
"1070 1142 LINE",
"990 1286 OFFCURVE",
"876 1424 OFFCURVE",
"638 1424 CURVE SMOOTH",
"268 1424 OFFCURVE",
"86 1050 OFFCURVE",
"86 700 CURVE SMOOTH",
"86 334 OFFCURVE",
"258 -24 OFFCURVE",
"638 -24 CURVE SMOOTH"
);
}
);
width = 1232;
}
);
unicode = 0047;
},
{
glyphname = Gstroke;
lastChange = "2020-09-15 16:21:19 +0000";
layers = (
{
layerId = UUID0;
paths = (
{
closed = 1;
nodes = (
"838 -24 OFFCURVE",
"1022 160 OFFCURVE",
"1022 504 CURVE SMOOTH",
"1022 738 LINE",
"874 738 LINE",
"874 450 LINE SMOOTH",
"874 238 OFFCURVE",
"770 102 OFFCURVE",
"602 102 CURVE SMOOTH",
"366 102 OFFCURVE",
"288 392 OFFCURVE",
"288 700 CURVE SMOOTH",
"288 978 OFFCURVE",
"356 1298 OFFCURVE",
"602 1298 CURVE SMOOTH",
"732 1298 OFFCURVE",
"796 1216 OFFCURVE",
"846 1126 CURVE",
"970 1198 LINE",
"910 1312 OFFCURVE",
"818 1424 OFFCURVE",
"602 1424 CURVE SMOOTH",
"268 1424 OFFCURVE",
"142 1082 OFFCURVE",
"142 700 CURVE SMOOTH",
"142 334 OFFCURVE",
"258 -24 OFFCURVE",
"602 -24 CURVE SMOOTH"
);
},
{
closed = 1;
nodes = (
"1232 382 LINE",
"1232 508 LINE",
"580 508 LINE",
"580 382 LINE"
);
}
);
width = 1232;
},
{
layerId = "C8970C82-1F9F-492B-A412-6BE281DD1303";
paths = (
{
closed = 1;
nodes = (
"882 -24 OFFCURVE",
"1074 168 OFFCURVE",
"1074 522 CURVE SMOOTH",
"1074 802 LINE",
"830 802 LINE",
"830 462 LINE SMOOTH",
"830 314 OFFCURVE",
"766 202 OFFCURVE",
"618 202 CURVE SMOOTH",
"410 202 OFFCURVE",
"334 446 OFFCURVE",
"334 700 CURVE SMOOTH",
"334 922 OFFCURVE",
"394 1198 OFFCURVE",
"616 1198 CURVE SMOOTH",
"724 1198 OFFCURVE",
"784 1116 OFFCURVE",
"830 1022 CURVE",
"1038 1140 LINE",
"968 1294 OFFCURVE",
"846 1424 OFFCURVE",
"616 1424 CURVE SMOOTH",
"248 1424 OFFCURVE",
"86 1050 OFFCURVE",
"86 700 CURVE SMOOTH",
"86 334 OFFCURVE",
"238 -24 OFFCURVE",
"618 -24 CURVE SMOOTH"
);
},
{
closed = 1;
nodes = (
"1232 378 LINE",
"1232 602 LINE",
"590 602 LINE",
"590 378 LINE"
);
}
);
width = 1232;
}
);
unicode = 01E4;
},
{
glyphname = H;
lastChange = "2020-09-15 16:21:19 +0000";
layers = (
{
anchors = (
{
name = bottom;
position = "{616, 0}";
},
{
name = center;
position = "{616, 700}";
},
{
name = top;
position = "{616, 1400}";
},
{
name = topleft;
position = "{40, 1400}";
}
);
layerId = UUID0;
paths = (
{
closed = 1;
nodes = (
"352 0 LINE",
"352 662 LINE",
"880 662 LINE",
"880 0 LINE",
"1020 0 LINE",
"1020 1400 LINE",
"880 1400 LINE",
"880 794 LINE",
"352 794 LINE",
"352 1400 LINE",
"212 1400 LINE",
"212 0 LINE"
);
}
);
width = 1232;
},
{
anchors = (
{
name = bottom;
position = "{616, 0}";
},
{
name = center;
position = "{616, 700}";
},
{
name = top;
position = "{616, 1400}";
},
{
name = topleft;
position = "{40, 1400}";
}
);
layerId = "C8970C82-1F9F-492B-A412-6BE281DD1303";
paths = (
{
closed = 1;
nodes = (
"390 0 LINE",
"390 610 LINE",
"842 610 LINE",
"842 0 LINE",
"1080 0 LINE",
"1080 1400 LINE",
"842 1400 LINE",
"842 834 LINE",
"390 834 LINE",
"390 1400 LINE",
"152 1400 LINE",
"152 0 LINE"
);
}
);
width = 1232;
}
);
unicode = 0048;
},
{
glyphname = Hbar;
lastChange = "2020-09-15 16:21:19 +0000";
layers = (
{
layerId = UUID0;
paths = (
{
closed = 1;
nodes = (
"1020 0 LINE",
"1020 1064 LINE",
"1192 1064 LINE",
"1192 1196 LINE",
"1020 1196 LINE",
"1020 1400 LINE",
"880 1400 LINE",
"880 1196 LINE",
"352 1196 LINE",
"352 1400 LINE",
"212 1400 LINE",
"212 1196 LINE",
"40 1196 LINE",
"40 1064 LINE",
"212 1064 LINE",
"212 0 LINE",
"352 0 LINE",
"352 662 LINE",
"880 662 LINE",
"880 0 LINE"
);
},
{
closed = 1;
nodes = (
"352 794 LINE",
"352 1064 LINE",
"880 1064 LINE",
"880 794 LINE"
);
}
);
width = 1232;
},
{
layerId = "C8970C82-1F9F-492B-A412-6BE281DD1303";
paths = (
{
closed = 1;
nodes = (
"1080 0 LINE",
"1080 1012 LINE",
"1222 1012 LINE",
"1222 1236 LINE",
"1080 1236 LINE",
"1080 1400 LINE",
"842 1400 LINE",
"842 1236 LINE",
"390 1236 LINE",
"390 1400 LINE",
"152 1400 LINE",
"152 1236 LINE",
"10 1236 LINE",
"10 1012 LINE",
"152 1012 LINE",
"152 0 LINE",
"390 0 LINE",
"390 610 LINE",
"842 610 LINE",
"842 0 LINE"
);
},
{
closed = 1;
nodes = (
"390 834 LINE",
"390 1012 LINE",
"842 1012 LINE",
"842 834 LINE"
);
}
);
width = 1232;
}
);
unicode = 0126;
},
{
color = 4;
glyphname = Hhook;
lastChange = "2021-07-19 21:33:22 +0000";
layers = (
{
background = {
paths = (
{
closed = 1;
nodes = (
"542 0 LINE",
"542 662 LINE",
"917 662 LINE",
"917 0 LINE",
"1057 0 LINE",
"1057 1400 LINE",
"917 1400 LINE",
"917 794 LINE",
"542 794 LINE",
"542 1400 LINE",
"402 1400 LINE",
"402 0 LINE"
);
},
{
closed = 1;
nodes = (
"183 1194 OFFCURVE",
"213 1271 OFFCURVE",
"321 1271 CURVE SMOOTH",
"418 1271 LINE",
"418 1400 LINE",
"332 1400 LINE SMOOTH",
"131 1400 OFFCURVE",
"51 1300 OFFCURVE",
"40 1061 CURVE",
"176 994 LINE"
);
}
);
};
layerId = UUID0;
paths = (
{
closed = 1;
nodes = (
"542 0 LINE",
"542 662 LINE",
"917 662 LINE",
"917 0 LINE",
"1057 0 LINE",
"1057 1400 LINE",
"917 1400 LINE",
"917 794 LINE",
"542 794 LINE",
"542 1400 LINE",
"332 1400 LINE SMOOTH",
"131 1400 OFFCURVE",
"51 1300 OFFCURVE",
"40 1061 CURVE",
"176 994 LINE",
"183 1194 OFFCURVE",
"213 1271 OFFCURVE",
"321 1271 CURVE SMOOTH",
"402 1271 LINE",
"402 0 LINE"
);
}
);
width = 1232;
},
{
background = {
paths = (
{
closed = 1;
nodes = (
"627 0 LINE",
"627 610 LINE",
"1079 610 LINE",
"1079 0 LINE",
"1317 0 LINE",
"1317 1400 LINE",
"1079 1400 LINE",
"1079 834 LINE",
"627 834 LINE",
"627 1400 LINE",
"389 1400 LINE",
"389 0 LINE"
);
},
{
closed = 1;
nodes = (
"236 1104 OFFCURVE",
"262 1180 OFFCURVE",
"375 1180 CURVE SMOOTH",
"405 1180 LINE",
"405 1400 LINE",
"383 1400 LINE SMOOTH",
"122 1400 OFFCURVE",
"34 1260 OFFCURVE",
"10 1000 CURVE",
"226 890 LINE"
);
}
);
};
layerId = "C8970C82-1F9F-492B-A412-6BE281DD1303";
paths = (
{
closed = 1;
nodes = (
"627 0 LINE",
"627 610 LINE",
"919 610 LINE",
"919 0 LINE",
"1157 0 LINE",
"1157 1400 LINE",
"919 1400 LINE",
"919 834 LINE",
"627 834 LINE",
"627 1400 LINE",
"383 1400 LINE SMOOTH",
"122 1400 OFFCURVE",
"34 1260 OFFCURVE",
"10 1000 CURVE",
"226 890 LINE",
"236 1104 OFFCURVE",
"262 1180 OFFCURVE",
"375 1180 CURVE SMOOTH",
"389 1180 LINE",
"389 0 LINE"
);
}
);
width = 1232;
}
);
unicode = A7AA;
},
{
glyphname = I;
lastChange = "2020-09-15 16:21:19 +0000";
layers = (
{
anchors = (
{
name = bottom;
position = "{616, 0}";
},
{
name = center;
position = "{616, 700}";
},
{
name = ogonek;
position = "{816, 0}";
},
{
name = top;
position = "{616, 1400}";
},
{
name = topleft;
position = "{40, 1400}";
}
);
layerId = UUID0;
paths = (
{
closed = 1;
nodes = (
"686 0 LINE",
"686 1400 LINE",
"546 1400 LINE",
"546 0 LINE"
);
},
{
closed = 1;
nodes = (
"1020 0 LINE",
"1020 132 LINE",
"212 132 LINE",
"212 0 LINE"
);
},
{
closed = 1;
nodes = (
"1020 1268 LINE",
"1020 1400 LINE",
"212 1400 LINE",
"212 1268 LINE"
);
}
);
width = 1232;
},
{
anchors = (
{
name = bottom;
position = "{616, 0}";
},
{
name = center;
position = "{616, 700}";
},
{
name = ogonek;
position = "{810, 0}";
},
{
name = top;
position = "{616, 1400}";
},
{
name = topleft;
position = "{40, 1400}";
}
);
layerId = "C8970C82-1F9F-492B-A412-6BE281DD1303";
paths = (
{
closed = 1;
nodes = (
"734 0 LINE",
"734 1400 LINE",
"496 1400 LINE",
"496 0 LINE"
);
},
{
closed = 1;
nodes = (
"1028 0 LINE",
"1028 210 LINE",
"204 210 LINE",
"204 0 LINE"
);
},
{
closed = 1;
nodes = (
"1028 1190 LINE",
"1028 1400 LINE",
"204 1400 LINE",
"204 1190 LINE"
);
}
);
width = 1232;
}
);
unicode = 0049;
},
{
glyphname = IJ;
lastChange = "2020-09-15 16:21:19 +0000";
layers = (
{
anchors = (
{
name = caret_1;
position = "{616, 0}";
}
);
layerId = UUID0;
paths = (
{
closed = 1;
nodes = (
"1048 -24 OFFCURVE",
"1172 52 OFFCURVE",
"1172 346 CURVE SMOOTH",
"1172 1400 LINE",
"1032 1400 LINE",
"1032 318 LINE SMOOTH",
"1032 152 OFFCURVE",
"980 102 OFFCURVE",
"900 102 CURVE SMOOTH",
"838 102 OFFCURVE",
"782 132 OFFCURVE",
"748 274 CURVE",
"634 238 LINE",
"672 68 OFFCURVE",
"760 -24 OFFCURVE",
"900 -24 CURVE SMOOTH"
);
},
{
closed = 1;
nodes = (
"548 0 LINE",
"548 126 LINE",
"374 126 LINE",
"374 1274 LINE",
"548 1274 LINE",
"548 1400 LINE",
"60 1400 LINE",
"60 1274 LINE",
"234 1274 LINE",
"234 126 LINE",
"60 126 LINE",
"60 0 LINE"
);
}
);
width = 1232;
},
{
anchors = (
{
name = caret_1;
position = "{616, 0}";
}
);
layerId = "C8970C82-1F9F-492B-A412-6BE281DD1303";
paths = (
{
closed = 1;
nodes = (
"1064 -24 OFFCURVE",
"1202 62 OFFCURVE",
"1202 388 CURVE SMOOTH",
"1202 1400 LINE",
"994 1400 LINE",
"994 358 LINE SMOOTH",
"994 228 OFFCURVE",
"960 180 OFFCURVE",
"908 180 CURVE SMOOTH",
"848 180 OFFCURVE",
"824 224 OFFCURVE",
"800 344 CURVE",
"616 286 LINE",
"644 90 OFFCURVE",
"742 -24 OFFCURVE",
"908 -24 CURVE SMOOTH"
);
},
{
closed = 1;
nodes = (
"542 0 LINE",
"542 204 LINE",
"390 204 LINE",
"390 1196 LINE",
"542 1196 LINE",
"542 1400 LINE",
"30 1400 LINE",
"30 1196 LINE",
"182 1196 LINE",
"182 204 LINE",
"30 204 LINE",
"30 0 LINE"
);
}
);
width = 1232;
}
);
unicode = 0132;
},
{
glyphname = Iogonek;
lastChange = "2020-09-15 16:21:19 +0000";
layers = (
{
layerId = UUID0;
paths = (
{
closed = 1;
nodes = (
"798 -468 OFFCURVE",
"862 -424 OFFCURVE",
"902 -380 CURVE",
"824 -322 LINE",
"802 -342 OFFCURVE",
"770 -368 OFFCURVE",
"714 -368 CURVE SMOOTH",
"662 -368 OFFCURVE",
"606 -336 OFFCURVE",
"606 -254 CURVE SMOOTH",
"606 -136 OFFCURVE",
"740 0 OFFCURVE",
"924 0 CURVE SMOOTH",
"1020 0 LINE",
"1020 132 LINE",
"686 132 LINE",
"686 1268 LINE",
"1020 1268 LINE",
"1020 1400 LINE",
"212 1400 LINE",
"212 1268 LINE",
"546 1268 LINE",
"546 132 LINE",
"212 132 LINE",
"212 0 LINE",
"704 0 LINE",
"566 -60 OFFCURVE",
"484 -154 OFFCURVE",
"484 -272 CURVE SMOOTH",
"484 -402 OFFCURVE",
"586 -468 OFFCURVE",
"702 -468 CURVE SMOOTH"
);
}
);
width = 1232;
},
{
layerId = "C8970C82-1F9F-492B-A412-6BE281DD1303";
paths = (
{
closed = 1;
nodes = (
"788 -484 OFFCURVE",
"858 -428 OFFCURVE",
"896 -384 CURVE",
"786 -306 LINE",
"768 -328 OFFCURVE",
"740 -346 OFFCURVE",
"700 -346 CURVE SMOOTH",
"656 -346 OFFCURVE",
"616 -318 OFFCURVE",
"616 -252 CURVE SMOOTH",
"616 -154 OFFCURVE",
"714 0 OFFCURVE",
"920 0 CURVE SMOOTH",
"1028 0 LINE",
"1028 210 LINE",
"734 210 LINE",
"734 1190 LINE",
"1028 1190 LINE",
"1028 1400 LINE",
"204 1400 LINE",
"204 1190 LINE",
"496 1190 LINE",
"496 210 LINE",
"204 210 LINE",
"204 0 LINE",
"646 0 LINE",
"508 -58 OFFCURVE",
"426 -152 OFFCURVE",
"426 -272 CURVE SMOOTH",
"426 -402 OFFCURVE",
"526 -484 OFFCURVE",
"668 -484 CURVE SMOOTH"
);
}
);
width = 1232;
}
);
unicode = 012E;
},
{
glyphname = Iotaafrican;
lastChange = "2020-09-15 16:21:19 +0000";
layers = (
{
anchors = (
{
name = bottom;
position = "{780, 0}";
},
{
name = top;
position = "{616, 1400}";
}
);
layerId = UUID0;
paths = (
{
closed = 1;
nodes = (
"878 -24 OFFCURVE",
"940 -6 OFFCURVE",
"998 22 CURVE",
"1016 168 LINE",
"972 142 OFFCURVE",
"914 108 OFFCURVE",
"836 108 CURVE SMOOTH",
"732 108 OFFCURVE",
"686 170 OFFCURVE",
"686 270 CURVE SMOOTH",
"686 1400 LINE",
"546 1400 LINE",
"546 210 LINE SMOOTH",
"546 68 OFFCURVE",
"626 -24 OFFCURVE",
"792 -24 CURVE SMOOTH"
);
}
);
width = 1232;
},
{
anchors = (
{
name = bottom;
position = "{762, 0}";
},
{
name = top;
position = "{620, 1400}";
}
);
layerId = "C8970C82-1F9F-492B-A412-6BE281DD1303";
paths = (
{
closed = 1;
nodes = (
"856 -24 OFFCURVE",
"932 -8 OFFCURVE",
"996 22 CURVE",
"1026 232 LINE",
"968 202 OFFCURVE",
"908 186 OFFCURVE",
"852 186 CURVE SMOOTH",
"788 186 OFFCURVE",
"734 224 OFFCURVE",
"734 284 CURVE SMOOTH",
"734 1400 LINE",
"496 1400 LINE",
"496 238 LINE SMOOTH",
"496 70 OFFCURVE",
"578 -24 OFFCURVE",
"774 -24 CURVE SMOOTH"
);
}
);
width = 1232;
}
);
unicode = 0196;
},
{
glyphname = J;
lastChange = "2020-09-15 16:21:19 +0000";
layers = (
{
anchors = (
{
name = bottom;
position = "{584, 0}";
},
{
name = top;
position = "{938, 1400}";
}
);
layerId = UUID0;
paths = (
{
closed = 1;
nodes = (
"766 -24 OFFCURVE",
"1006 62 OFFCURVE",
"1006 444 CURVE SMOOTH",
"1006 1400 LINE",
"866 1400 LINE",
"866 420 LINE SMOOTH",
"866 176 OFFCURVE",
"720 102 OFFCURVE",
"584 102 CURVE SMOOTH",
"412 102 OFFCURVE",
"366 164 OFFCURVE",
"314 274 CURVE",
"204 214 LINE",
"262 66 OFFCURVE",
"372 -24 OFFCURVE",
"582 -24 CURVE SMOOTH"
);
}
);
width = 1232;
},
{
anchors = (
{
name = bottom;
position = "{606, 0}";
},
{
name = top;
position = "{960, 1400}";
}
);
layerId = "C8970C82-1F9F-492B-A412-6BE281DD1303";
paths = (
{
closed = 1;
nodes = (
"818 -24 OFFCURVE",
"1076 80 OFFCURVE",
"1076 476 CURVE SMOOTH",
"1076 1400 LINE",
"840 1400 LINE",
"840 488 LINE SMOOTH",
"840 258 OFFCURVE",
"726 202 OFFCURVE",
"612 202 CURVE SMOOTH",
"490 202 OFFCURVE",
"422 260 OFFCURVE",
"368 364 CURVE",
"164 266 LINE",
"246 82 OFFCURVE",
"408 -24 OFFCURVE",
"610 -24 CURVE SMOOTH"
);
}
);
width = 1232;
}
);
unicode = 004A;
},
{
glyphname = K;
lastChange = "2020-09-15 16:21:19 +0000";
layers = (
{
anchors = (
{
name = bottom;
position = "{626, 0}";
},
{
name = top;
position = "{580, 1400}";
}
);
layerId = UUID0;
paths = (
{
closed = 1;
nodes = (
"1002 1400 LINE",
"846 1400 LINE",
"276 662 LINE",
"276 478 LINE"
);
},
{
closed = 1;
nodes = (
"352 0 LINE",
"352 1400 LINE",
"212 1400 LINE",
"212 0 LINE"
);
},
{
closed = 1;
nodes = (
"1098 0 LINE",
"600 952 LINE",
"504 834 LINE",
"940 0 LINE"
);
}
);
width = 1232;
},
{
anchors = (
{
name = bottom;
position = "{616, 0}";
},
{
name = top;
position = "{586, 1400}";
}
);
layerId = "C8970C82-1F9F-492B-A412-6BE281DD1303";
paths = (
{
closed = 1;
nodes = (
"1084 1400 LINE",
"806 1400 LINE",
"370 846 LINE",
"370 514 LINE"
);
},
{
closed = 1;
nodes = (
"390 0 LINE",
"390 1400 LINE",
"152 1400 LINE",
"152 0 LINE"
);
},
{
closed = 1;
nodes = (
"1174 0 LINE",
"666 930 LINE",
"506 730 LINE",
"896 0 LINE"
);
}
);
width = 1232;
}
);
unicode = 004B;
},
{
color = 4;
glyphname = Khook;
lastChange = "2021-07-19 21:53:16 +0000";
layers = (
{
layerId = UUID0;
paths = (
{
closed = 1;
nodes = (
"352 0 LINE",
"352 574 LINE",
"525 793 LINE",
"940 0 LINE",
"1098 0 LINE",
"620 914 LINE",
"805 1151 LINE SMOOTH",
"898 1270 OFFCURVE",
"983 1309 OFFCURVE",
"1127 1316 CURVE",
"1060 1424 LINE",
"892 1413 OFFCURVE",
"816 1359 OFFCURVE",
"702 1212 CURVE SMOOTH",
"352 760 LINE",
"352 1400 LINE",
"212 1400 LINE",
"212 0 LINE"
);
}
);
width = 1232;
},
{
background = {
paths = (
{
closed = 1;
nodes = (
"1174 0 LINE",
"666 930 LINE",
"506 730 LINE",
"896 0 LINE"
);
},
{
closed = 1;
nodes = (
"390 0 LINE",
"390 1400 LINE",
"152 1400 LINE",
"152 0 LINE"
);
},
{
closed = 1;
nodes = (
"719 947 LINE",
"564 1093 LINE",
"370 846 LINE",
"370 514 LINE"
);
},
{
closed = 1;
nodes = (
"800 1047 LINE SMOOTH",
"903 1174 OFFCURVE",
"984 1235 OFFCURVE",
"1180 1254 CURVE",
"1074 1424 LINE",
"884 1412 OFFCURVE",
"760 1342 OFFCURVE",
"640 1189 CURVE SMOOTH",
"546 1069 LINE",
"705 930 LINE"
);
}
);
};
layerId = "C8970C82-1F9F-492B-A412-6BE281DD1303";
paths = (
{
closed = 1;
nodes = (
"390 0 LINE",
"390 539 LINE",
"521 702 LINE",
"896 0 LINE",
"1174 0 LINE",
"682 901 LINE",
"800 1047 LINE SMOOTH",
"903 1174 OFFCURVE",
"984 1235 OFFCURVE",
"1180 1254 CURVE",
"1074 1424 LINE",
"884 1412 OFFCURVE",
"760 1342 OFFCURVE",
"640 1189 CURVE SMOOTH",
"390 871 LINE",
"390 1400 LINE",
"152 1400 LINE",
"152 0 LINE"
);
}
);
width = 1232;
}
);
unicode = 0198;
},
{
glyphname = L;
lastChange = "2020-09-15 16:21:19 +0000";
layers = (
{
anchors = (
{
name = bottom;
position = "{616, 0}";
},
{
name = center;
position = "{616, 700}";
},
{
name = top;
position = "{282, 1400}";
},
{
name = topright;
position = "{578, 962}";
}
);
layerId = UUID0;
paths = (
{
closed = 1;
nodes = (
"1028 0 LINE",
"1028 134 LINE",
"352 134 LINE",
"352 1400 LINE",
"212 1400 LINE",
"212 0 LINE"
);
}
);
width = 1232;
},
{
anchors = (
{
name = bottom;
position = "{592, 0}";
},
{
name = center;
position = "{524, 700}";
},
{
name = top;
position = "{272, 1400}";
},
{
name = topright;
position = "{570, 962}";
}
);
layerId = "C8970C82-1F9F-492B-A412-6BE281DD1303";
paths = (
{
closed = 1;
nodes = (
"1036 0 LINE",
"1036 228 LINE",
"390 228 LINE",
"390 1400 LINE",
"152 1400 LINE",
"152 0 LINE"
);
}
);
width = 1232;
}
);
unicode = 004C;
},
{
glyphname = LJ;
lastChange = "2020-09-15 16:21:19 +0000";
layers = (
{
layerId = UUID0;
paths = (
{
closed = 1;
nodes = (
"560 0 LINE",
"560 126 LINE",
"210 126 LINE",
"210 1400 LINE",
"70 1400 LINE",
"70 0 LINE"
);
},
{
closed = 1;
nodes = (
"1048 -24 OFFCURVE",
"1172 52 OFFCURVE",
"1172 346 CURVE SMOOTH",
"1172 1400 LINE",
"1032 1400 LINE",
"1032 318 LINE SMOOTH",
"1032 152 OFFCURVE",
"980 102 OFFCURVE",
"900 102 CURVE SMOOTH",
"838 102 OFFCURVE",
"782 132 OFFCURVE",
"748 274 CURVE",
"634 238 LINE",
"672 68 OFFCURVE",
"760 -24 OFFCURVE",
"900 -24 CURVE SMOOTH"
);
}
);
width = 1232;
},
{
layerId = "C8970C82-1F9F-492B-A412-6BE281DD1303";
paths = (
{
closed = 1;
nodes = (
"564 0 LINE",
"564 204 LINE",
"248 204 LINE",
"248 1400 LINE",
"40 1400 LINE",
"40 0 LINE"
);
},
{
closed = 1;
nodes = (
"1064 -24 OFFCURVE",
"1202 62 OFFCURVE",
"1202 388 CURVE SMOOTH",
"1202 1400 LINE",
"994 1400 LINE",
"994 358 LINE SMOOTH",
"994 228 OFFCURVE",
"960 180 OFFCURVE",
"908 180 CURVE SMOOTH",
"848 180 OFFCURVE",
"824 224 OFFCURVE",
"800 344 CURVE",
"616 286 LINE",
"644 90 OFFCURVE",
"742 -24 OFFCURVE",
"908 -24 CURVE SMOOTH"
);
}
);
width = 1232;
}
);
unicode = 01C7;
},
{
glyphname = Lj;
lastChange = "2021-07-22 22:48:36 +0000";
layers = (
{
layerId = UUID0;
paths = (
{
closed = 1;
nodes = (
"560 0 LINE",
"560 126 LINE",
"210 126 LINE",
"210 1400 LINE",
"70 1400 LINE",
"70 0 LINE"
);
},
{
closed = 1;
nodes = (
"908 -410 OFFCURVE",
"963 -381 OFFCURVE",
"1010 -338 CURVE SMOOTH",
"1070 -282 OFFCURVE",
"1090 -192 OFFCURVE",
"1090 -78 CURVE SMOOTH",
"1090 1022 LINE",
"766 1022 LINE",
"766 896 LINE",
"950 896 LINE",
"950 -50 LINE SMOOTH",
"950 -206 OFFCURVE",
"916 -276 OFFCURVE",
"766 -302 CURVE",
"830 -420 LINE"
);
},
{
closed = 1;
nodes = (
"1074 1232 OFFCURVE",
"1112 1272 OFFCURVE",
"1112 1324 CURVE SMOOTH",
"1112 1378 OFFCURVE",
"1074 1420 OFFCURVE",
"1020 1420 CURVE SMOOTH",
"968 1420 OFFCURVE",
"928 1378 OFFCURVE",
"928 1324 CURVE SMOOTH",
"928 1272 OFFCURVE",
"968 1232 OFFCURVE",
"1020 1232 CURVE SMOOTH"
);
}
);
width = 1232;
},
{
layerId = "C8970C82-1F9F-492B-A412-6BE281DD1303";
paths = (
{
closed = 1;
nodes = (
"564 0 LINE",
"564 204 LINE",
"248 204 LINE",
"248 1400 LINE",
"40 1400 LINE",
"40 0 LINE"
);
},
{
closed = 1;
nodes = (
"840 -414 OFFCURVE",
"890 -394 OFFCURVE",
"942 -360 CURVE SMOOTH",
"1050 -290 OFFCURVE",
"1100 -180 OFFCURVE",
"1100 0 CURVE SMOOTH",
"1100 1022 LINE",
"718 1022 LINE",
"718 818 LINE",
"892 818 LINE",
"892 -22 LINE SMOOTH",
"892 -160 OFFCURVE",
"842 -222 OFFCURVE",
"674 -264 CURVE",
"778 -426 LINE"
);
},
{
closed = 1;
nodes = (
"1072 1164 OFFCURVE",
"1132 1226 OFFCURVE",
"1132 1302 CURVE SMOOTH",
"1132 1378 OFFCURVE",
"1072 1438 OFFCURVE",
"994 1438 CURVE SMOOTH",
"918 1438 OFFCURVE",
"858 1378 OFFCURVE",
"858 1302 CURVE SMOOTH",
"858 1226 OFFCURVE",
"918 1164 OFFCURVE",
"994 1164 CURVE SMOOTH"
);
}
);
width = 1232;
}
);
unicode = 01C8;
},
{
glyphname = Lslash;
lastChange = "2020-09-15 16:21:19 +0000";
layers = (
{
layerId = UUID0;
paths = (
{
closed = 1;
nodes = (
"1108 0 LINE",
"1108 134 LINE",
"414 134 LINE",
"414 660 LINE",
"630 828 LINE",
"630 982 LINE",
"414 818 LINE",
"414 1400 LINE",
"274 1400 LINE",
"274 698 LINE",
"124 586 LINE",
"124 434 LINE",
"274 544 LINE",
"274 0 LINE"
);
}
);
width = 1232;
},
{
layerId = "C8970C82-1F9F-492B-A412-6BE281DD1303";
paths = (
{
closed = 1;
nodes = (
"1112 0 LINE",
"1112 228 LINE",
"462 228 LINE",
"462 632 LINE",
"734 838 LINE",
"734 1096 LINE",
"462 890 LINE",
"462 1400 LINE",
"224 1400 LINE",
"224 708 LINE",
"88 606 LINE",
"88 346 LINE",
"224 450 LINE",
"224 0 LINE"
);
}
);
width = 1232;
}
);
unicode = 0141;
},
{
glyphname = M;
lastChange = "2021-07-20 00:12:36 +0000";
layers = (
{
anchors = (
{
name = bottom;
position = "{616, 0}";
},
{
name = top;
position = "{616, 1400}";
}
);
layerId = UUID0;
paths = (
{
closed = 1;
nodes = (
"346 0 LINE",
"346 938 LINE SMOOTH",
"346 966 OFFCURVE",
"344 1020 OFFCURVE",
"342 1070 CURVE",
"350 1022 OFFCURVE",
"358 980 OFFCURVE",
"368 938 CURVE SMOOTH",
"600 0 LINE",
"632 0 LINE",
"864 938 LINE SMOOTH",
"874 980 OFFCURVE",
"882 1022 OFFCURVE",
"890 1070 CURVE",
"886 1020 OFFCURVE",
"886 966 OFFCURVE",
"886 938 CURVE SMOOTH",
"886 0 LINE",
"1020 0 LINE",
"1020 1400 LINE",
"858 1400 LINE",
"644 526 LINE SMOOTH",
"626 452 OFFCURVE",
"620 426 OFFCURVE",
"616 378 CURVE",
"610 426 OFFCURVE",
"606 452 OFFCURVE",
"588 526 CURVE SMOOTH",
"374 1400 LINE",
"212 1400 LINE",
"212 0 LINE"
);
}
);
width = 1232;
},
{
anchors = (
{
name = bottom;
position = "{616, 0}";
},
{
name = top;
position = "{616, 1400}";
}
);
layerId = "C8970C82-1F9F-492B-A412-6BE281DD1303";
paths = (
{
closed = 1;
nodes = (
"358 0 LINE",
"358 760 LINE SMOOTH",
"358 790 OFFCURVE",
"356 848 OFFCURVE",
"354 876 CURVE",
"366 844 OFFCURVE",
"381 798 OFFCURVE",
"392 760 CURVE SMOOTH",
"606 0 LINE",
"626 0 LINE",
"840 760 LINE SMOOTH",
"851 799 OFFCURVE",
"866 842 OFFCURVE",
"878 876 CURVE",
"874 848 OFFCURVE",
"874 790 OFFCURVE",
"874 760 CURVE SMOOTH",
"874 0 LINE",
"1080 0 LINE",
"1080 1400 LINE",
"862 1400 LINE",
"654 632 LINE SMOOTH",
"643 592 OFFCURVE",
"626 530 OFFCURVE",
"620 494 CURVE",
"614 530 OFFCURVE",
"597 592 OFFCURVE",
"586 632 CURVE SMOOTH",
"384 1400 LINE",
"152 1400 LINE",
"152 0 LINE"
);
}
);
width = 1232;
}
);
unicode = 004D;
},
{
glyphname = N;
lastChange = "2020-09-15 16:21:19 +0000";
layers = (
{
anchors = (
{
name = bottom;
position = "{616, 0}";
},
{
name = bottomleft;
position = "{212, 0}";
},
{
name = top;
position = "{616, 1400}";
}
);
layerId = UUID0;
paths = (
{
closed = 1;
nodes = (
"352 0 LINE",
"352 1022 LINE SMOOTH",
"352 1040 OFFCURVE",
"352 1056 OFFCURVE",
"350 1088 CURVE",
"358 1068 OFFCURVE",
"370 1040 OFFCURVE",
"380 1020 CURVE SMOOTH",
"878 0 LINE",
"1020 0 LINE",
"1020 1400 LINE",
"880 1400 LINE",
"880 362 LINE SMOOTH",
"880 344 OFFCURVE",
"880 334 OFFCURVE",
"882 296 CURVE",
"874 316 OFFCURVE",
"862 344 OFFCURVE",
"854 360 CURVE SMOOTH",
"354 1400 LINE",
"212 1400 LINE",
"212 0 LINE"
);
}
);
width = 1232;
},
{
anchors = (
{
name = bottom;
position = "{616, 0}";
},
{
name = bottomleft;
position = "{152, 0}";
},
{
name = top;
position = "{616, 1400}";
}
);
layerId = "C8970C82-1F9F-492B-A412-6BE281DD1303";
paths = (
{
closed = 1;
nodes = (
"374 0 LINE",
"374 868 LINE SMOOTH",
"374 894 OFFCURVE",
"374 934 OFFCURVE",
"368 964 CURVE",
"382 938 OFFCURVE",
"408 890 OFFCURVE",
"420 868 CURVE SMOOTH",
"864 0 LINE",
"1080 0 LINE",
"1080 1400 LINE",
"860 1400 LINE",
"860 536 LINE SMOOTH",
"860 512 OFFCURVE",
"862 474 OFFCURVE",
"864 440 CURVE",
"852 466 OFFCURVE",
"826 514 OFFCURVE",
"814 536 CURVE SMOOTH",
"378 1400 LINE",
"152 1400 LINE",
"152 0 LINE"
);
}
);
width = 1232;
}
);
unicode = 004E;
},
{
glyphname = NJ;
lastChange = "2021-07-22 22:49:02 +0000";
layers = (
{
layerId = UUID0;
paths = (
{
closed = 1;
nodes = (
"1048 -24 OFFCURVE",
"1172 52 OFFCURVE",
"1172 346 CURVE SMOOTH",
"1172 1400 LINE",
"1032 1400 LINE",
"1032 318 LINE SMOOTH",
"1032 152 OFFCURVE",
"980 102 OFFCURVE",
"900 102 CURVE SMOOTH",
"838 102 OFFCURVE",
"782 132 OFFCURVE",
"748 274 CURVE",
"634 238 LINE",
"672 68 OFFCURVE",
"760 -24 OFFCURVE",
"900 -24 CURVE SMOOTH"
);
},
{
closed = 1;
nodes = (
"210 0 LINE",
"210 756 LINE SMOOTH",
"210 784 OFFCURVE",
"210 830 OFFCURVE",
"208 868 CURVE",
"216 838 OFFCURVE",
"231 785 OFFCURVE",
"240 754 CURVE SMOOTH",
"460 0 LINE",
"584 0 LINE",
"584 1400 LINE",
"444 1400 LINE",
"444 644 LINE SMOOTH",
"444 616 OFFCURVE",
"444 574 OFFCURVE",
"446 532 CURVE",
"438 558 OFFCURVE",
"422 614 OFFCURVE",
"414 642 CURVE SMOOTH",
"194 1400 LINE",
"70 1400 LINE",
"70 0 LINE"
);
}
);
width = 1232;
},
{
layerId = "C8970C82-1F9F-492B-A412-6BE281DD1303";
paths = (
{
closed = 1;
nodes = (
"1064 -24 OFFCURVE",
"1202 62 OFFCURVE",
"1202 388 CURVE SMOOTH",
"1202 1400 LINE",
"994 1400 LINE",
"994 358 LINE SMOOTH",
"994 228 OFFCURVE",
"960 180 OFFCURVE",
"908 180 CURVE SMOOTH",
"848 180 OFFCURVE",
"824 224 OFFCURVE",
"800 344 CURVE",
"616 286 LINE",
"644 90 OFFCURVE",
"742 -24 OFFCURVE",
"908 -24 CURVE SMOOTH"
);
},
{
closed = 1;
nodes = (
"240 0 LINE",
"240 570 LINE SMOOTH",
"240 598 OFFCURVE",
"238 666 OFFCURVE",
"234 704 CURVE",
"242 667 OFFCURVE",
"260 597 OFFCURVE",
"268 566 CURVE SMOOTH",
"408 0 LINE",
"576 0 LINE",
"576 1400 LINE",
"376 1400 LINE",
"376 826 LINE SMOOTH",
"376 802 OFFCURVE",
"378 732 OFFCURVE",
"380 694 CURVE",
"372 732 OFFCURVE",
"356 796 OFFCURVE",
"348 828 CURVE SMOOTH",
"208 1400 LINE",
"40 1400 LINE",
"40 0 LINE"
);
}
);
width = 1232;
}
);
unicode = 01CA;
},
{
glyphname = Nhookleft;
lastChange = "2020-09-15 16:21:19 +0000";
layers = (
{
anchors = (
{
name = bottom;
position = "{616, 0}";
},
{
name = top;
position = "{616, 1400}";
}
);
layerId = UUID0;
paths = (
{
closed = 1;
nodes = (
"248 -428 OFFCURVE",
"352 -300 OFFCURVE",
"352 -74 CURVE SMOOTH",
"352 1022 LINE SMOOTH",
"352 1040 OFFCURVE",
"352 1056 OFFCURVE",
"350 1088 CURVE",
"358 1068 OFFCURVE",
"370 1040 OFFCURVE",
"380 1020 CURVE SMOOTH",
"878 0 LINE",
"1020 0 LINE",
"1020 1400 LINE",
"880 1400 LINE",
"880 362 LINE SMOOTH",
"880 344 OFFCURVE",
"880 334 OFFCURVE",
"882 296 CURVE",
"874 316 OFFCURVE",
"862 344 OFFCURVE",
"854 360 CURVE SMOOTH",
"354 1400 LINE",
"212 1400 LINE",
"212 -130 LINE SMOOTH",
"212 -232 OFFCURVE",
"162 -312 OFFCURVE",
"-32 -330 CURVE",
"32 -440 LINE"
);
}
);
width = 1232;
},
{
anchors = (
{
name = bottom;
position = "{616, 0}";
},
{
name = top;
position = "{616, 1400}";
}
);
layerId = "C8970C82-1F9F-492B-A412-6BE281DD1303";
paths = (
{
closed = 1;
nodes = (
"238 -416 OFFCURVE",
"374 -268 OFFCURVE",
"374 -10 CURVE SMOOTH",
"374 868 LINE SMOOTH",
"374 894 OFFCURVE",
"374 934 OFFCURVE",
"368 964 CURVE",
"386 932 OFFCURVE",
"404 900 OFFCURVE",
"420 868 CURVE SMOOTH",
"864 0 LINE",
"1080 0 LINE",
"1080 1400 LINE",
"860 1400 LINE",
"860 536 LINE SMOOTH",
"860 512 OFFCURVE",
"862 474 OFFCURVE",
"864 440 CURVE",
"852 466 OFFCURVE",
"826 514 OFFCURVE",
"814 536 CURVE SMOOTH",
"378 1400 LINE",
"152 1400 LINE",
"152 -26 LINE SMOOTH",
"152 -188 OFFCURVE",
"82 -244 OFFCURVE",
"-130 -290 CURVE",
"-14 -470 LINE"
);
}
);
width = 1232;
}
);
unicode = 019D;
},
{
glyphname = Nj;
lastChange = "2021-07-22 22:57:02 +0000";
layers = (
{
layerId = UUID0;
paths = (
{
closed = 1;
nodes = (
"210 0 LINE",
"210 756 LINE SMOOTH",
"210 784 OFFCURVE",
"210 830 OFFCURVE",
"208 868 CURVE",
"216 838 OFFCURVE",
"231 785 OFFCURVE",
"240 754 CURVE SMOOTH",
"460 0 LINE",
"584 0 LINE",
"584 1400 LINE",
"444 1400 LINE",
"444 644 LINE SMOOTH",
"444 616 OFFCURVE",
"444 574 OFFCURVE",
"446 532 CURVE",
"438 558 OFFCURVE",
"422 614 OFFCURVE",
"414 642 CURVE SMOOTH",
"194 1400 LINE",
"70 1400 LINE",
"70 0 LINE"
);
},
{
closed = 1;
nodes = (
"908 -410 OFFCURVE",
"964 -382 OFFCURVE",
"1010 -338 CURVE SMOOTH",
"1070 -282 OFFCURVE",
"1090 -192 OFFCURVE",
"1090 -78 CURVE SMOOTH",
"1090 1022 LINE",
"766 1022 LINE",
"766 896 LINE",
"950 896 LINE",
"950 -50 LINE SMOOTH",
"950 -206 OFFCURVE",
"916 -276 OFFCURVE",
"766 -302 CURVE",
"830 -420 LINE"
);
},
{
closed = 1;
nodes = (
"1074 1232 OFFCURVE",
"1112 1272 OFFCURVE",
"1112 1324 CURVE SMOOTH",
"1112 1378 OFFCURVE",
"1074 1420 OFFCURVE",
"1020 1420 CURVE SMOOTH",
"968 1420 OFFCURVE",
"928 1378 OFFCURVE",
"928 1324 CURVE SMOOTH",
"928 1272 OFFCURVE",
"968 1232 OFFCURVE",
"1020 1232 CURVE SMOOTH"
);
}
);
width = 1232;
},
{
layerId = "C8970C82-1F9F-492B-A412-6BE281DD1303";
paths = (
{
closed = 1;
nodes = (
"240 0 LINE",
"240 570 LINE SMOOTH",
"240 598 OFFCURVE",
"238 666 OFFCURVE",
"234 704 CURVE",
"243 667 OFFCURVE",
"259 602 OFFCURVE",
"268 566 CURVE SMOOTH",
"408 0 LINE",
"576 0 LINE",
"576 1400 LINE",
"376 1400 LINE",
"376 826 LINE SMOOTH",
"376 802 OFFCURVE",
"378 732 OFFCURVE",
"380 694 CURVE",
"372 732 OFFCURVE",
"356 796 OFFCURVE",
"348 828 CURVE SMOOTH",
"208 1400 LINE",
"40 1400 LINE",
"40 0 LINE"
);
},
{
closed = 1;
nodes = (
"840 -414 OFFCURVE",
"890 -394 OFFCURVE",
"942 -360 CURVE SMOOTH",
"1050 -290 OFFCURVE",
"1100 -180 OFFCURVE",
"1100 0 CURVE SMOOTH",
"1100 1022 LINE",
"718 1022 LINE",
"718 818 LINE",
"892 818 LINE",
"892 -22 LINE SMOOTH",
"892 -160 OFFCURVE",
"842 -222 OFFCURVE",
"674 -264 CURVE",
"778 -426 LINE"
);
},
{
closed = 1;
nodes = (
"1072 1164 OFFCURVE",
"1132 1226 OFFCURVE",
"1132 1302 CURVE SMOOTH",
"1132 1378 OFFCURVE",
"1072 1438 OFFCURVE",
"994 1438 CURVE SMOOTH",
"918 1438 OFFCURVE",
"858 1378 OFFCURVE",
"858 1302 CURVE SMOOTH",
"858 1226 OFFCURVE",
"918 1164 OFFCURVE",
"994 1164 CURVE SMOOTH"
);
}
);
width = 1232;
}
);
unicode = 01CB;
},
{
glyphname = Eng;
lastChange = "2021-07-22 17:51:44 +0000";
layers = (
{
layerId = UUID0;
paths = (
{
closed = 1;
nodes = (
"812 -472 OFFCURVE",
"889 -429 OFFCURVE",
"940 -366 CURVE SMOOTH",
"996 -296 OFFCURVE",
"1020 -202 OFFCURVE",
"1020 -92 CURVE SMOOTH",
"1020 1400 LINE",
"880 1400 LINE",
"880 362 LINE SMOOTH",
"880 344 OFFCURVE",
"880 334 OFFCURVE",
"882 296 CURVE",
"874 316 OFFCURVE",
"862 344 OFFCURVE",
"854 360 CURVE SMOOTH",
"354 1400 LINE",
"212 1400 LINE",
"212 0 LINE",
"352 0 LINE",
"352 1022 LINE SMOOTH",
"352 1040 OFFCURVE",
"352 1056 OFFCURVE",
"350 1088 CURVE",
"358 1068 OFFCURVE",
"370 1040 OFFCURVE",
"380 1020 CURVE SMOOTH",
"880 -2 LINE",
"880 -120 LINE SMOOTH",
"880 -230 OFFCURVE",
"830 -360 OFFCURVE",
"634 -378 CURVE",
"698 -488 LINE"
);
}
);
width = 1232;
},
{
layerId = "C8970C82-1F9F-492B-A412-6BE281DD1303";
paths = (
{
closed = 1;
nodes = (
"770 -470 OFFCURVE",
"890 -436 OFFCURVE",
"976 -350 CURVE SMOOTH",
"1062 -264 OFFCURVE",
"1080 -162 OFFCURVE",
"1080 -34 CURVE SMOOTH",
"1080 1400 LINE",
"860 1400 LINE",
"860 536 LINE SMOOTH",
"860 512 OFFCURVE",
"862 474 OFFCURVE",
"864 440 CURVE",
"852 466 OFFCURVE",
"821 524 OFFCURVE",
"814 537 CURVE SMOOTH",
"378 1400 LINE",
"152 1400 LINE",
"152 0 LINE",
"374 0 LINE",
"374 868 LINE SMOOTH",
"374 894 OFFCURVE",
"374 934 OFFCURVE",
"368 964 CURVE",
"388 928 OFFCURVE",
"405 897 OFFCURVE",
"420 868 CURVE SMOOTH",
"860 8 LINE",
"860 -52 LINE SMOOTH",
"860 -204 OFFCURVE",
"780 -262 OFFCURVE",
"536 -304 CURVE",
"652 -488 LINE"
);
}
);
width = 1232;
}
);
leftMetricsKey = N;
rightMetricsKey = N;
unicode = 014A;
},
{
glyphname = O;
lastChange = "2021-07-20 00:10:43 +0000";
layers = (
{
anchors = (
{
name = bottom;
position = "{616, 0}";
},
{
name = center;
position = "{616, 700}";
},
{
name = ogonek;
position = "{752, 0}";
},
{
name = right;
position = "{974, 930}";
},
{
name = top;
position = "{616, 1400}";
},
{
name = topleft;
position = "{40, 1400}";
},
{
name = topright;
position = "{1192, 1400}";
}
);
layerId = UUID0;
paths = (
{
closed = 1;
nodes = (
"952 -24 OFFCURVE",
"1066 354 OFFCURVE",
"1066 700 CURVE SMOOTH",
"1066 1046 OFFCURVE",
"952 1424 OFFCURVE",
"616 1424 CURVE SMOOTH",
"280 1424 OFFCURVE",
"166 1046 OFFCURVE",
"166 700 CURVE SMOOTH",
"166 354 OFFCURVE",
"280 -24 OFFCURVE",
"616 -24 CURVE SMOOTH"
);
},
{
closed = 1;
nodes = (
"390 102 OFFCURVE",
"312 396 OFFCURVE",
"312 700 CURVE SMOOTH",
"312 978 OFFCURVE",
"390 1298 OFFCURVE",
"616 1298 CURVE SMOOTH",
"842 1298 OFFCURVE",
"920 1004 OFFCURVE",
"920 700 CURVE SMOOTH",
"920 422 OFFCURVE",
"842 102 OFFCURVE",
"616 102 CURVE SMOOTH"
);
}
);
width = 1232;
},
{
anchors = (
{
name = bottom;
position = "{616, 0}";
},
{
name = center;
position = "{616, 700}";
},
{
name = ogonek;
position = "{782, 0}";
},
{
name = right;
position = "{1034, 930}";
},
{
name = top;
position = "{616, 1400}";
},
{
name = topleft;
position = "{40, 1400}";
},
{
name = topright;
position = "{1192, 1400}";
}
);
layerId = "C8970C82-1F9F-492B-A412-6BE281DD1303";
paths = (
{
closed = 1;
nodes = (
"992 -24 OFFCURVE",
"1148 324 OFFCURVE",
"1148 700 CURVE SMOOTH",
"1148 1076 OFFCURVE",
"992 1424 OFFCURVE",
"616 1424 CURVE SMOOTH",
"240 1424 OFFCURVE",
"86 1076 OFFCURVE",
"86 700 CURVE SMOOTH",
"86 324 OFFCURVE",
"240 -24 OFFCURVE",
"616 -24 CURVE SMOOTH"
);
},
{
closed = 1;
nodes = (
"416 202 OFFCURVE",
"332 436 OFFCURVE",
"332 700 CURVE SMOOTH",
"332 952 OFFCURVE",
"416 1198 OFFCURVE",
"616 1198 CURVE SMOOTH",
"816 1198 OFFCURVE",
"900 966 OFFCURVE",
"900 700 CURVE SMOOTH",
"900 450 OFFCURVE",
"814 202 OFFCURVE",
"616 202 CURVE SMOOTH"
);
}
);
width = 1232;
}
);
unicode = 004F;
},
{
glyphname = Ohorn;
lastChange = "2020-09-15 16:21:19 +0000";
layers = (
{
anchors = (
{
name = bottom;
position = "{580, 0}";
},
{
name = top;
position = "{580, 1400}";
}
);
layerId = UUID0;
paths = (
{
closed = 1;
nodes = (
"874 -24 OFFCURVE",
"988 354 OFFCURVE",
"988 700 CURVE SMOOTH",
"988 1046 OFFCURVE",
"874 1424 OFFCURVE",
"578 1424 CURVE SMOOTH",
"282 1424 OFFCURVE",
"168 1046 OFFCURVE",
"168 700 CURVE SMOOTH",
"168 354 OFFCURVE",
"282 -24 OFFCURVE",
"578 -24 CURVE SMOOTH"
);
},
{
closed = 1;
nodes = (
"392 102 OFFCURVE",
"314 396 OFFCURVE",
"314 700 CURVE SMOOTH",
"314 978 OFFCURVE",
"392 1298 OFFCURVE",
"578 1298 CURVE SMOOTH",
"764 1298 OFFCURVE",
"842 1004 OFFCURVE",
"842 700 CURVE SMOOTH",
"842 422 OFFCURVE",
"764 102 OFFCURVE",
"578 102 CURVE SMOOTH"
);
},
{
closed = 1;
nodes = (
"1014 878 OFFCURVE",
"1116 910 OFFCURVE",
"1176 1006 CURVE SMOOTH",
"1210 1060 OFFCURVE",
"1232 1134 OFFCURVE",
"1232 1234 CURVE SMOOTH",
"1232 1400 LINE",
"1092 1400 LINE",
"1092 1178 LINE SMOOTH",
"1092 1080 OFFCURVE",
"1042 1000 OFFCURVE",
"892 982 CURVE",
"892 872 LINE"
);
}
);
width = 1232;
},
{
anchors = (
{
name = bottom;
position = "{488, 0}";
},
{
name = top;
position = "{488, 1400}";
}
);
layerId = "C8970C82-1F9F-492B-A412-6BE281DD1303";
paths = (
{
closed = 1;
nodes = (
"818 -24 OFFCURVE",
"946 314 OFFCURVE",
"946 700 CURVE SMOOTH",
"946 1086 OFFCURVE",
"818 1424 OFFCURVE",
"488 1424 CURVE SMOOTH",
"158 1424 OFFCURVE",
"30 1086 OFFCURVE",
"30 700 CURVE SMOOTH",
"30 314 OFFCURVE",
"158 -24 OFFCURVE",
"488 -24 CURVE SMOOTH"
);
},
{
closed = 1;
nodes = (
"330 202 OFFCURVE",
"276 430 OFFCURVE",
"276 700 CURVE SMOOTH",
"276 960 OFFCURVE",
"330 1198 OFFCURVE",
"488 1198 CURVE SMOOTH",
"646 1198 OFFCURVE",
"700 972 OFFCURVE",
"700 700 CURVE SMOOTH",
"700 440 OFFCURVE",
"640 202 OFFCURVE",
"488 202 CURVE SMOOTH"
);
},
{
closed = 1;
nodes = (
"930 738 OFFCURVE",
"1044 766 OFFCURVE",
"1136 868 CURVE SMOOTH",
"1216 956 OFFCURVE",
"1232 1070 OFFCURVE",
"1232 1188 CURVE SMOOTH",
"1232 1400 LINE",
"994 1400 LINE",
"994 1124 LINE SMOOTH",
"994 1002 OFFCURVE",
"930 948 OFFCURVE",
"768 920 CURVE",
"768 734 LINE"
);
}
);
width = 1232;
}
);
unicode = 01A0;
},
{
color = 4;
glyphname = Oopen;
lastChange = "2021-07-16 04:31:24 +0000";
layers = (
{
anchors = (
{
name = bottom;
position = "{576, -8}";
},
{
name = top;
position = "{556, 1400}";
}
);
layerId = UUID0;
paths = (
{
closed = 1;
nodes = (
"922 -24 OFFCURVE",
"1066 334 OFFCURVE",
"1066 700 CURVE SMOOTH",
"1066 1082 OFFCURVE",
"910 1424 OFFCURVE",
"554 1424 CURVE SMOOTH",
"344 1424 OFFCURVE",
"254 1312 OFFCURVE",
"196 1198 CURVE",
"320 1126 LINE",
"368 1216 OFFCURVE",
"430 1298 OFFCURVE",
"554 1298 CURVE SMOOTH",
"824 1298 OFFCURVE",
"920 978 OFFCURVE",
"920 700 CURVE SMOOTH",
"920 392 OFFCURVE",
"812 102 OFFCURVE",
"554 102 CURVE SMOOTH",
"422 102 OFFCURVE",
"350 174 OFFCURVE",
"300 280 CURVE",
"176 232 LINE",
"230 104 OFFCURVE",
"350 -24 OFFCURVE",
"554 -24 CURVE SMOOTH"
);
}
);
width = 1232;
},
{
anchors = (
{
name = bottom;
position = "{584, 0}";
},
{
name = top;
position = "{598, 1400}";
}
);
layerId = "C8970C82-1F9F-492B-A412-6BE281DD1303";
paths = (
{
closed = 1;
nodes = (
"998 -22 OFFCURVE",
"1146 350 OFFCURVE",
"1146 700 CURVE SMOOTH",
"1146 1036 OFFCURVE",
"992 1422 OFFCURVE",
"592 1422 CURVE SMOOTH",
"356 1422 OFFCURVE",
"216 1276 OFFCURVE",
"158 1130 CURVE",
"370 1028 LINE",
"424 1132 OFFCURVE",
"484 1196 OFFCURVE",
"592 1196 CURVE SMOOTH",
"820 1196 OFFCURVE",
"900 924 OFFCURVE",
"900 700 CURVE SMOOTH",
"900 462 OFFCURVE",
"804 204 OFFCURVE",
"592 204 CURVE SMOOTH",
"484 204 OFFCURVE",
"418 278 OFFCURVE",
"368 384 CURVE",
"152 302 LINE",
"228 116 OFFCURVE",
"366 -22 OFFCURVE",
"592 -22 CURVE SMOOTH"
);
}
);
width = 1232;
}
);
unicode = 0186;
},
{
glyphname = Oslash;
lastChange = "2020-09-15 16:21:19 +0000";
layers = (
{
components = (
{
name = O;
}
);
layerId = UUID0;
paths = (
{
closed = 1;
nodes = (
"1172 1424 LINE",
"1024 1424 LINE",
"60 -24 LINE",
"204 -24 LINE"
);
}
);
width = 1232;
},
{
components = (
{
name = O;
}
);
layerId = "C8970C82-1F9F-492B-A412-6BE281DD1303";
paths = (
{
closed = 1;
nodes = (
"1218 1424 LINE",
"988 1424 LINE",
"14 -24 LINE",
"244 -24 LINE"
);
}
);
width = 1232;
}
);
unicode = 00D8;
},
{
glyphname = OE;
lastChange = "2020-09-15 16:21:19 +0000";
layers = (
{
layerId = UUID0;
paths = (
{
closed = 1;
nodes = (
"594 -24 OFFCURVE",
"674 8 OFFCURVE",
"738 62 CURVE",
"682 202 LINE",
"636 140 OFFCURVE",
"574 102 OFFCURVE",
"496 102 CURVE SMOOTH",
"270 102 OFFCURVE",
"192 394 OFFCURVE",
"192 704 CURVE SMOOTH",
"192 978 OFFCURVE",
"270 1298 OFFCURVE",
"496 1298 CURVE SMOOTH",
"568 1298 OFFCURVE",
"626 1268 OFFCURVE",
"670 1216 CURVE",
"732 1340 LINE",
"670 1394 OFFCURVE",
"592 1424 OFFCURVE",
"496 1424 CURVE SMOOTH",
"160 1424 OFFCURVE",
"46 1050 OFFCURVE",
"46 704 CURVE SMOOTH",
"46 352 OFFCURVE",
"160 -24 OFFCURVE",
"496 -24 CURVE SMOOTH"
);
},
{
closed = 1;
nodes = (
"1172 0 LINE",
"1172 134 LINE",
"764 134 LINE",
"764 658 LINE",
"1054 658 LINE",
"1054 790 LINE",
"764 790 LINE",
"764 1266 LINE",
"1128 1266 LINE",
"1128 1400 LINE",
"624 1400 LINE",
"624 0 LINE"
);
}
);
width = 1232;
},
{
layerId = "C8970C82-1F9F-492B-A412-6BE281DD1303";
paths = (
{
closed = 1;
nodes = (
"572 -24 OFFCURVE",
"622 -12 OFFCURVE",
"668 14 CURVE",
"656 312 LINE",
"620 244 OFFCURVE",
"574 202 OFFCURVE",
"514 202 CURVE SMOOTH",
"352 202 OFFCURVE",
"286 434 OFFCURVE",
"286 702 CURVE SMOOTH",
"286 954 OFFCURVE",
"352 1200 OFFCURVE",
"514 1200 CURVE SMOOTH",
"574 1200 OFFCURVE",
"620 1158 OFFCURVE",
"656 1094 CURVE",
"668 1388 LINE",
"626 1414 OFFCURVE",
"572 1426 OFFCURVE",
"514 1426 CURVE SMOOTH",
"178 1426 OFFCURVE",
"40 1078 OFFCURVE",
"40 702 CURVE SMOOTH",
"40 324 OFFCURVE",
"178 -24 OFFCURVE",
"514 -24 CURVE SMOOTH"
);
},
{
closed = 1;
nodes = (
"1182 0 LINE",
"1182 226 LINE",
"864 226 LINE",
"864 610 LINE",
"1046 610 LINE",
"1046 836 LINE",
"864 836 LINE",
"864 1174 LINE",
"1162 1174 LINE",
"1162 1400 LINE",
"626 1400 LINE",
"626 0 LINE"
);
}
);
width = 1232;
}
);
unicode = 0152;
},
{
glyphname = P;
lastChange = "2020-09-15 16:21:19 +0000";
layers = (
{
anchors = (
{
name = bottom;
position = "{282, 0}";
},
{
name = top;
position = "{616, 1400}";
}
);
layerId = UUID0;
paths = (
{
closed = 1;
nodes = (
"352 0 LINE",
"352 578 LINE",
"614 578 LINE SMOOTH",
"936 578 OFFCURVE",
"1056 800 OFFCURVE",
"1056 988 CURVE SMOOTH",
"1056 1192 OFFCURVE",
"948 1400 OFFCURVE",
"614 1400 CURVE SMOOTH",
"212 1400 LINE",
"212 0 LINE"
);
},
{
closed = 1;
nodes = (
"352 1274 LINE",
"626 1274 LINE SMOOTH",
"860 1274 OFFCURVE",
"922 1110 OFFCURVE",
"922 988 CURVE SMOOTH",
"922 854 OFFCURVE",
"846 704 OFFCURVE",
"626 704 CURVE SMOOTH",
"352 704 LINE"
);
}
);
width = 1232;
},
{
anchors = (
{
name = bottom;
position = "{270, 0}";
},
{
name = top;
position = "{616, 1400}";
}
);
layerId = "C8970C82-1F9F-492B-A412-6BE281DD1303";
paths = (
{
closed = 1;
nodes = (
"390 0 LINE",
"390 532 LINE",
"646 532 LINE SMOOTH",
"982 532 OFFCURVE",
"1114 766 OFFCURVE",
"1114 966 CURVE SMOOTH",
"1114 1180 OFFCURVE",
"994 1400 OFFCURVE",
"646 1400 CURVE SMOOTH",
"152 1400 LINE",
"152 0 LINE"
);
},
{
closed = 1;
nodes = (
"390 1176 LINE",
"658 1176 LINE SMOOTH",
"824 1176 OFFCURVE",
"872 1056 OFFCURVE",
"872 966 CURVE SMOOTH",
"872 866 OFFCURVE",
"814 756 OFFCURVE",
"658 756 CURVE SMOOTH",
"390 756 LINE"
);
}
);
width = 1232;
}
);
unicode = 0050;
},
{
color = 4;
glyphname = Phook;
lastChange = "2021-07-14 22:21:21 +0000";
layers = (
{
background = {
paths = (
{
closed = 1;
nodes = (
"542 0 LINE",
"542 578 LINE",
"694 578 LINE SMOOTH",
"986 578 OFFCURVE",
"1106 790 OFFCURVE",
"1106 988 CURVE SMOOTH",
"1106 1202 OFFCURVE",
"998 1400 OFFCURVE",
"694 1400 CURVE SMOOTH",
"402 1400 LINE",
"402 0 LINE"
);
},
{
closed = 1;
nodes = (
"542 1274 LINE",
"706 1274 LINE SMOOTH",
"910 1274 OFFCURVE",
"972 1120 OFFCURVE",
"972 988 CURVE SMOOTH",
"972 844 OFFCURVE",
"896 704 OFFCURVE",
"706 704 CURVE SMOOTH",
"542 704 LINE"
);
},
{
closed = 1;
nodes = (
"183 1194 OFFCURVE",
"213 1271 OFFCURVE",
"321 1271 CURVE SMOOTH",
"408 1271 LINE",
"408 1400 LINE",
"332 1400 LINE SMOOTH",
"131 1400 OFFCURVE",
"51 1300 OFFCURVE",
"40 1061 CURVE",
"176 994 LINE"
);
}
);
};
layerId = UUID0;
paths = (
{
closed = 1;
nodes = (
"542 0 LINE",
"542 578 LINE",
"694 578 LINE SMOOTH",
"986 578 OFFCURVE",
"1106 790 OFFCURVE",
"1106 988 CURVE SMOOTH",
"1106 1202 OFFCURVE",
"998 1400 OFFCURVE",
"694 1400 CURVE SMOOTH",
"332 1400 LINE SMOOTH",
"131 1400 OFFCURVE",
"51 1300 OFFCURVE",
"40 1061 CURVE",
"176 994 LINE",
"183 1194 OFFCURVE",
"213 1271 OFFCURVE",
"321 1271 CURVE SMOOTH",
"402 1271 LINE",
"402 0 LINE"
);
},
{
closed = 1;
nodes = (
"542 1274 LINE",
"706 1274 LINE SMOOTH",
"910 1274 OFFCURVE",
"972 1120 OFFCURVE",
"972 988 CURVE SMOOTH",
"972 844 OFFCURVE",
"896 704 OFFCURVE",
"706 704 CURVE SMOOTH",
"542 704 LINE"
);
}
);
width = 1232;
},
{
background = {
paths = (
{
closed = 1;
nodes = (
"626 0 LINE",
"626 532 LINE",
"726 532 LINE SMOOTH",
"1022 532 OFFCURVE",
"1154 756 OFFCURVE",
"1154 966 CURVE SMOOTH",
"1154 1190 OFFCURVE",
"1034 1400 OFFCURVE",
"726 1400 CURVE SMOOTH",
"388 1400 LINE",
"388 0 LINE"
);
},
{
closed = 1;
nodes = (
"626 1176 LINE",
"738 1176 LINE SMOOTH",
"864 1176 OFFCURVE",
"912 1076 OFFCURVE",
"912 966 CURVE SMOOTH",
"912 846 OFFCURVE",
"854 756 OFFCURVE",
"738 756 CURVE SMOOTH",
"626 756 LINE"
);
},
{
closed = 1;
nodes = (
"236 1104 OFFCURVE",
"262 1180 OFFCURVE",
"375 1180 CURVE SMOOTH",
"466 1180 LINE",
"466 1400 LINE",
"383 1400 LINE SMOOTH",
"122 1400 OFFCURVE",
"34 1260 OFFCURVE",
"10 1000 CURVE",
"226 890 LINE"
);
}
);
};
layerId = "C8970C82-1F9F-492B-A412-6BE281DD1303";
paths = (
{
closed = 1;
nodes = (
"626 0 LINE",
"626 532 LINE",
"726 532 LINE SMOOTH",
"1022 532 OFFCURVE",
"1154 756 OFFCURVE",
"1154 966 CURVE SMOOTH",
"1154 1190 OFFCURVE",
"1034 1400 OFFCURVE",
"726 1400 CURVE SMOOTH",
"383 1400 LINE SMOOTH",
"122 1400 OFFCURVE",
"34 1260 OFFCURVE",
"10 1000 CURVE",
"226 890 LINE",
"236 1104 OFFCURVE",
"262 1180 OFFCURVE",
"375 1180 CURVE SMOOTH",
"388 1180 LINE",
"388 0 LINE"
);
},
{
closed = 1;
nodes = (
"626 1176 LINE",
"738 1176 LINE SMOOTH",
"864 1176 OFFCURVE",
"912 1076 OFFCURVE",
"912 966 CURVE SMOOTH",
"912 846 OFFCURVE",
"854 756 OFFCURVE",
"738 756 CURVE SMOOTH",
"626 756 LINE"
);
}
);
width = 1232;
}
);
unicode = 01A4;
},
{
glyphname = Thorn;
lastChange = "2020-09-15 16:21:19 +0000";
layers = (
{
layerId = UUID0;
paths = (
{
closed = 1;
nodes = (
"352 0 LINE",
"352 300 LINE",
"614 300 LINE SMOOTH",
"938 300 OFFCURVE",
"1056 524 OFFCURVE",
"1056 710 CURVE SMOOTH",
"1056 916 OFFCURVE",
"948 1122 OFFCURVE",
"614 1122 CURVE SMOOTH",
"352 1122 LINE",
"352 1400 LINE",
"212 1400 LINE",
"212 0 LINE"
);
},
{
closed = 1;
nodes = (
"352 996 LINE",
"626 996 LINE SMOOTH",
"860 996 OFFCURVE",
"922 828 OFFCURVE",
"922 710 CURVE SMOOTH",
"922 576 OFFCURVE",
"846 426 OFFCURVE",
"626 426 CURVE SMOOTH",
"352 426 LINE"
);
}
);
width = 1232;
},
{
layerId = "C8970C82-1F9F-492B-A412-6BE281DD1303";
paths = (
{
closed = 1;
nodes = (
"390 0 LINE",
"390 278 LINE",
"648 278 LINE SMOOTH",
"984 278 OFFCURVE",
"1114 512 OFFCURVE",
"1114 712 CURVE SMOOTH",
"1114 926 OFFCURVE",
"996 1146 OFFCURVE",
"648 1146 CURVE SMOOTH",
"390 1146 LINE",
"390 1400 LINE",
"152 1400 LINE",
"152 0 LINE"
);
},
{
closed = 1;
nodes = (
"390 922 LINE",
"658 922 LINE SMOOTH",
"824 922 OFFCURVE",
"872 802 OFFCURVE",
"872 712 CURVE SMOOTH",
"872 612 OFFCURVE",
"814 502 OFFCURVE",
"658 502 CURVE SMOOTH",
"390 502 LINE"
);
}
);
width = 1232;
}
);
unicode = 00DE;
},
{
glyphname = Q;
lastChange = "2020-09-15 16:21:19 +0000";
layers = (
{
anchors = (
{
name = bottom;
position = "{616, 0}";
},
{
name = top;
position = "{616, 1400}";
}
);
components = (
{
name = O;
}
);
layerId = UUID0;
paths = (
{
closed = 1;
nodes = (
"986 -98 LINE",
"704 326 LINE",
"604 254 LINE",
"890 -170 LINE"
);
}
);
width = 1232;
},
{
anchors = (
{
name = bottom;
position = "{616, 0}";
},
{
name = top;
position = "{616, 1400}";
}
);
components = (
{
name = O;
}
);
layerId = "C8970C82-1F9F-492B-A412-6BE281DD1303";
paths = (
{
closed = 1;
nodes = (
"1052 -42 LINE",
"716 464 LINE",
"538 348 LINE",
"878 -158 LINE"
);
}
);
width = 1232;
}
);
unicode = 0051;
},
{
glyphname = R;
lastChange = "2020-09-15 16:21:19 +0000";
layers = (
{
anchors = (
{
name = bottom;
position = "{616, 0}";
},
{
name = top;
position = "{652, 1400}";
}
);
layerId = UUID0;
paths = (
{
closed = 1;
nodes = (
"352 0 LINE",
"352 626 LINE",
"610 626 LINE SMOOTH",
"948 626 OFFCURVE",
"1046 836 OFFCURVE",
"1046 1016 CURVE SMOOTH",
"1046 1204 OFFCURVE",
"948 1400 OFFCURVE",
"614 1400 CURVE SMOOTH",
"212 1400 LINE",
"212 0 LINE"
);
},
{
closed = 1;
nodes = (
"1038 0 LINE",
"714 660 LINE",
"570 654 LINE",
"884 0 LINE"
);
},
{
closed = 1;
nodes = (
"352 1274 LINE",
"618 1274 LINE SMOOTH",
"852 1274 OFFCURVE",
"912 1120 OFFCURVE",
"912 1010 CURVE SMOOTH",
"912 884 OFFCURVE",
"844 752 OFFCURVE",
"618 752 CURVE SMOOTH",
"352 752 LINE"
);
}
);
width = 1232;
},
{
anchors = (
{
name = bottom;
position = "{610, 0}";
},
{
name = top;
position = "{594, 1400}";
}
);
layerId = "C8970C82-1F9F-492B-A412-6BE281DD1303";
paths = (
{
closed = 1;
nodes = (
"390 0 LINE",
"390 548 LINE",
"676 548 LINE",
"956 568 OFFCURVE",
"1094 768 OFFCURVE",
"1094 976 CURVE SMOOTH",
"1094 1196 OFFCURVE",
"982 1400 OFFCURVE",
"636 1400 CURVE SMOOTH",
"152 1400 LINE",
"152 0 LINE"
);
},
{
closed = 1;
nodes = (
"1092 0 LINE",
"796 602 LINE",
"542 576 LINE",
"828 0 LINE"
);
},
{
closed = 1;
nodes = (
"390 1176 LINE",
"640 1176 LINE SMOOTH",
"806 1176 OFFCURVE",
"850 1068 OFFCURVE",
"850 974 CURVE SMOOTH",
"850 870 OFFCURVE",
"800 772 OFFCURVE",
"640 772 CURVE SMOOTH",
"390 772 LINE"
);
}
);
width = 1232;
}
);
unicode = 0052;
},
{
color = 4;
glyphname = Rstroke;
lastChange = "2021-07-16 04:24:30 +0000";
layers = (
{
anchors = (
{
name = bottom;
position = "{616, 0}";
},
{
name = top;
position = "{652, 1400}";
}
);
layerId = UUID0;
paths = (
{
closed = 1;
nodes = (
"352 0 LINE",
"352 1274 LINE",
"618 1274 LINE SMOOTH",
"852 1274 OFFCURVE",
"912 1120 OFFCURVE",
"912 1010 CURVE SMOOTH",
"912 884 OFFCURVE",
"844 752 OFFCURVE",
"618 752 CURVE SMOOTH",
"40 752 LINE",
"40 626 LINE",
"610 626 LINE SMOOTH",
"948 626 OFFCURVE",
"1046 836 OFFCURVE",
"1046 1016 CURVE SMOOTH",
"1046 1204 OFFCURVE",
"948 1400 OFFCURVE",
"614 1400 CURVE SMOOTH",
"212 1400 LINE",
"212 0 LINE"
);
},
{
closed = 1;
nodes = (
"1038 0 LINE",
"714 660 LINE",
"570 654 LINE",
"884 0 LINE"
);
}
);
width = 1232;
},
{
anchors = (
{
name = bottom;
position = "{610, 0}";
},
{
name = top;
position = "{594, 1400}";
}
);
layerId = "C8970C82-1F9F-492B-A412-6BE281DD1303";
paths = (
{
closed = 1;
nodes = (
"430 0 LINE",
"430 1176 LINE",
"640 1176 LINE SMOOTH",
"806 1176 OFFCURVE",
"850 1068 OFFCURVE",
"850 974 CURVE SMOOTH",
"850 870 OFFCURVE",
"800 772 OFFCURVE",
"640 772 CURVE SMOOTH",
"10 772 LINE",
"10 548 LINE",
"676 548 LINE",
"956 568 OFFCURVE",
"1094 768 OFFCURVE",
"1094 976 CURVE SMOOTH",
"1094 1196 OFFCURVE",
"982 1400 OFFCURVE",
"636 1400 CURVE SMOOTH",
"192 1400 LINE",
"192 0 LINE"
);
},
{
closed = 1;
nodes = (
"1092 0 LINE",
"796 602 LINE",
"542 576 LINE",
"828 0 LINE"
);
}
);
width = 1232;
}
);
unicode = 024C;
},
{
color = 4;
glyphname = Rtail;
lastChange = "2021-07-21 00:06:45 +0000";
layers = (
{
anchors = (
{
name = bottom;
position = "{616, -426}";
},
{
name = top;
position = "{652, 1400}";
}
);
background = {
paths = (
{
closed = 1;
nodes = (
"352 0 LINE",
"352 626 LINE",
"610 626 LINE SMOOTH",
"948 626 OFFCURVE",
"1046 836 OFFCURVE",
"1046 1016 CURVE SMOOTH",
"1046 1204 OFFCURVE",
"948 1400 OFFCURVE",
"614 1400 CURVE SMOOTH",
"212 1400 LINE",
"212 0 LINE"
);
},
{
closed = 1;
nodes = (
"533 -314 LINE",
"384 -289 OFFCURVE",
"352 -217 OFFCURVE",
"352 -72 CURVE SMOOTH",
"352 42 LINE",
"212 42 LINE",
"212 -52 LINE SMOOTH",
"212 -282 OFFCURVE",
"277 -396 OFFCURVE",
"465 -426 CURVE"
);
},
{
closed = 1;
nodes = (
"1038 0 LINE",
"714 660 LINE",
"570 654 LINE",
"884 0 LINE"
);
},
{
closed = 1;
nodes = (
"352 1274 LINE",
"618 1274 LINE SMOOTH",
"852 1274 OFFCURVE",
"912 1120 OFFCURVE",
"912 1010 CURVE SMOOTH",
"912 884 OFFCURVE",
"844 752 OFFCURVE",
"618 752 CURVE SMOOTH",
"352 752 LINE"
);
}
);
};
layerId = UUID0;
paths = (
{
closed = 1;
nodes = (
"533 -314 LINE",
"384 -289 OFFCURVE",
"352 -217 OFFCURVE",
"352 -72 CURVE SMOOTH",
"352 626 LINE",
"583 626 LINE",
"884 0 LINE",
"1038 0 LINE",
"726 635 LINE",
"971 678 OFFCURVE",
"1046 859 OFFCURVE",
"1046 1016 CURVE SMOOTH",
"1046 1204 OFFCURVE",
"948 1400 OFFCURVE",
"614 1400 CURVE SMOOTH",
"212 1400 LINE",
"212 -52 LINE SMOOTH",
"212 -282 OFFCURVE",
"277 -396 OFFCURVE",
"465 -426 CURVE"
);
},
{
closed = 1;
nodes = (
"352 1274 LINE",
"618 1274 LINE SMOOTH",
"852 1274 OFFCURVE",
"912 1120 OFFCURVE",
"912 1010 CURVE SMOOTH",
"912 884 OFFCURVE",
"844 752 OFFCURVE",
"618 752 CURVE SMOOTH",
"352 752 LINE"
);
}
);
width = 1232;
},
{
anchors = (
{
name = bottom;
position = "{610, -428}";
},
{
name = top;
position = "{594, 1400}";
}
);
background = {
paths = (
{
closed = 1;
nodes = (
"390 40 LINE",
"390 548 LINE",
"676 548 LINE",
"956 568 OFFCURVE",
"1094 768 OFFCURVE",
"1094 976 CURVE SMOOTH",
"1094 1196 OFFCURVE",
"982 1400 OFFCURVE",
"636 1400 CURVE SMOOTH",
"152 1400 LINE",
"152 40 LINE"
);
},
{
closed = 1;
nodes = (
"566 -258 LINE",
"420 -214 OFFCURVE",
"390 -140 OFFCURVE",
"390 13 CURVE SMOOTH",
"390 74 LINE",
"152 74 LINE",
"152 20 LINE SMOOTH",
"152 -250 OFFCURVE",
"238 -379 OFFCURVE",
"458 -428 CURVE"
);
},
{
closed = 1;
nodes = (
"1092 0 LINE",
"796 602 LINE",
"542 576 LINE",
"828 0 LINE"
);
},
{
closed = 1;
nodes = (
"390 1176 LINE",
"640 1176 LINE SMOOTH",
"806 1176 OFFCURVE",
"850 1068 OFFCURVE",
"850 974 CURVE SMOOTH",
"850 870 OFFCURVE",
"800 772 OFFCURVE",
"640 772 CURVE SMOOTH",
"390 772 LINE"
);
}
);
};
layerId = "C8970C82-1F9F-492B-A412-6BE281DD1303";
paths = (
{
closed = 1;
nodes = (
"566 -258 LINE",
"420 -214 OFFCURVE",
"390 -140 OFFCURVE",
"390 13 CURVE SMOOTH",
"390 548 LINE",
"556 548 LINE",
"828 0 LINE",
"1092 0 LINE",
"810 574 LINE",
"1000 638 OFFCURVE",
"1094 804 OFFCURVE",
"1094 976 CURVE SMOOTH",
"1094 1196 OFFCURVE",
"982 1400 OFFCURVE",
"636 1400 CURVE SMOOTH",
"152 1400 LINE",
"152 20 LINE SMOOTH",
"152 -250 OFFCURVE",
"238 -379 OFFCURVE",
"458 -428 CURVE"
);
},
{
closed = 1;
nodes = (
"390 1176 LINE",
"640 1176 LINE SMOOTH",
"806 1176 OFFCURVE",
"850 1068 OFFCURVE",
"850 974 CURVE SMOOTH",
"850 870 OFFCURVE",
"800 772 OFFCURVE",
"640 772 CURVE SMOOTH",
"390 772 LINE"
);
}
);
width = 1232;
}
);
unicode = 2C64;
},
{
glyphname = S;
lastChange = "2021-07-22 17:34:51 +0000";
layers = (
{
anchors = (
{
name = bottom;
position = "{624, 0}";
},
{
name = top;
position = "{608, 1400}";
}
);
layerId = UUID0;
paths = (
{
closed = 1;
nodes = (
"858 -24 OFFCURVE",
"1024 116 OFFCURVE",
"1024 364 CURVE SMOOTH",
"1024 626 OFFCURVE",
"835 745 OFFCURVE",
"668 818 CURVE SMOOTH",
"522 882 OFFCURVE",
"384 952 OFFCURVE",
"384 1100 CURVE SMOOTH",
"384 1220 OFFCURVE",
"466 1298 OFFCURVE",
"604 1298 CURVE SMOOTH",
"722 1298 OFFCURVE",
"798 1232 OFFCURVE",
"826 1158 CURVE",
"956 1202 LINE",
"922 1330 OFFCURVE",
"792 1424 OFFCURVE",
"608 1424 CURVE SMOOTH",
"376 1424 OFFCURVE",
"240 1276 OFFCURVE",
"240 1098 CURVE SMOOTH",
"240 866 OFFCURVE",
"430 762 OFFCURVE",
"602 688 CURVE SMOOTH",
"746 626 OFFCURVE",
"880 532 OFFCURVE",
"880 360 CURVE SMOOTH",
"880 192 OFFCURVE",
"782 102 OFFCURVE",
"624 102 CURVE SMOOTH",
"486 102 OFFCURVE",
"382 186 OFFCURVE",
"334 308 CURVE",
"202 260 LINE",
"252 108 OFFCURVE",
"410 -24 OFFCURVE",
"624 -24 CURVE SMOOTH"
);
}
);
width = 1232;
},
{
anchors = (
{
name = bottom;
position = "{626, 0}";
},
{
name = top;
position = "{626, 1400}";
}
);
layerId = "C8970C82-1F9F-492B-A412-6BE281DD1303";
paths = (
{
closed = 1;
nodes = (
"880 -24 OFFCURVE",
"1096 126 OFFCURVE",
"1096 392 CURVE SMOOTH",
"1096 640 OFFCURVE",
"862 754 OFFCURVE",
"682 840 CURVE SMOOTH",
"514 920 OFFCURVE",
"424 966 OFFCURVE",
"424 1058 CURVE SMOOTH",
"424 1146 OFFCURVE",
"502 1200 OFFCURVE",
"602 1200 CURVE SMOOTH",
"708 1200 OFFCURVE",
"784 1136 OFFCURVE",
"824 1054 CURVE",
"1038 1126 LINE",
"988 1296 OFFCURVE",
"826 1424 OFFCURVE",
"616 1424 CURVE SMOOTH",
"352 1424 OFFCURVE",
"184 1256 OFFCURVE",
"184 1054 CURVE SMOOTH",
"184 816 OFFCURVE",
"390 712 OFFCURVE",
"568 634 CURVE SMOOTH",
"722 566 OFFCURVE",
"856 494 OFFCURVE",
"856 380 CURVE SMOOTH",
"856 262 OFFCURVE",
"772 200 OFFCURVE",
"652 200 CURVE SMOOTH",
"526 200 OFFCURVE",
"410 288 OFFCURVE",
"350 416 CURVE",
"134 336 LINE",
"208 118 OFFCURVE",
"404 -24 OFFCURVE",
"632 -24 CURVE SMOOTH"
);
}
);
width = 1232;
}
);
unicode = 0053;
},
{
glyphname = Saltillo;
lastChange = "2020-09-15 16:21:19 +0000";
layers = (
{
layerId = UUID0;
paths = (
{
closed = 1;
nodes = (
"656 362 LINE",
"688 966 LINE",
"688 1400 LINE",
"544 1400 LINE",
"544 966 LINE",
"574 362 LINE"
);
}
);
width = 1232;
},
{
layerId = "C8970C82-1F9F-492B-A412-6BE281DD1303";
paths = (
{
closed = 1;
nodes = (
"682 362 LINE",
"732 952 LINE",
"732 1400 LINE",
"500 1400 LINE",
"500 952 LINE",
"550 362 LINE"
);
}
);
width = 1232;
}
);
unicode = A78B;
},
{
glyphname = Germandbls;
lastChange = "2020-09-15 16:21:19 +0000";
layers = (
{
anchors = (
{
name = bottom;
position = "{720, 0}";
},
{
name = top;
position = "{570, 1400}";
}
);
layerId = UUID0;
paths = (
{
closed = 1;
nodes = (
"350 0 LINE",
"350 1266 LINE",
"780 1266 LINE",
"930 1286 LINE",
"930 1400 LINE",
"210 1400 LINE",
"210 0 LINE"
);
},
{
closed = 1;
nodes = (
"930 -24 OFFCURVE",
"1092 116 OFFCURVE",
"1092 354 CURVE SMOOTH",
"1092 546 OFFCURVE",
"992 650 OFFCURVE",
"890 746 CURVE SMOOTH",
"798 832 OFFCURVE",
"722 914 OFFCURVE",
"722 1040 CURVE SMOOTH",
"722 1168 OFFCURVE",
"820 1252 OFFCURVE",
"930 1276 CURVE",
"930 1360 LINE",
"722 1318 OFFCURVE",
"578 1204 OFFCURVE",
"578 1014 CURVE SMOOTH",
"578 840 OFFCURVE",
"676 740 OFFCURVE",
"780 646 CURVE SMOOTH",
"872 562 OFFCURVE",
"948 482 OFFCURVE",
"948 350 CURVE SMOOTH",
"948 192 OFFCURVE",
"856 102 OFFCURVE",
"728 102 CURVE SMOOTH",
"642 102 OFFCURVE",
"582 146 OFFCURVE",
"542 190 CURVE",
"456 88 LINE",
"510 24 OFFCURVE",
"602 -24 OFFCURVE",
"726 -24 CURVE SMOOTH"
);
}
);
width = 1232;
},
{
anchors = (
{
name = bottom;
position = "{752, 0}";
},
{
name = top;
position = "{562, 1400}";
}
);
layerId = "C8970C82-1F9F-492B-A412-6BE281DD1303";
paths = (
{
closed = 1;
nodes = (
"372 0 LINE",
"372 1170 LINE",
"764 1170 LINE",
"994 1190 LINE",
"994 1400 LINE",
"132 1400 LINE",
"132 0 LINE"
);
},
{
closed = 1;
nodes = (
"982 -24 OFFCURVE",
"1140 136 OFFCURVE",
"1140 370 CURVE SMOOTH",
"1140 574 OFFCURVE",
"1036 682 OFFCURVE",
"942 772 CURVE SMOOTH",
"864 846 OFFCURVE",
"824 912 OFFCURVE",
"824 984 CURVE SMOOTH",
"824 1086 OFFCURVE",
"902 1162 OFFCURVE",
"994 1180 CURVE",
"994 1290 LINE",
"826 1270 OFFCURVE",
"584 1142 OFFCURVE",
"584 918 CURVE SMOOTH",
"584 788 OFFCURVE",
"666 708 OFFCURVE",
"758 618 CURVE SMOOTH",
"844 534 OFFCURVE",
"900 462 OFFCURVE",
"900 358 CURVE SMOOTH",
"900 260 OFFCURVE",
"842 200 OFFCURVE",
"760 200 CURVE SMOOTH",
"690 200 OFFCURVE",
"640 220 OFFCURVE",
"582 276 CURVE",
"446 108 LINE",
"524 22 OFFCURVE",
"624 -24 OFFCURVE",
"756 -24 CURVE SMOOTH"
);
}
);
width = 1232;
}
);
unicode = 1E9E;
},
{
glyphname = Schwa;
lastChange = "2020-09-15 16:21:19 +0000";
layers = (
{
layerId = UUID0;
paths = (
{
closed = 1;
nodes = (
"878 -24 OFFCURVE",
"1066 244 OFFCURVE",
"1066 698 CURVE SMOOTH",
"1066 1144 OFFCURVE",
"886 1424 OFFCURVE",
"616 1424 CURVE SMOOTH",
"484 1424 OFFCURVE",
"366 1374 OFFCURVE",
"270 1286 CURVE",
"342 1182 LINE",
"420 1248 OFFCURVE",
"496 1292 OFFCURVE",
"608 1292 CURVE SMOOTH",
"802 1292 OFFCURVE",
"922 1070 OFFCURVE",
"922 652 CURVE SMOOTH",
"922 296 OFFCURVE",
"808 102 OFFCURVE",
"596 102 CURVE SMOOTH",
"412 102 OFFCURVE",
"308 290 OFFCURVE",
"308 636 CURVE",
"988 636 LINE",
"988 762 LINE",
"168 762 LINE",
"166 714 OFFCURVE",
"166 676 OFFCURVE",
"166 650 CURVE SMOOTH",
"166 222 OFFCURVE",
"344 -24 OFFCURVE",
"596 -24 CURVE SMOOTH"
);
}
);
width = 1232;
},
{
layerId = "C8970C82-1F9F-492B-A412-6BE281DD1303";
paths = (
{
closed = 1;
nodes = (
"930 -24 OFFCURVE",
"1148 250 OFFCURVE",
"1148 698 CURVE SMOOTH",
"1148 1154 OFFCURVE",
"938 1424 OFFCURVE",
"610 1424 CURVE SMOOTH",
"420 1424 OFFCURVE",
"276 1330 OFFCURVE",
"174 1214 CURVE",
"334 1042 LINE",
"406 1132 OFFCURVE",
"482 1196 OFFCURVE",
"608 1196 CURVE SMOOTH",
"812 1196 OFFCURVE",
"900 960 OFFCURVE",
"900 700 CURVE SMOOTH",
"900 426 OFFCURVE",
"838 204 OFFCURVE",
"606 204 CURVE SMOOTH",
"448 204 OFFCURVE",
"344 350 OFFCURVE",
"344 588 CURVE",
"932 588 LINE",
"932 812 LINE",
"92 812 LINE",
"84 742 OFFCURVE",
"84 690 OFFCURVE",
"84 642 CURVE SMOOTH",
"84 224 OFFCURVE",
"306 -24 OFFCURVE",
"606 -24 CURVE SMOOTH"
);
}
);
width = 1232;
}
);
unicode = 018F;
},
{
glyphname = T;
lastChange = "2020-09-15 16:21:19 +0000";
layers = (
{
anchors = (
{
name = bottom;
position = "{616, 0}";
},
{
name = center;
position = "{616, 638}";
},
{
name = top;
position = "{616, 1400}";
}
);
layerId = UUID0;
paths = (
{
closed = 1;
nodes = (
"686 0 LINE",
"686 1266 LINE",
"1086 1266 LINE",
"1086 1400 LINE",
"146 1400 LINE",
"146 1266 LINE",
"546 1266 LINE",
"546 0 LINE"
);
}
);
width = 1232;
},
{
anchors = (
{
name = bottom;
position = "{616, 0}";
},
{
name = center;
position = "{616, 638}";
},
{
name = top;
position = "{616, 1400}";
}
);
layerId = "C8970C82-1F9F-492B-A412-6BE281DD1303";
paths = (
{
closed = 1;
nodes = (
"734 0 LINE",
"734 1172 LINE",
"1142 1172 LINE",
"1142 1400 LINE",
"90 1400 LINE",
"90 1172 LINE",
"496 1172 LINE",
"496 0 LINE"
);
}
);
width = 1232;
}
);
unicode = 0054;
},
{
color = 4;
glyphname = Thook;
lastChange = "2021-07-14 22:19:52 +0000";
layers = (
{
anchors = (
{
name = bottom;
position = "{671, 0}";
},
{
name = top;
position = "{671, 1400}";
}
);
background = {
paths = (
{
closed = 1;
nodes = (
"741 0 LINE",
"741 1266 LINE",
"1106 1266 LINE",
"1106 1400 LINE",
"346 1400 LINE",
"346 1266 LINE",
"601 1266 LINE",
"601 0 LINE"
);
},
{
closed = 1;
nodes = (
"183 1194 OFFCURVE",
"213 1266 OFFCURVE",
"321 1266 CURVE SMOOTH",
"408 1266 LINE",
"408 1400 LINE",
"332 1400 LINE SMOOTH",
"131 1400 OFFCURVE",
"51 1300 OFFCURVE",
"40 1061 CURVE",
"176 994 LINE"
);
}
);
};
layerId = UUID0;
paths = (
{
closed = 1;
nodes = (
"741 0 LINE",
"741 1266 LINE",
"1106 1266 LINE",
"1106 1400 LINE",
"332 1400 LINE SMOOTH",
"131 1400 OFFCURVE",
"51 1300 OFFCURVE",
"40 1061 CURVE",
"176 994 LINE",
"183 1194 OFFCURVE",
"213 1266 OFFCURVE",
"321 1266 CURVE SMOOTH",
"601 1266 LINE",
"601 0 LINE"
);
}
);
width = 1232;
},
{
anchors = (
{
name = bottom;
position = "{716, 0}";
},
{
name = top;
position = "{716, 1400}";
}
);
background = {
paths = (
{
closed = 1;
nodes = (
"835 0 LINE",
"835 1172 LINE",
"1162 1172 LINE",
"1162 1400 LINE",
"400 1400 LINE",
"400 1172 LINE",
"597 1172 LINE",
"597 0 LINE"
);
},
{
closed = 1;
nodes = (
"236 1104 OFFCURVE",
"262 1172 OFFCURVE",
"375 1172 CURVE SMOOTH",
"466 1172 LINE",
"466 1400 LINE",
"383 1400 LINE SMOOTH",
"122 1400 OFFCURVE",
"34 1260 OFFCURVE",
"10 1000 CURVE",
"226 890 LINE"
);
}
);
};
layerId = "C8970C82-1F9F-492B-A412-6BE281DD1303";
paths = (
{
closed = 1;
nodes = (
"835 0 LINE",
"835 1172 LINE",
"1162 1172 LINE",
"1162 1400 LINE",
"383 1400 LINE SMOOTH",
"122 1400 OFFCURVE",
"34 1260 OFFCURVE",
"10 1000 CURVE",
"226 890 LINE",
"236 1104 OFFCURVE",
"262 1172 OFFCURVE",
"375 1172 CURVE SMOOTH",
"597 1172 LINE",
"597 0 LINE"
);
}
);
width = 1232;
}
);
unicode = 01AC;
},
{
color = 4;
glyphname = Tretroflexhook;
lastChange = "2021-07-20 23:58:16 +0000";
layers = (
{
anchors = (
{
name = bottom;
position = "{616, -426}";
},
{
name = top;
position = "{616, 1400}";
}
);
background = {
paths = (
{
closed = 1;
nodes = (
"686 0 LINE",
"686 1266 LINE",
"1086 1266 LINE",
"1086 1400 LINE",
"146 1400 LINE",
"146 1266 LINE",
"546 1266 LINE",
"546 0 LINE"
);
},
{
closed = 1;
nodes = (
"547 -52 LINE SMOOTH",
"547 -282 OFFCURVE",
"612 -396 OFFCURVE",
"800 -426 CURVE",
"868 -314 LINE",
"719 -289 OFFCURVE",
"687 -217 OFFCURVE",
"687 -72 CURVE SMOOTH",
"687 42 LINE",
"547 42 LINE"
);
}
);
};
layerId = UUID0;
paths = (
{
closed = 1;
nodes = (
"867 -314 LINE",
"718 -289 OFFCURVE",
"686 -217 OFFCURVE",
"686 -72 CURVE SMOOTH",
"686 1266 LINE",
"1086 1266 LINE",
"1086 1400 LINE",
"146 1400 LINE",
"146 1266 LINE",
"546 1266 LINE",
"546 -52 LINE SMOOTH",
"546 -282 OFFCURVE",
"611 -396 OFFCURVE",
"799 -426 CURVE"
);
}
);
width = 1232;
},
{
anchors = (
{
name = bottom;
position = "{616, -428}";
},
{
name = top;
position = "{616, 1400}";
}
);
background = {
paths = (
{
closed = 1;
nodes = (
"734 0 LINE",
"734 1172 LINE",
"1142 1172 LINE",
"1142 1400 LINE",
"90 1400 LINE",
"90 1172 LINE",
"496 1172 LINE",
"496 0 LINE"
);
},
{
closed = 1;
nodes = (
"910 -290 LINE",
"764 -246 OFFCURVE",
"734 -172 OFFCURVE",
"734 -19 CURVE SMOOTH",
"734 42 LINE",
"496 42 LINE",
"496 -12 LINE SMOOTH",
"496 -282 OFFCURVE",
"582 -411 OFFCURVE",
"802 -460 CURVE"
);
}
);
};
layerId = "C8970C82-1F9F-492B-A412-6BE281DD1303";
paths = (
{
closed = 1;
nodes = (
"910 -258 LINE",
"764 -214 OFFCURVE",
"734 -140 OFFCURVE",
"734 13 CURVE SMOOTH",
"734 1172 LINE",
"1142 1172 LINE",
"1142 1400 LINE",
"90 1400 LINE",
"90 1172 LINE",
"496 1172 LINE",
"496 20 LINE SMOOTH",
"496 -250 OFFCURVE",
"582 -379 OFFCURVE",
"802 -428 CURVE"
);
}
);
width = 1232;
}
);
unicode = 01AE;
},
{
glyphname = U;
lastChange = "2021-07-20 00:00:52 +0000";
layers = (
{
anchors = (
{
name = bottom;
position = "{616, 0}";
},
{
name = center;
position = "{617, 738}";
},
{
name = ogonek;
position = "{780, 0}";
},
{
name = right;
position = "{1052, 928}";
},
{
name = top;
position = "{616, 1400}";
},
{
name = topright;
position = "{1192, 1400}";
}
);
layerId = UUID0;
paths = (
{
closed = 1;
nodes = (
"890 -24 OFFCURVE",
"1056 132 OFFCURVE",
"1056 528 CURVE SMOOTH",
"1056 1400 LINE",
"916 1400 LINE",
"916 528 LINE SMOOTH",
"916 188 OFFCURVE",
"774 102 OFFCURVE",
"616 102 CURVE SMOOTH",
"458 102 OFFCURVE",
"316 188 OFFCURVE",
"316 528 CURVE SMOOTH",
"316 1400 LINE",
"176 1400 LINE",
"176 528 LINE SMOOTH",
"176 132 OFFCURVE",
"340 -24 OFFCURVE",
"616 -24 CURVE SMOOTH"
);
}
);
width = 1232;
},
{
anchors = (
{
name = bottom;
position = "{616, 0}";
},
{
name = center;
position = "{617, 738}";
},
{
name = ogonek;
position = "{778, 0}";
},
{
name = right;
position = "{1096, 928}";
},
{
name = top;
position = "{616, 1400}";
},
{
name = topright;
position = "{1310, 1400}";
}
);
layerId = "C8970C82-1F9F-492B-A412-6BE281DD1303";
paths = (
{
closed = 1;
nodes = (
"872 -24 OFFCURVE",
"1090 124 OFFCURVE",
"1090 534 CURVE SMOOTH",
"1090 1400 LINE",
"852 1400 LINE",
"852 534 LINE SMOOTH",
"852 276 OFFCURVE",
"750 202 OFFCURVE",
"616 202 CURVE SMOOTH",
"480 202 OFFCURVE",
"380 276 OFFCURVE",
"380 534 CURVE SMOOTH",
"380 1400 LINE",
"144 1400 LINE",
"144 534 LINE SMOOTH",
"144 118 OFFCURVE",
"364 -24 OFFCURVE",
"616 -24 CURVE SMOOTH"
);
}
);
width = 1232;
}
);
unicode = 0055;
},
{
color = 4;
glyphname = Ubar;
lastChange = "2021-07-20 18:46:51 +0000";
layers = (
{
anchors = (
{
name = bottom;
position = "{616, 0}";
},
{
name = top;
position = "{616, 1400}";
}
);
layerId = UUID0;
paths = (
{
closed = 1;
nodes = (
"870 -24 OFFCURVE",
"1016 122 OFFCURVE",
"1016 478 CURVE SMOOTH",
"1016 1400 LINE",
"876 1400 LINE",
"876 478 LINE SMOOTH",
"876 178 OFFCURVE",
"754 102 OFFCURVE",
"616 102 CURVE SMOOTH",
"478 102 OFFCURVE",
"356 178 OFFCURVE",
"356 478 CURVE SMOOTH",
"356 1400 LINE",
"216 1400 LINE",
"216 478 LINE SMOOTH",
"216 122 OFFCURVE",
"360 -24 OFFCURVE",
"616 -24 CURVE SMOOTH"
);
},
{
closed = 1;
nodes = (
"1162 676 LINE",
"1162 800 LINE",
"70 800 LINE",
"70 676 LINE"
);
}
);
width = 1232;
},
{
anchors = (
{
name = bottom;
position = "{616, 0}";
},
{
name = top;
position = "{616, 1400}";
}
);
layerId = "C8970C82-1F9F-492B-A412-6BE281DD1303";
paths = (
{
closed = 1;
nodes = (
"851 -24 OFFCURVE",
"1039 114 OFFCURVE",
"1039 494 CURVE SMOOTH",
"1039 1400 LINE",
"801 1400 LINE",
"801 494 LINE SMOOTH",
"801 266 OFFCURVE",
"729 202 OFFCURVE",
"615 202 CURVE SMOOTH",
"499 202 OFFCURVE",
"429 266 OFFCURVE",
"429 494 CURVE SMOOTH",
"429 1400 LINE",
"193 1400 LINE",
"193 494 LINE SMOOTH",
"193 108 OFFCURVE",
"383 -24 OFFCURVE",
"615 -24 CURVE SMOOTH"
);
},
{
closed = 1;
nodes = (
"1222 612 LINE",
"1222 864 LINE",
"10 864 LINE",
"10 612 LINE"
);
}
);
width = 1232;
}
);
unicode = 0244;
},
{
glyphname = Uhorn;
lastChange = "2020-09-15 16:21:19 +0000";
layers = (
{
anchors = (
{
name = bottom;
position = "{558, 0}";
},
{
name = top;
position = "{558, 1400}";
}
);
layerId = UUID0;
paths = (
{
closed = 1;
nodes = (
"814 -24 OFFCURVE",
"940 142 OFFCURVE",
"940 470 CURVE SMOOTH",
"940 1400 LINE",
"800 1400 LINE",
"800 430 LINE SMOOTH",
"800 198 OFFCURVE",
"704 102 OFFCURVE",
"558 102 CURVE SMOOTH",
"412 102 OFFCURVE",
"316 198 OFFCURVE",
"316 430 CURVE SMOOTH",
"316 1400 LINE",
"176 1400 LINE",
"176 470 LINE SMOOTH",
"176 142 OFFCURVE",
"300 -24 OFFCURVE",
"558 -24 CURVE SMOOTH"
);
},
{
closed = 1;
nodes = (
"1014 878 OFFCURVE",
"1116 910 OFFCURVE",
"1176 1006 CURVE SMOOTH",
"1210 1060 OFFCURVE",
"1232 1134 OFFCURVE",
"1232 1234 CURVE SMOOTH",
"1232 1400 LINE",
"1092 1400 LINE",
"1092 1178 LINE SMOOTH",
"1092 1080 OFFCURVE",
"1042 1000 OFFCURVE",
"892 982 CURVE",
"892 872 LINE"
);
}
);
width = 1232;
},
{
anchors = (
{
name = bottom;
position = "{436, 0}";
},
{
name = top;
position = "{436, 1400}";
}
);
layerId = "C8970C82-1F9F-492B-A412-6BE281DD1303";
paths = (
{
closed = 1;
nodes = (
"666 -24 OFFCURVE",
"832 120 OFFCURVE",
"832 476 CURVE SMOOTH",
"832 1400 LINE",
"596 1400 LINE",
"596 436 LINE SMOOTH",
"596 282 OFFCURVE",
"544 202 OFFCURVE",
"436 202 CURVE SMOOTH",
"324 202 OFFCURVE",
"276 282 OFFCURVE",
"276 436 CURVE SMOOTH",
"276 1400 LINE",
"40 1400 LINE",
"40 476 LINE SMOOTH",
"40 114 OFFCURVE",
"212 -24 OFFCURVE",
"436 -24 CURVE SMOOTH"
);
},
{
closed = 1;
nodes = (
"930 738 OFFCURVE",
"1044 766 OFFCURVE",
"1136 868 CURVE SMOOTH",
"1216 956 OFFCURVE",
"1232 1070 OFFCURVE",
"1232 1188 CURVE SMOOTH",
"1232 1400 LINE",
"994 1400 LINE",
"994 1124 LINE SMOOTH",
"994 1002 OFFCURVE",
"930 948 OFFCURVE",
"768 920 CURVE",
"768 734 LINE"
);
}
);
width = 1232;
}
);
unicode = 01AF;
},
{
glyphname = Upsilonafrican;
lastChange = "2020-09-15 16:21:19 +0000";
layers = (
{
anchors = (
{
name = bottom;
position = "{616, 0}";
},
{
name = top;
position = "{616, 1400}";
}
);
layerId = UUID0;
paths = (
{
closed = 1;
nodes = (
"1024 -24 OFFCURVE",
"1164 320 OFFCURVE",
"1164 620 CURVE SMOOTH",
"1164 928 OFFCURVE",
"1048 1142 OFFCURVE",
"842 1274 CURVE",
"1184 1274 LINE",
"1184 1400 LINE",
"754 1400 LINE",
"754 1258 LINE",
"932 1062 OFFCURVE",
"1018 912 OFFCURVE",
"1018 622 CURVE SMOOTH",
"1018 372 OFFCURVE",
"914 102 OFFCURVE",
"614 102 CURVE SMOOTH",
"318 102 OFFCURVE",
"210 372 OFFCURVE",
"210 624 CURVE SMOOTH",
"210 912 OFFCURVE",
"298 1062 OFFCURVE",
"476 1258 CURVE",
"476 1400 LINE",
"48 1400 LINE",
"48 1274 LINE",
"386 1274 LINE",
"178 1142 OFFCURVE",
"64 928 OFFCURVE",
"64 620 CURVE SMOOTH",
"64 320 OFFCURVE",
"208 -24 OFFCURVE",
"614 -24 CURVE SMOOTH"
);
}
);
width = 1232;
},
{
anchors = (
{
name = bottom;
position = "{618, 0}";
},
{
name = top;
position = "{618, 1400}";
}
);
layerId = "C8970C82-1F9F-492B-A412-6BE281DD1303";
paths = (
{
closed = 1;
nodes = (
"996 -24 OFFCURVE",
"1146 320 OFFCURVE",
"1146 620 CURVE SMOOTH",
"1146 860 OFFCURVE",
"1050 1048 OFFCURVE",
"910 1174 CURVE",
"1152 1174 LINE",
"1152 1400 LINE",
"666 1400 LINE",
"666 1204 LINE",
"826 1022 OFFCURVE",
"900 870 OFFCURVE",
"900 622 CURVE SMOOTH",
"900 420 OFFCURVE",
"822 202 OFFCURVE",
"616 202 CURVE SMOOTH",
"410 202 OFFCURVE",
"332 418 OFFCURVE",
"332 624 CURVE SMOOTH",
"332 870 OFFCURVE",
"406 1022 OFFCURVE",
"566 1204 CURVE",
"566 1400 LINE",
"80 1400 LINE",
"80 1174 LINE",
"320 1174 LINE",
"178 1048 OFFCURVE",
"86 860 OFFCURVE",
"86 620 CURVE SMOOTH",
"86 320 OFFCURVE",
"234 -24 OFFCURVE",
"616 -24 CURVE SMOOTH"
);
}
);
width = 1232;
}
);
unicode = 01B1;
},
{
glyphname = V;
lastChange = "2021-07-22 17:35:20 +0000";
layers = (
{
anchors = (
{
name = bottom;
position = "{616, 0}";
},
{
name = top;
position = "{616, 1400}";
}
);
layerId = UUID0;
paths = (
{
closed = 1;
nodes = (
"666 0 LINE",
"1132 1400 LINE",
"986 1400 LINE",
"642 320 LINE SMOOTH",
"632 287 OFFCURVE",
"622 248 OFFCURVE",
"616 218 CURVE",
"610 248 OFFCURVE",
"601 287 OFFCURVE",
"590 320 CURVE SMOOTH",
"246 1400 LINE",
"100 1400 LINE",
"566 0 LINE"
);
}
);
width = 1232;
},
{
anchors = (
{
name = bottom;
position = "{616, 0}";
},
{
name = top;
position = "{616, 1400}";
}
);
layerId = "C8970C82-1F9F-492B-A412-6BE281DD1303";
paths = (
{
closed = 1;
nodes = (
"730 0 LINE",
"1186 1400 LINE",
"924 1400 LINE",
"642 444 LINE SMOOTH",
"632 410 OFFCURVE",
"622 354 OFFCURVE",
"616 316 CURVE",
"610 354 OFFCURVE",
"598 412 OFFCURVE",
"588 446 CURVE SMOOTH",
"310 1400 LINE",
"46 1400 LINE",
"502 0 LINE"
);
}
);
width = 1232;
}
);
unicode = 0056;
},
{
color = 4;
glyphname = "Gamma-latin";
lastChange = "2021-07-19 20:56:41 +0000";
layers = (
{
layerId = UUID0;
paths = (
{
closed = 1;
nodes = (
"731 -469 OFFCURVE",
"823 -388 OFFCURVE",
"823 -249 CURVE SMOOTH",
"823 -155 OFFCURVE",
"778 -16 OFFCURVE",
"692 208 CURVE",
"1156 1400 LINE",
"1007 1400 LINE",
"616 401 LINE",
"226 1400 LINE",
"76 1400 LINE",
"540 208 LINE",
"455 -13 OFFCURVE",
"409 -154 OFFCURVE",
"409 -249 CURVE SMOOTH",
"409 -388 OFFCURVE",
"501 -469 OFFCURVE",
"616 -469 CURVE SMOOTH"
);
},
{
closed = 1;
nodes = (
"581 -331 OFFCURVE",
"551 -304 OFFCURVE",
"551 -249 CURVE SMOOTH",
"551 -203 OFFCURVE",
"572 -119 OFFCURVE",
"616 6 CURVE",
"660 -119 OFFCURVE",
"681 -203 OFFCURVE",
"681 -249 CURVE SMOOTH",
"681 -304 OFFCURVE",
"651 -331 OFFCURVE",
"616 -331 CURVE SMOOTH"
);
}
);
width = 1232;
},
{
layerId = "C8970C82-1F9F-492B-A412-6BE281DD1303";
paths = (
{
closed = 1;
nodes = (
"801 -506 OFFCURVE",
"903 -393 OFFCURVE",
"903 -240 CURVE SMOOTH",
"903 -117 OFFCURVE",
"848 21 OFFCURVE",
"758 231 CURVE",
"1219 1400 LINE",
"950 1400 LINE",
"618 568 LINE",
"290 1400 LINE",
"14 1400 LINE",
"477 231 LINE",
"387 22 OFFCURVE",
"331 -116 OFFCURVE",
"331 -240 CURVE SMOOTH",
"331 -393 OFFCURVE",
"432 -506 OFFCURVE",
"617 -506 CURVE SMOOTH"
);
},
{
closed = 1;
nodes = (
"590 -286 OFFCURVE",
"564 -269 OFFCURVE",
"564 -231 CURVE SMOOTH",
"564 -195 OFFCURVE",
"582 -137 OFFCURVE",
"617 -45 CURVE",
"653 -137 OFFCURVE",
"670 -195 OFFCURVE",
"670 -231 CURVE SMOOTH",
"670 -269 OFFCURVE",
"644 -286 OFFCURVE",
"617 -286 CURVE SMOOTH"
);
}
);
width = 1232;
}
);
unicode = 0194;
},
{
color = 4;
glyphname = Vhook;
lastChange = "2021-07-20 18:59:45 +0000";
layers = (
{
anchors = (
{
name = bottom;
position = "{531, 0}";
},
{
name = top;
position = "{611, 1400}";
}
);
layerId = UUID0;
paths = (
{
closed = 1;
nodes = (
"893 -24 OFFCURVE",
"1187 442 OFFCURVE",
"1187 898 CURVE SMOOTH",
"1187 1189 OFFCURVE",
"1046 1423 OFFCURVE",
"778 1423 CURVE SMOOTH",
"752 1423 OFFCURVE",
"725 1421 OFFCURVE",
"695 1417 CURVE",
"636 1286 LINE",
"667 1294 OFFCURVE",
"696 1297 OFFCURVE",
"740 1297 CURVE SMOOTH",
"939 1297 OFFCURVE",
"1045 1141 OFFCURVE",
"1045 898 CURVE SMOOTH",
"1045 492 OFFCURVE",
"803 102 OFFCURVE",
"530 102 CURVE SMOOTH",
"391 102 OFFCURVE",
"315 175 OFFCURVE",
"315 398 CURVE SMOOTH",
"315 1400 LINE",
"175 1400 LINE",
"175 399 LINE SMOOTH",
"175 97 OFFCURVE",
"299 -24 OFFCURVE",
"530 -24 CURVE SMOOTH"
);
}
);
width = 1232;
},
{
anchors = (
{
name = bottom;
position = "{522, 0}";
},
{
name = top;
position = "{627, 1400}";
}
);
layerId = "C8970C82-1F9F-492B-A412-6BE281DD1303";
paths = (
{
closed = 1;
nodes = (
"894 -24 OFFCURVE",
"1187 444 OFFCURVE",
"1187 892 CURVE SMOOTH",
"1187 1209 OFFCURVE",
"1041 1424 OFFCURVE",
"786 1424 CURVE SMOOTH",
"751 1424 OFFCURVE",
"722 1421 OFFCURVE",
"692 1416 CURVE",
"591 1194 LINE",
"631 1202 OFFCURVE",
"661 1205 OFFCURVE",
"701 1205 CURVE SMOOTH",
"865 1205 OFFCURVE",
"948 1088 OFFCURVE",
"948 881 CURVE SMOOTH",
"948 560 OFFCURVE",
"751 202 OFFCURVE",
"532 202 CURVE SMOOTH",
"424 202 OFFCURVE",
"371 260 OFFCURVE",
"371 441 CURVE SMOOTH",
"371 1400 LINE",
"135 1400 LINE",
"135 441 LINE SMOOTH",
"135 124 OFFCURVE",
"267 -24 OFFCURVE",
"516 -24 CURVE SMOOTH"
);
}
);
width = 1232;
}
);
unicode = 01B2;
},
{
glyphname = Vturned;
lastChange = "2021-07-22 22:57:06 +0000";
layers = (
{
layerId = UUID0;
paths = (
{
closed = 1;
nodes = (
"246 0 LINE",
"590 1080 LINE SMOOTH",
"601 1114 OFFCURVE",
"610 1152 OFFCURVE",
"616 1182 CURVE",
"622 1152 OFFCURVE",
"632 1113 OFFCURVE",
"642 1080 CURVE SMOOTH",
"986 0 LINE",
"1132 0 LINE",
"666 1400 LINE",
"566 1400 LINE",
"100 0 LINE"
);
}
);
width = 1232;
},
{
layerId = "C8970C82-1F9F-492B-A412-6BE281DD1303";
paths = (
{
closed = 1;
nodes = (
"308 0 LINE",
"590 956 LINE SMOOTH",
"600 990 OFFCURVE",
"610 1046 OFFCURVE",
"616 1084 CURVE",
"622 1046 OFFCURVE",
"634 988 OFFCURVE",
"644 954 CURVE SMOOTH",
"922 0 LINE",
"1186 0 LINE",
"730 1400 LINE",
"502 1400 LINE",
"46 0 LINE"
);
}
);
width = 1232;
}
);
unicode = 0245;
},
{
glyphname = W;
lastChange = "2021-07-22 17:35:41 +0000";
layers = (
{
anchors = (
{
name = bottom;
position = "{616, 0}";
},
{
name = top;
position = "{616, 1400}";
}
);
layerId = UUID0;
paths = (
{
closed = 1;
nodes = (
"446 0 LINE",
"606 954 LINE SMOOTH",
"610 976 OFFCURVE",
"614 1006 OFFCURVE",
"618 1038 CURVE",
"622 1006 OFFCURVE",
"626 974 OFFCURVE",
"630 950 CURVE SMOOTH",
"786 0 LINE",
"902 0 LINE",
"1128 1400 LINE",
"992 1400 LINE",
"850 440 LINE SMOOTH",
"848 426 OFFCURVE",
"844 396 OFFCURVE",
"842 370 CURVE",
"839 396 OFFCURVE",
"835 426 OFFCURVE",
"832 442 CURVE SMOOTH",
"676 1400 LINE",
"560 1400 LINE",
"404 430 LINE SMOOTH",
"400 408 OFFCURVE",
"396 378 OFFCURVE",
"392 346 CURVE",
"388 386 OFFCURVE",
"386 404 OFFCURVE",
"382 430 CURVE SMOOTH",
"242 1400 LINE",
"104 1400 LINE",
"330 0 LINE"
);
}
);
width = 1232;
},
{
anchors = (
{
name = bottom;
position = "{616, 0}";
},
{
name = top;
position = "{616, 1402}";
}
);
layerId = "C8970C82-1F9F-492B-A412-6BE281DD1303";
paths = (
{
closed = 1;
nodes = (
"420 0 LINE",
"596 858 LINE SMOOTH",
"604 896 OFFCURVE",
"610 926 OFFCURVE",
"614 958 CURVE",
"618 926 OFFCURVE",
"624 894 OFFCURVE",
"632 856 CURVE SMOOTH",
"810 0 LINE",
"998 0 LINE",
"1206 1400 LINE",
"976 1400 LINE",
"884 570 LINE SMOOTH",
"880 538 OFFCURVE",
"876 512 OFFCURVE",
"870 474 CURVE",
"864 504 OFFCURVE",
"858 534 OFFCURVE",
"850 572 CURVE SMOOTH",
"680 1400 LINE",
"552 1400 LINE",
"384 568 LINE SMOOTH",
"378 540 OFFCURVE",
"368 492 OFFCURVE",
"364 468 CURVE",
"361 492 OFFCURVE",
"353 546 OFFCURVE",
"350 566 CURVE SMOOTH",
"240 1400 LINE",
"26 1400 LINE",
"232 0 LINE"
);
}
);
width = 1232;
}
);
unicode = 0057;
},
{
color = 4;
glyphname = Whook;
lastChange = "2021-07-22 22:57:45 +0000";
layers = (
{
anchors = (
{
name = bottom;
position = "{616, 0}";
},
{
name = top;
position = "{616, 1400}";
}
);
background = {
paths = (
{
closed = 1;
nodes = (
"446 0 LINE",
"606 954 LINE SMOOTH",
"610 976 OFFCURVE",
"614 1006 OFFCURVE",
"618 1038 CURVE",
"622 1006 OFFCURVE",
"626 974 OFFCURVE",
"630 950 CURVE SMOOTH",
"786 0 LINE",
"902 0 LINE",
"1058 969 LINE",
"931 986 LINE",
"850 440 LINE SMOOTH",
"848 426 OFFCURVE",
"844 396 OFFCURVE",
"842 370 CURVE",
"838 396 OFFCURVE",
"835 426 OFFCURVE",
"832 442 CURVE SMOOTH",
"676 1400 LINE",
"560 1400 LINE",
"404 430 LINE SMOOTH",
"400 408 OFFCURVE",
"396 378 OFFCURVE",
"392 346 CURVE",
"388 386 OFFCURVE",
"386 404 OFFCURVE",
"382 430 CURVE SMOOTH",
"242 1400 LINE",
"104 1400 LINE",
"330 0 LINE"
);
},
{
closed = 1;
nodes = (
"1091 1168 LINE SMOOTH",
"1109 1278 OFFCURVE",
"1160 1306 OFFCURVE",
"1267 1310 CURVE",
"1197 1424 LINE",
"1058 1418 OFFCURVE",
"984 1344 OFFCURVE",
"959 1177 CURVE SMOOTH",
"926 954 LINE",
"1053 935 LINE"
);
}
);
};
layerId = UUID0;
paths = (
{
closed = 1;
nodes = (
"446 0 LINE",
"606 954 LINE SMOOTH",
"610 976 OFFCURVE",
"614 1006 OFFCURVE",
"618 1038 CURVE",
"622 1006 OFFCURVE",
"626 974 OFFCURVE",
"630 950 CURVE SMOOTH",
"786 0 LINE",
"902 0 LINE",
"1091 1168 LINE SMOOTH",
"1109 1278 OFFCURVE",
"1160 1306 OFFCURVE",
"1267 1310 CURVE",
"1197 1424 LINE",
"1058 1418 OFFCURVE",
"984 1344 OFFCURVE",
"959 1177 CURVE SMOOTH",
"850 440 LINE SMOOTH",
"848 426 OFFCURVE",
"844 396 OFFCURVE",
"842 370 CURVE",
"839 396 OFFCURVE",
"835 425 OFFCURVE",
"832 442 CURVE SMOOTH",
"676 1400 LINE",
"560 1400 LINE",
"404 430 LINE SMOOTH",
"400 408 OFFCURVE",
"396 378 OFFCURVE",
"392 346 CURVE",
"388 386 OFFCURVE",
"386 404 OFFCURVE",
"382 430 CURVE SMOOTH",
"242 1400 LINE",
"104 1400 LINE",
"330 0 LINE"
);
}
);
width = 1232;
},
{
anchors = (
{
name = bottom;
position = "{541, 0}";
},
{
name = top;
position = "{541, 1402}";
}
);
background = {
paths = (
{
closed = 1;
nodes = (
"370 0 LINE",
"522 808 LINE SMOOTH",
"528 838 OFFCURVE",
"535 876 OFFCURVE",
"539 908 CURVE",
"543 876 OFFCURVE",
"550 838 OFFCURVE",
"556 806 CURVE SMOOTH",
"710 0 LINE",
"898 0 LINE",
"1001 910 LINE",
"794 965 LINE",
"769 620 LINE SMOOTH",
"767 593 OFFCURVE",
"765 576 OFFCURVE",
"760 545 CURVE",
"755 575 OFFCURVE",
"751 596 OFFCURVE",
"746 622 CURVE SMOOTH",
"605 1400 LINE",
"477 1400 LINE",
"339 622 LINE SMOOTH",
"334 594 OFFCURVE",
"329 569 OFFCURVE",
"324 545 CURVE",
"320 577 OFFCURVE",
"318 594 OFFCURVE",
"315 620 CURVE SMOOTH",
"240 1400 LINE",
"26 1400 LINE",
"182 0 LINE"
);
},
{
closed = 1;
nodes = (
"997 876 LINE",
"1015 1054 LINE SMOOTH",
"1027 1175 OFFCURVE",
"1126 1214 OFFCURVE",
"1282 1216 CURVE",
"1152 1424 LINE",
"949 1407 OFFCURVE",
"823 1317 OFFCURVE",
"805 1095 CURVE SMOOTH",
"792 932 LINE"
);
}
);
};
layerId = "C8970C82-1F9F-492B-A412-6BE281DD1303";
paths = (
{
closed = 1;
nodes = (
"370 0 LINE",
"522 808 LINE SMOOTH",
"528 838 OFFCURVE",
"535 876 OFFCURVE",
"539 908 CURVE",
"543 876 OFFCURVE",
"550 838 OFFCURVE",
"556 806 CURVE SMOOTH",
"710 0 LINE",
"898 0 LINE",
"1012 1034 LINE SMOOTH",
"1028 1175 OFFCURVE",
"1126 1214 OFFCURVE",
"1282 1216 CURVE",
"1152 1424 LINE",
"949 1407 OFFCURVE",
"822 1317 OFFCURVE",
"805 1095 CURVE SMOOTH",
"769 620 LINE SMOOTH",
"767 593 OFFCURVE",
"765 576 OFFCURVE",
"760 545 CURVE",
"755 575 OFFCURVE",
"751 596 OFFCURVE",
"746 622 CURVE SMOOTH",
"605 1400 LINE",
"477 1400 LINE",
"339 622 LINE SMOOTH",
"334 594 OFFCURVE",
"329 569 OFFCURVE",
"324 545 CURVE",
"321 567 OFFCURVE",
"318 590 OFFCURVE",
"315 620 CURVE SMOOTH",
"240 1400 LINE",
"26 1400 LINE",
"182 0 LINE"
);
}
);
width = 1232;
}
);
unicode = 2C72;
},
{
glyphname = X;
lastChange = "2020-09-15 16:21:19 +0000";
layers = (
{
anchors = (
{
name = bottom;
position = "{616, 0}";
},
{
name = top;
position = "{616, 1400}";
}
);
layerId = UUID0;
paths = (
{
closed = 1;
nodes = (
"1090 0 LINE",
"648 796 LINE",
"322 1400 LINE",
"170 1400 LINE",
"572 678 LINE",
"940 0 LINE"
);
},
{
closed = 1;
nodes = (
"288 0 LINE",
"642 676 LINE",
"1050 1400 LINE",
"904 1400 LINE",
"576 784 LINE",
"140 0 LINE"
);
}
);
width = 1232;
},
{
anchors = (
{
name = bottom;
position = "{616, 0}";
},
{
name = top;
position = "{616, 1400}";
}
);
layerId = "C8970C82-1F9F-492B-A412-6BE281DD1303";
paths = (
{
closed = 1;
nodes = (
"1160 0 LINE",
"678 838 LINE",
"374 1400 LINE",
"100 1400 LINE",
"556 606 LINE",
"886 0 LINE"
);
},
{
closed = 1;
nodes = (
"346 0 LINE",
"674 610 LINE",
"1130 1400 LINE",
"856 1400 LINE",
"552 834 LINE",
"72 0 LINE"
);
}
);
width = 1232;
}
);
unicode = 0058;
},
{
glyphname = Y;
lastChange = "2020-09-15 16:21:19 +0000";
layers = (
{
anchors = (
{
name = bottom;
position = "{616, 0}";
},
{
name = center;
position = "{616, 420}";
},
{
name = top;
position = "{616, 1400}";
},
{
name = topleft;
position = "{112, 1400}";
}
);
layerId = UUID0;
paths = (
{
closed = 1;
nodes = (
"688 0 LINE",
"688 554 LINE",
"1082 1400 LINE",
"938 1400 LINE",
"592 622 LINE",
"644 622 LINE",
"304 1400 LINE",
"150 1400 LINE",
"548 554 LINE",
"548 0 LINE"
);
}
);
width = 1232;
},
{
anchors = (
{
name = bottom;
position = "{616, 0}";
},
{
name = center;
position = "{616, 420}";
},
{
name = top;
position = "{616, 1400}";
},
{
name = topleft;
position = "{40, 1400}";
}
);
layerId = "C8970C82-1F9F-492B-A412-6BE281DD1303";
paths = (
{
closed = 1;
nodes = (
"734 0 LINE",
"734 548 LINE",
"1146 1400 LINE",
"884 1400 LINE",
"568 696 LINE",
"664 696 LINE",
"350 1400 LINE",
"86 1400 LINE",
"498 548 LINE",
"498 0 LINE"
);
}
);
width = 1232;
}
);
unicode = 0059;
},
{
color = 4;
glyphname = Yhook;
lastChange = "2021-07-19 23:24:41 +0000";
layers = (
{
anchors = (
{
name = bottom;
position = "{616, 0}";
},
{
name = top;
position = "{616, 1400}";
}
);
layerId = UUID0;
paths = (
{
closed = 1;
nodes = (
"688 0 LINE",
"688 554 LINE",
"971 1162 LINE SMOOTH",
"1030 1289 OFFCURVE",
"1100 1303 OFFCURVE",
"1267 1310 CURVE",
"1197 1424 LINE",
"1028 1417 OFFCURVE",
"928 1377 OFFCURVE",
"851 1205 CURVE SMOOTH",
"618 682 LINE",
"304 1400 LINE",
"149 1400 LINE",
"548 554 LINE",
"548 0 LINE"
);
}
);
width = 1232;
},
{
anchors = (
{
name = bottom;
position = "{609, 0}";
},
{
name = top;
position = "{609, 1400}";
}
);
layerId = "C8970C82-1F9F-492B-A412-6BE281DD1303";
paths = (
{
closed = 1;
nodes = (
"727 0 LINE",
"727 548 LINE",
"980 1073 LINE SMOOTH",
"1039 1196 OFFCURVE",
"1136 1204 OFFCURVE",
"1292 1206 CURVE",
"1157 1424 LINE",
"1014 1420 OFFCURVE",
"871 1385 OFFCURVE",
"780 1183 CURVE SMOOTH",
"609 803 LINE",
"344 1400 LINE",
"80 1400 LINE",
"491 548 LINE",
"491 0 LINE"
);
}
);
width = 1232;
}
);
unicode = 01B3;
},
{
glyphname = Z;
lastChange = "2020-09-15 16:21:19 +0000";
layers = (
{
anchors = (
{
name = bottom;
position = "{616, 0}";
},
{
name = top;
position = "{640, 1400}";
}
);
layerId = UUID0;
paths = (
{
closed = 1;
nodes = (
"1052 0 LINE",
"1052 132 LINE",
"298 132 LINE",
"320 78 LINE",
"1060 1298 LINE",
"1060 1400 LINE",
"222 1400 LINE",
"222 1268 LINE",
"940 1268 LINE",
"916 1322 LINE",
"176 98 LINE",
"176 0 LINE"
);
}
);
width = 1232;
},
{
anchors = (
{
name = bottom;
position = "{616, 0}";
},
{
name = top;
position = "{638, 1400}";
}
);
layerId = "C8970C82-1F9F-492B-A412-6BE281DD1303";
paths = (
{
closed = 1;
nodes = (
"1088 0 LINE",
"1088 226 LINE",
"336 226 LINE",
"388 128 LINE",
"1090 1220 LINE",
"1090 1400 LINE",
"188 1400 LINE",
"188 1176 LINE",
"894 1176 LINE",
"840 1274 LINE",
"144 180 LINE",
"144 0 LINE"
);
}
);
width = 1232;
}
);
unicode = 005A;
},
{
glyphname = a;
lastChange = "2020-09-15 16:21:19 +0000";
layers = (
{
anchors = (
{
name = bottom;
position = "{616, 0}";
},
{
name = ogonek;
position = "{994, 0}";
},
{
name = top;
position = "{636, 1022}";
}
);
layerId = UUID0;
paths = (
{
closed = 1;
nodes = (
"674 -24 OFFCURVE",
"782 26 OFFCURVE",
"864 100 CURVE",
"864 0 LINE",
"994 0 LINE",
"994 692 LINE SMOOTH",
"994 982 OFFCURVE",
"800 1046 OFFCURVE",
"654 1046 CURVE SMOOTH",
"506 1046 OFFCURVE",
"362 986 OFFCURVE",
"276 934 CURVE",
"316 814 LINE",
"398 866 OFFCURVE",
"532 924 OFFCURVE",
"640 924 CURVE SMOOTH",
"754 924 OFFCURVE",
"864 880 OFFCURVE",
"864 674 CURVE SMOOTH",
"864 588 LINE",
"764 642 OFFCURVE",
"674 660 OFFCURVE",
"576 660 CURVE SMOOTH",
"376 660 OFFCURVE",
"192 558 OFFCURVE",
"192 322 CURVE SMOOTH",
"192 92 OFFCURVE",
"338 -24 OFFCURVE",
"552 -24 CURVE SMOOTH"
);
},
{
closed = 1;
nodes = (
"410 98 OFFCURVE",
"322 188 OFFCURVE",
"322 322 CURVE SMOOTH",
"322 470 OFFCURVE",
"446 538 OFFCURVE",
"590 538 CURVE SMOOTH",
"690 538 OFFCURVE",
"798 498 OFFCURVE",
"864 454 CURVE",
"864 256 LINE",
"802 180 OFFCURVE",
"702 98 OFFCURVE",
"566 98 CURVE SMOOTH"
);
}
);
width = 1232;
},
{
anchors = (
{
name = bottom;
position = "{616, 0}";
},
{
name = ogonek;
position = "{1046, 0}";
},
{
name = top;
position = "{616, 1022}";
}
);
layerId = "C8970C82-1F9F-492B-A412-6BE281DD1303";
paths = (
{
closed = 1;
nodes = (
"678 -24 OFFCURVE",
"766 26 OFFCURVE",
"822 80 CURVE",
"822 0 LINE",
"1046 0 LINE",
"1046 662 LINE SMOOTH",
"1046 996 OFFCURVE",
"822 1046 OFFCURVE",
"640 1046 CURVE SMOOTH",
"474 1046 OFFCURVE",
"324 990 OFFCURVE",
"226 928 CURVE",
"296 740 LINE",
"392 804 OFFCURVE",
"506 844 OFFCURVE",
"620 844 CURVE SMOOTH",
"746 844 OFFCURVE",
"822 796 OFFCURVE",
"822 660 CURVE SMOOTH",
"822 600 LINE",
"750 636 OFFCURVE",
"672 654 OFFCURVE",
"568 654 CURVE SMOOTH",
"366 654 OFFCURVE",
"160 552 OFFCURVE",
"160 316 CURVE SMOOTH",
"160 90 OFFCURVE",
"324 -24 OFFCURVE",
"538 -24 CURVE SMOOTH"
);
},
{
closed = 1;
nodes = (
"454 178 OFFCURVE",
"382 234 OFFCURVE",
"382 316 CURVE SMOOTH",
"382 416 OFFCURVE",
"486 458 OFFCURVE",
"604 458 CURVE SMOOTH",
"688 458 OFFCURVE",
"766 440 OFFCURVE",
"822 412 CURVE",
"822 280 LINE",
"770 226 OFFCURVE",
"692 178 OFFCURVE",
"580 178 CURVE SMOOTH"
);
}
);
width = 1232;
}
);
unicode = 0061;
},
{
color = 4;
glyphname = "alpha-latin";
lastChange = "2021-07-14 22:33:11 +0000";
layers = (
{
anchors = (
{
name = bottom;
position = "{616, 0}";
},
{
name = top;
position = "{616, 1022}";
}
);
layerId = UUID0;
paths = (
{
closed = 1;
nodes = (
"728 -24 OFFCURVE",
"810 26 OFFCURVE",
"872 88 CURVE",
"872 0 LINE",
"1012 0 LINE",
"1012 1022 LINE",
"872 1022 LINE",
"872 950 LINE",
"810 1000 OFFCURVE",
"726 1046 OFFCURVE",
"586 1046 CURVE SMOOTH",
"318 1046 OFFCURVE",
"150 848 OFFCURVE",
"150 512 CURVE SMOOTH",
"150 186 OFFCURVE",
"316 -24 OFFCURVE",
"586 -24 CURVE SMOOTH"
);
},
{
closed = 1;
nodes = (
"414 102 OFFCURVE",
"296 284 OFFCURVE",
"296 512 CURVE SMOOTH",
"296 774 OFFCURVE",
"404 920 OFFCURVE",
"602 920 CURVE SMOOTH",
"746 920 OFFCURVE",
"830 840 OFFCURVE",
"872 772 CURVE",
"872 262 LINE",
"816 160 OFFCURVE",
"718 102 OFFCURVE",
"602 102 CURVE SMOOTH"
);
}
);
width = 1232;
},
{
anchors = (
{
name = bottom;
position = "{616, 0}";
},
{
name = top;
position = "{616, 1022}";
}
);
layerId = "C8970C82-1F9F-492B-A412-6BE281DD1303";
paths = (
{
closed = 1;
nodes = (
"698 -24 OFFCURVE",
"790 28 OFFCURVE",
"828 78 CURVE",
"828 0 LINE",
"1058 0 LINE",
"1058 1022 LINE",
"828 1022 LINE",
"828 948 LINE",
"778 1002 OFFCURVE",
"688 1046 OFFCURVE",
"574 1046 CURVE SMOOTH",
"314 1046 OFFCURVE",
"130 844 OFFCURVE",
"130 512 CURVE SMOOTH",
"130 172 OFFCURVE",
"302 -24 OFFCURVE",
"580 -24 CURVE SMOOTH"
);
},
{
closed = 1;
nodes = (
"450 196 OFFCURVE",
"362 324 OFFCURVE",
"362 512 CURVE SMOOTH",
"362 716 OFFCURVE",
"450 828 OFFCURVE",
"608 828 CURVE SMOOTH",
"730 828 OFFCURVE",
"796 772 OFFCURVE",
"828 728 CURVE",
"828 296 LINE",
"784 230 OFFCURVE",
"720 196 OFFCURVE",
"612 196 CURVE SMOOTH"
);
}
);
width = 1232;
}
);
unicode = 0251;
},
{
color = 4;
glyphname = "alphaturned-latin";
lastChange = "2021-07-14 22:35:49 +0000";
layers = (
{
anchors = (
{
name = bottom;
position = "{626, 0}";
},
{
name = top;
position = "{626, 1022}";
}
);
layerId = UUID0;
paths = (
{
closed = 1;
nodes = (
"914 -24 OFFCURVE",
"1082 174 OFFCURVE",
"1082 510 CURVE SMOOTH",
"1082 836 OFFCURVE",
"916 1046 OFFCURVE",
"646 1046 CURVE SMOOTH",
"504 1046 OFFCURVE",
"422 996 OFFCURVE",
"360 934 CURVE",
"360 1022 LINE",
"220 1022 LINE",
"220 0 LINE",
"360 0 LINE",
"360 72 LINE",
"422 22 OFFCURVE",
"506 -24 OFFCURVE",
"646 -24 CURVE SMOOTH"
);
},
{
closed = 1;
nodes = (
"486 102 OFFCURVE",
"402 182 OFFCURVE",
"360 250 CURVE",
"360 760 LINE",
"416 862 OFFCURVE",
"514 920 OFFCURVE",
"630 920 CURVE SMOOTH",
"818 920 OFFCURVE",
"936 738 OFFCURVE",
"936 510 CURVE SMOOTH",
"936 248 OFFCURVE",
"828 102 OFFCURVE",
"630 102 CURVE SMOOTH"
);
}
);
width = 1232;
},
{
anchors = (
{
name = bottom;
position = "{636, 0}";
},
{
name = top;
position = "{636, 1022}";
}
);
layerId = "C8970C82-1F9F-492B-A412-6BE281DD1303";
paths = (
{
closed = 1;
nodes = (
"918 -24 OFFCURVE",
"1102 178 OFFCURVE",
"1102 510 CURVE SMOOTH",
"1102 850 OFFCURVE",
"930 1046 OFFCURVE",
"652 1046 CURVE SMOOTH",
"534 1046 OFFCURVE",
"442 994 OFFCURVE",
"404 944 CURVE",
"404 1022 LINE",
"174 1022 LINE",
"174 0 LINE",
"404 0 LINE",
"404 74 LINE",
"454 20 OFFCURVE",
"544 -24 OFFCURVE",
"658 -24 CURVE SMOOTH"
);
},
{
closed = 1;
nodes = (
"502 194 OFFCURVE",
"436 250 OFFCURVE",
"404 294 CURVE",
"404 726 LINE",
"448 792 OFFCURVE",
"512 826 OFFCURVE",
"620 826 CURVE SMOOTH",
"782 826 OFFCURVE",
"870 698 OFFCURVE",
"870 510 CURVE SMOOTH",
"870 306 OFFCURVE",
"782 194 OFFCURVE",
"624 194 CURVE SMOOTH"
);
}
);
width = 1232;
}
);
unicode = 0252;
},
{
glyphname = aogonek;
lastChange = "2020-09-15 16:21:19 +0000";
layers = (
{
layerId = UUID0;
paths = (
{
closed = 1;
nodes = (
"954 -468 OFFCURVE",
"1018 -424 OFFCURVE",
"1058 -380 CURVE",
"980 -322 LINE",
"958 -342 OFFCURVE",
"926 -368 OFFCURVE",
"870 -368 CURVE SMOOTH",
"818 -368 OFFCURVE",
"762 -336 OFFCURVE",
"762 -254 CURVE SMOOTH",
"762 -178 OFFCURVE",
"814 -76 OFFCURVE",
"994 0 CURVE",
"994 692 LINE SMOOTH",
"994 982 OFFCURVE",
"800 1046 OFFCURVE",
"654 1046 CURVE SMOOTH",
"506 1046 OFFCURVE",
"362 986 OFFCURVE",
"276 934 CURVE",
"316 814 LINE",
"398 866 OFFCURVE",
"532 924 OFFCURVE",
"640 924 CURVE SMOOTH",
"754 924 OFFCURVE",
"864 880 OFFCURVE",
"864 674 CURVE SMOOTH",
"864 588 LINE",
"764 642 OFFCURVE",
"674 660 OFFCURVE",
"576 660 CURVE SMOOTH",
"376 660 OFFCURVE",
"192 558 OFFCURVE",
"192 322 CURVE SMOOTH",
"192 92 OFFCURVE",
"338 -24 OFFCURVE",
"552 -24 CURVE SMOOTH",
"674 -24 OFFCURVE",
"782 26 OFFCURVE",
"864 100 CURVE",
"864 0 LINE",
"734 -56 OFFCURVE",
"640 -144 OFFCURVE",
"640 -272 CURVE SMOOTH",
"640 -402 OFFCURVE",
"742 -468 OFFCURVE",
"858 -468 CURVE SMOOTH"
);
},
{
closed = 1;
nodes = (
"410 98 OFFCURVE",
"322 188 OFFCURVE",
"322 322 CURVE SMOOTH",
"322 470 OFFCURVE",
"446 538 OFFCURVE",
"590 538 CURVE SMOOTH",
"690 538 OFFCURVE",
"798 498 OFFCURVE",
"864 454 CURVE",
"864 256 LINE",
"802 180 OFFCURVE",
"702 98 OFFCURVE",
"566 98 CURVE SMOOTH"
);
}
);
width = 1232;
},
{
layerId = "C8970C82-1F9F-492B-A412-6BE281DD1303";
paths = (
{
closed = 1;
nodes = (
"970 -504 OFFCURVE",
"1040 -448 OFFCURVE",
"1078 -404 CURVE",
"968 -326 LINE",
"950 -348 OFFCURVE",
"922 -366 OFFCURVE",
"882 -366 CURVE SMOOTH",
"838 -366 OFFCURVE",
"798 -338 OFFCURVE",
"798 -272 CURVE SMOOTH",
"798 -184 OFFCURVE",
"864 -74 OFFCURVE",
"1046 0 CURVE",
"1046 662 LINE SMOOTH",
"1046 996 OFFCURVE",
"822 1046 OFFCURVE",
"640 1046 CURVE SMOOTH",
"474 1046 OFFCURVE",
"324 990 OFFCURVE",
"226 928 CURVE",
"296 740 LINE",
"392 804 OFFCURVE",
"506 844 OFFCURVE",
"620 844 CURVE SMOOTH",
"746 844 OFFCURVE",
"822 796 OFFCURVE",
"822 660 CURVE SMOOTH",
"822 600 LINE",
"750 636 OFFCURVE",
"672 654 OFFCURVE",
"568 654 CURVE SMOOTH",
"366 654 OFFCURVE",
"160 552 OFFCURVE",
"160 316 CURVE SMOOTH",
"160 90 OFFCURVE",
"324 -24 OFFCURVE",
"538 -24 CURVE SMOOTH",
"678 -24 OFFCURVE",
"766 26 OFFCURVE",
"822 80 CURVE",
"822 0 LINE",
"688 -58 OFFCURVE",
"608 -158 OFFCURVE",
"608 -292 CURVE SMOOTH",
"608 -422 OFFCURVE",
"708 -504 OFFCURVE",
"850 -504 CURVE SMOOTH"
);
},
{
closed = 1;
nodes = (
"454 178 OFFCURVE",
"382 234 OFFCURVE",
"382 316 CURVE SMOOTH",
"382 416 OFFCURVE",
"486 458 OFFCURVE",
"604 458 CURVE SMOOTH",
"688 458 OFFCURVE",
"766 440 OFFCURVE",
"822 412 CURVE",
"822 280 LINE",
"770 226 OFFCURVE",
"692 178 OFFCURVE",
"580 178 CURVE SMOOTH"
);
}
);
width = 1232;
}
);
unicode = 0105;
},
{
color = 4;
glyphname = aturned;
lastChange = "2021-07-14 21:08:47 +0000";
layers = (
{
anchors = (
{
name = bottom;
position = "{586, 0}";
},
{
name = top;
position = "{656, 1022}";
}
);
layerId = UUID0;
paths = (
{
closed = 1;
nodes = (
"726 -24 OFFCURVE",
"870 36 OFFCURVE",
"956 88 CURVE",
"916 208 LINE",
"834 156 OFFCURVE",
"700 98 OFFCURVE",
"592 98 CURVE SMOOTH",
"478 98 OFFCURVE",
"368 142 OFFCURVE",
"368 348 CURVE SMOOTH",
"368 434 LINE",
"468 380 OFFCURVE",
"558 362 OFFCURVE",
"656 362 CURVE SMOOTH",
"856 362 OFFCURVE",
"1040 464 OFFCURVE",
"1040 700 CURVE SMOOTH",
"1040 930 OFFCURVE",
"894 1046 OFFCURVE",
"680 1046 CURVE SMOOTH",
"558 1046 OFFCURVE",
"450 996 OFFCURVE",
"368 922 CURVE",
"368 1022 LINE",
"238 1022 LINE",
"238 330 LINE SMOOTH",
"238 40 OFFCURVE",
"432 -24 OFFCURVE",
"578 -24 CURVE SMOOTH"
);
},
{
closed = 1;
nodes = (
"542 484 OFFCURVE",
"434 524 OFFCURVE",
"368 568 CURVE",
"368 766 LINE",
"430 842 OFFCURVE",
"530 924 OFFCURVE",
"666 924 CURVE SMOOTH",
"822 924 OFFCURVE",
"910 834 OFFCURVE",
"910 700 CURVE SMOOTH",
"910 552 OFFCURVE",
"786 484 OFFCURVE",
"642 484 CURVE SMOOTH"
);
}
);
width = 1232;
},
{
anchors = (
{
name = bottom;
position = "{592, 0}";
},
{
name = top;
position = "{661, 1022}";
}
);
layerId = "C8970C82-1F9F-492B-A412-6BE281DD1303";
paths = (
{
closed = 1;
nodes = (
"758 -24 OFFCURVE",
"908 32 OFFCURVE",
"1006 94 CURVE",
"936 282 LINE",
"840 218 OFFCURVE",
"726 178 OFFCURVE",
"612 178 CURVE SMOOTH",
"486 178 OFFCURVE",
"410 226 OFFCURVE",
"410 362 CURVE SMOOTH",
"410 422 LINE",
"482 386 OFFCURVE",
"560 368 OFFCURVE",
"664 368 CURVE SMOOTH",
"866 368 OFFCURVE",
"1072 470 OFFCURVE",
"1072 706 CURVE SMOOTH",
"1072 932 OFFCURVE",
"908 1046 OFFCURVE",
"694 1046 CURVE SMOOTH",
"554 1046 OFFCURVE",
"466 996 OFFCURVE",
"410 942 CURVE",
"410 1022 LINE",
"186 1022 LINE",
"186 360 LINE SMOOTH",
"186 26 OFFCURVE",
"410 -24 OFFCURVE",
"592 -24 CURVE SMOOTH"
);
},
{
closed = 1;
nodes = (
"544 564 OFFCURVE",
"466 582 OFFCURVE",
"410 610 CURVE",
"410 742 LINE",
"462 796 OFFCURVE",
"540 844 OFFCURVE",
"652 844 CURVE SMOOTH",
"778 844 OFFCURVE",
"850 788 OFFCURVE",
"850 706 CURVE SMOOTH",
"850 606 OFFCURVE",
"746 564 OFFCURVE",
"628 564 CURVE SMOOTH"
);
}
);
width = 1232;
}
);
unicode = 0250;
},
{
glyphname = ae;
lastChange = "2020-09-15 16:21:19 +0000";
layers = (
{
anchors = (
{
name = bottom;
position = "{616, 0}";
},
{
name = top;
position = "{616, 1022}";
}
);
layerId = UUID0;
paths = (
{
closed = 1;
nodes = (
"412 -24 OFFCURVE",
"530 38 OFFCURVE",
"602 182 CURVE",
"652 64 OFFCURVE",
"748 -24 OFFCURVE",
"864 -24 CURVE SMOOTH",
"962 -24 OFFCURVE",
"1044 34 OFFCURVE",
"1098 92 CURVE",
"1042 186 LINE",
"982 118 OFFCURVE",
"924 92 OFFCURVE",
"868 92 CURVE SMOOTH",
"764 92 OFFCURVE",
"654 250 OFFCURVE",
"654 454 CURVE",
"1166 454 LINE",
"1168 498 OFFCURVE",
"1168 530 OFFCURVE",
"1168 552 CURVE SMOOTH",
"1168 874 OFFCURVE",
"1044 1046 OFFCURVE",
"864 1046 CURVE SMOOTH",
"776 1046 OFFCURVE",
"682 1006 OFFCURVE",
"612 888 CURVE",
"576 986 OFFCURVE",
"500 1046 OFFCURVE",
"390 1046 CURVE SMOOTH",
"288 1046 OFFCURVE",
"184 986 OFFCURVE",
"124 934 CURVE",
"154 814 LINE",
"210 868 OFFCURVE",
"304 928 OFFCURVE",
"380 928 CURVE SMOOTH",
"478 928 OFFCURVE",
"538 856 OFFCURVE",
"538 674 CURVE SMOOTH",
"538 588 LINE",
"466 642 OFFCURVE",
"402 660 OFFCURVE",
"342 660 CURVE SMOOTH",
"192 660 OFFCURVE",
"64 554 OFFCURVE",
"64 322 CURVE SMOOTH",
"64 92 OFFCURVE",
"170 -24 OFFCURVE",
"324 -24 CURVE SMOOTH"
);
},
{
closed = 1;
nodes = (
"240 92 OFFCURVE",
"186 184 OFFCURVE",
"186 322 CURVE SMOOTH",
"186 474 OFFCURVE",
"262 544 OFFCURVE",
"352 544 CURVE SMOOTH",
"414 544 OFFCURVE",
"490 502 OFFCURVE",
"538 454 CURVE",
"538 398 OFFCURVE",
"548 324 OFFCURVE",
"558 286 CURVE",
"514 198 OFFCURVE",
"430 92 OFFCURVE",
"334 92 CURVE SMOOTH"
);
},
{
closed = 1;
nodes = (
"660 810 OFFCURVE",
"750 924 OFFCURVE",
"864 924 CURVE SMOOTH",
"934 924 OFFCURVE",
"1042 858 OFFCURVE",
"1042 576 CURVE",
"652 576 LINE"
);
}
);
width = 1232;
},
{
anchors = (
{
name = bottom;
position = "{616, 0}";
},
{
name = top;
position = "{616, 1022}";
}
);
layerId = "C8970C82-1F9F-492B-A412-6BE281DD1303";
paths = (
{
closed = 1;
nodes = (
"420 -24 OFFCURVE",
"528 26 OFFCURVE",
"600 150 CURVE",
"660 42 OFFCURVE",
"750 -24 OFFCURVE",
"864 -24 CURVE SMOOTH",
"972 -24 OFFCURVE",
"1068 42 OFFCURVE",
"1132 134 CURVE",
"1034 274 LINE",
"984 198 OFFCURVE",
"934 160 OFFCURVE",
"872 160 CURVE SMOOTH",
"768 160 OFFCURVE",
"698 284 OFFCURVE",
"690 422 CURVE",
"1182 422 LINE",
"1190 466 OFFCURVE",
"1194 510 OFFCURVE",
"1194 562 CURVE SMOOTH",
"1194 888 OFFCURVE",
"1046 1046 OFFCURVE",
"880 1046 CURVE SMOOTH",
"764 1046 OFFCURVE",
"674 986 OFFCURVE",
"622 892 CURVE",
"578 990 OFFCURVE",
"508 1046 OFFCURVE",
"392 1046 CURVE SMOOTH",
"272 1046 OFFCURVE",
"164 990 OFFCURVE",
"88 928 CURVE",
"142 750 LINE",
"210 818 OFFCURVE",
"292 862 OFFCURVE",
"364 862 CURVE SMOOTH",
"476 862 OFFCURVE",
"506 768 OFFCURVE",
"506 644 CURVE SMOOTH",
"506 608 LINE",
"458 640 OFFCURVE",
"402 658 OFFCURVE",
"340 658 CURVE SMOOTH",
"186 658 OFFCURVE",
"36 556 OFFCURVE",
"36 316 CURVE SMOOTH",
"36 90 OFFCURVE",
"160 -24 OFFCURVE",
"318 -24 CURVE SMOOTH"
);
},
{
closed = 1;
nodes = (
"266 158 OFFCURVE",
"220 222 OFFCURVE",
"220 314 CURVE SMOOTH",
"220 430 OFFCURVE",
"290 478 OFFCURVE",
"364 478 CURVE SMOOTH",
"418 478 OFFCURVE",
"470 452 OFFCURVE",
"506 416 CURVE",
"506 378 OFFCURVE",
"514 330 OFFCURVE",
"520 300 CURVE",
"490 232 OFFCURVE",
"422 158 OFFCURVE",
"350 158 CURVE SMOOTH"
);
},
{
closed = 1;
nodes = (
"702 784 OFFCURVE",
"778 862 OFFCURVE",
"864 862 CURVE SMOOTH",
"948 862 OFFCURVE",
"1010 770 OFFCURVE",
"1010 600 CURVE",
"690 600 LINE"
);
}
);
width = 1232;
}
);
unicode = 00E6;
},
{
glyphname = b;
lastChange = "2021-07-16 15:52:12 +0000";
layers = (
{
anchors = (
{
name = bottom;
position = "{636, 0}";
},
{
name = top;
position = "{288, 1400}";
}
);
layerId = UUID0;
paths = (
{
closed = 1;
nodes = (
"922 -24 OFFCURVE",
"1082 166 OFFCURVE",
"1082 512 CURVE SMOOTH",
"1082 848 OFFCURVE",
"910 1046 OFFCURVE",
"646 1046 CURVE SMOOTH",
"532 1046 OFFCURVE",
"426 994 OFFCURVE",
"360 922 CURVE",
"360 1444 LINE",
"220 1374 LINE",
"220 0 LINE",
"360 0 LINE",
"360 92 LINE",
"426 36 OFFCURVE",
"500 -24 OFFCURVE",
"658 -24 CURVE SMOOTH"
);
},
{
closed = 1;
nodes = (
"520 102 OFFCURVE",
"416 166 OFFCURVE",
"360 262 CURVE",
"360 764 LINE",
"398 830 OFFCURVE",
"496 920 OFFCURVE",
"636 920 CURVE SMOOTH",
"836 920 OFFCURVE",
"936 774 OFFCURVE",
"936 512 CURVE SMOOTH",
"936 260 OFFCURVE",
"838 102 OFFCURVE",
"636 102 CURVE SMOOTH"
);
}
);
width = 1232;
},
{
anchors = (
{
name = bottom;
position = "{610, 0}";
},
{
name = top;
position = "{292, 1400}";
}
);
layerId = "C8970C82-1F9F-492B-A412-6BE281DD1303";
paths = (
{
closed = 1;
nodes = (
"934 -24 OFFCURVE",
"1102 166 OFFCURVE",
"1102 512 CURVE SMOOTH",
"1102 844 OFFCURVE",
"922 1046 OFFCURVE",
"670 1046 CURVE SMOOTH",
"570 1046 OFFCURVE",
"462 1004 OFFCURVE",
"406 942 CURVE",
"406 1444 LINE",
"176 1338 LINE",
"176 0 LINE",
"406 0 LINE",
"406 78 LINE",
"462 16 OFFCURVE",
"544 -24 OFFCURVE",
"666 -24 CURVE SMOOTH"
);
},
{
closed = 1;
nodes = (
"530 196 OFFCURVE",
"454 232 OFFCURVE",
"406 296 CURVE",
"406 726 LINE",
"440 772 OFFCURVE",
"520 828 OFFCURVE",
"630 828 CURVE SMOOTH",
"788 828 OFFCURVE",
"870 716 OFFCURVE",
"870 512 CURVE SMOOTH",
"870 318 OFFCURVE",
"792 196 OFFCURVE",
"630 196 CURVE SMOOTH"
);
}
);
width = 1232;
}
);
unicode = 0062;
},
{
color = 4;
glyphname = bhook;
lastChange = "2021-07-16 18:37:25 +0000";
layers = (
{
anchors = (
{
name = bottom;
position = "{655, 0}";
},
{
name = top;
position = "{655, 1400}";
}
);
background = {
paths = (
{
closed = 1;
nodes = (
"922 -24 OFFCURVE",
"1082 166 OFFCURVE",
"1082 512 CURVE SMOOTH",
"1082 848 OFFCURVE",
"910 1046 OFFCURVE",
"646 1046 CURVE SMOOTH",
"532 1046 OFFCURVE",
"426 994 OFFCURVE",
"360 922 CURVE",
"360 1056 LINE",
"220 1056 LINE",
"220 0 LINE",
"360 0 LINE",
"360 92 LINE",
"426 36 OFFCURVE",
"500 -24 OFFCURVE",
"658 -24 CURVE SMOOTH"
);
},
{
closed = 1;
nodes = (
"520 102 OFFCURVE",
"416 166 OFFCURVE",
"360 262 CURVE",
"360 764 LINE",
"398 830 OFFCURVE",
"496 920 OFFCURVE",
"636 920 CURVE SMOOTH",
"836 920 OFFCURVE",
"936 774 OFFCURVE",
"936 512 CURVE SMOOTH",
"936 260 OFFCURVE",
"838 102 OFFCURVE",
"636 102 CURVE SMOOTH"
);
},
{
closed = 1;
nodes = (
"360 1032 LINE",
"360 1146 LINE SMOOTH",
"360 1291 OFFCURVE",
"392 1363 OFFCURVE",
"541 1388 CURVE",
"473 1500 LINE",
"285 1470 OFFCURVE",
"220 1356 OFFCURVE",
"220 1126 CURVE SMOOTH",
"220 1032 LINE"
);
}
);
};
layerId = UUID0;
paths = (
{
closed = 1;
nodes = (
"922 -24 OFFCURVE",
"1082 166 OFFCURVE",
"1082 512 CURVE SMOOTH",
"1082 848 OFFCURVE",
"910 1046 OFFCURVE",
"646 1046 CURVE SMOOTH",
"532 1046 OFFCURVE",
"426 994 OFFCURVE",
"360 922 CURVE",
"360 1146 LINE SMOOTH",
"360 1291 OFFCURVE",
"392 1363 OFFCURVE",
"541 1388 CURVE",
"473 1500 LINE",
"285 1470 OFFCURVE",
"220 1356 OFFCURVE",
"220 1126 CURVE SMOOTH",
"220 0 LINE",
"360 0 LINE",
"360 92 LINE",
"426 36 OFFCURVE",
"500 -24 OFFCURVE",
"658 -24 CURVE SMOOTH"
);
},
{
closed = 1;
nodes = (
"520 102 OFFCURVE",
"416 166 OFFCURVE",
"360 262 CURVE",
"360 764 LINE",
"398 830 OFFCURVE",
"496 920 OFFCURVE",
"636 920 CURVE SMOOTH",
"836 920 OFFCURVE",
"936 774 OFFCURVE",
"936 512 CURVE SMOOTH",
"936 260 OFFCURVE",
"838 102 OFFCURVE",
"636 102 CURVE SMOOTH"
);
}
);
width = 1232;
},
{
anchors = (
{
name = bottom;
position = "{662, 0}";
},
{
name = top;
position = "{662, 1400}";
}
);
background = {
paths = (
{
closed = 1;
nodes = (
"934 -24 OFFCURVE",
"1102 166 OFFCURVE",
"1102 512 CURVE SMOOTH",
"1102 844 OFFCURVE",
"922 1046 OFFCURVE",
"670 1046 CURVE SMOOTH",
"570 1046 OFFCURVE",
"462 1004 OFFCURVE",
"406 942 CURVE",
"406 1018 LINE",
"176 1018 LINE",
"176 0 LINE",
"406 0 LINE",
"406 78 LINE",
"462 16 OFFCURVE",
"544 -24 OFFCURVE",
"666 -24 CURVE SMOOTH"
);
},
{
closed = 1;
nodes = (
"530 196 OFFCURVE",
"454 232 OFFCURVE",
"406 296 CURVE",
"406 726 LINE",
"440 772 OFFCURVE",
"520 828 OFFCURVE",
"630 828 CURVE SMOOTH",
"788 828 OFFCURVE",
"870 716 OFFCURVE",
"870 512 CURVE SMOOTH",
"870 318 OFFCURVE",
"792 196 OFFCURVE",
"630 196 CURVE SMOOTH"
);
},
{
closed = 1;
nodes = (
"406 998 LINE",
"406 1059 LINE SMOOTH",
"406 1212 OFFCURVE",
"437 1284 OFFCURVE",
"590 1330 CURVE",
"482 1500 LINE",
"262 1451 OFFCURVE",
"176 1322 OFFCURVE",
"176 1052 CURVE SMOOTH",
"176 998 LINE"
);
}
);
};
layerId = "C8970C82-1F9F-492B-A412-6BE281DD1303";
paths = (
{
closed = 1;
nodes = (
"934 -24 OFFCURVE",
"1102 166 OFFCURVE",
"1102 512 CURVE SMOOTH",
"1102 844 OFFCURVE",
"922 1046 OFFCURVE",
"670 1046 CURVE SMOOTH",
"570 1046 OFFCURVE",
"462 1004 OFFCURVE",
"406 942 CURVE",
"406 1059 LINE SMOOTH",
"406 1212 OFFCURVE",
"437 1284 OFFCURVE",
"590 1330 CURVE",
"482 1500 LINE",
"262 1451 OFFCURVE",
"176 1322 OFFCURVE",
"176 1052 CURVE SMOOTH",
"176 0 LINE",
"406 0 LINE",
"406 78 LINE",
"462 16 OFFCURVE",
"544 -24 OFFCURVE",
"666 -24 CURVE SMOOTH"
);
},
{
closed = 1;
nodes = (
"530 196 OFFCURVE",
"454 232 OFFCURVE",
"406 296 CURVE",
"406 726 LINE",
"440 772 OFFCURVE",
"520 828 OFFCURVE",
"630 828 CURVE SMOOTH",
"788 828 OFFCURVE",
"870 716 OFFCURVE",
"870 512 CURVE SMOOTH",
"870 318 OFFCURVE",
"792 196 OFFCURVE",
"630 196 CURVE SMOOTH"
);
}
);
width = 1232;
}
);
unicode = 0253;
},
{
color = 4;
glyphname = bilabialpercussive;
lastChange = "2021-07-14 22:31:13 +0000";
layers = (
{
background = {
paths = (
{
closed = 1;
nodes = (
"517 797 LINE",
"605 1216 LINE SMOOTH",
"608 1229 OFFCURVE",
"612 1251 OFFCURVE",
"615 1268 CURVE",
"618 1248 OFFCURVE",
"622 1228 OFFCURVE",
"625 1215 CURVE SMOOTH",
"715 797 LINE",
"804 797 LINE",
"953 1399 LINE",
"862 1399 LINE",
"767 974 LINE SMOOTH",
"763 957 OFFCURVE",
"759 939 OFFCURVE",
"758 920 CURVE",
"754 936 OFFCURVE",
"749 958 OFFCURVE",
"746 974 CURVE SMOOTH",
"656 1399 LINE",
"578 1399 LINE",
"487 975 LINE SMOOTH",
"484 959 OFFCURVE",
"481 943 OFFCURVE",
"477 926 CURVE",
"475 942 OFFCURVE",
"472 959 OFFCURVE",
"469 971 CURVE SMOOTH",
"373 1399 LINE",
"279 1399 LINE",
"427 797 LINE"
);
},
{
closed = 1;
nodes = (
"517 6 LINE",
"605 425 LINE SMOOTH",
"608 438 OFFCURVE",
"612 460 OFFCURVE",
"615 477 CURVE",
"618 457 OFFCURVE",
"622 437 OFFCURVE",
"625 424 CURVE SMOOTH",
"715 6 LINE",
"804 6 LINE",
"953 608 LINE",
"862 608 LINE",
"767 183 LINE SMOOTH",
"763 166 OFFCURVE",
"759 148 OFFCURVE",
"758 129 CURVE",
"754 147 OFFCURVE",
"750 165 OFFCURVE",
"746 183 CURVE SMOOTH",
"656 608 LINE",
"578 608 LINE",
"487 184 LINE SMOOTH",
"484 168 OFFCURVE",
"481 152 OFFCURVE",
"477 135 CURVE",
"475 151 OFFCURVE",
"472 168 OFFCURVE",
"469 180 CURVE SMOOTH",
"373 608 LINE",
"279 608 LINE",
"427 6 LINE"
);
}
);
};
layerId = UUID0;
paths = (
{
closed = 1;
nodes = (
"517 797 LINE",
"605 1216 LINE SMOOTH",
"608 1229 OFFCURVE",
"612 1251 OFFCURVE",
"615 1268 CURVE",
"618 1248 OFFCURVE",
"622 1228 OFFCURVE",
"625 1215 CURVE SMOOTH",
"715 797 LINE",
"874 797 LINE",
"1023 1399 LINE",
"902 1399 LINE",
"807 974 LINE SMOOTH",
"803 957 OFFCURVE",
"799 939 OFFCURVE",
"798 920 CURVE",
"794 936 OFFCURVE",
"789 958 OFFCURVE",
"786 974 CURVE SMOOTH",
"696 1399 LINE",
"538 1399 LINE",
"447 975 LINE SMOOTH",
"444 959 OFFCURVE",
"441 943 OFFCURVE",
"437 926 CURVE",
"435 942 OFFCURVE",
"432 959 OFFCURVE",
"429 971 CURVE SMOOTH",
"333 1399 LINE",
"209 1399 LINE",
"357 797 LINE"
);
},
{
closed = 1;
nodes = (
"517 0 LINE",
"605 419 LINE SMOOTH",
"608 432 OFFCURVE",
"612 454 OFFCURVE",
"615 471 CURVE",
"618 451 OFFCURVE",
"622 431 OFFCURVE",
"625 418 CURVE SMOOTH",
"715 0 LINE",
"874 0 LINE",
"1023 602 LINE",
"902 602 LINE",
"807 177 LINE SMOOTH",
"803 160 OFFCURVE",
"799 142 OFFCURVE",
"798 123 CURVE",
"794 139 OFFCURVE",
"789 161 OFFCURVE",
"786 177 CURVE SMOOTH",
"696 602 LINE",
"538 602 LINE",
"447 178 LINE SMOOTH",
"444 162 OFFCURVE",
"441 146 OFFCURVE",
"437 129 CURVE",
"435 145 OFFCURVE",
"432 162 OFFCURVE",
"429 174 CURVE SMOOTH",
"333 602 LINE",
"209 602 LINE",
"357 0 LINE"
);
}
);
width = 1232;
},
{
background = {
paths = (
{
closed = 1;
nodes = (
"530 790 LINE",
"598 1096 LINE SMOOTH",
"603 1117 OFFCURVE",
"611 1153 OFFCURVE",
"617 1180 CURVE",
"621 1153 OFFCURVE",
"627 1117 OFFCURVE",
"632 1096 CURVE SMOOTH",
"702 790 LINE",
"810 790 LINE",
"969 1399 LINE",
"840 1399 LINE",
"765 1092 LINE SMOOTH",
"760 1072 OFFCURVE",
"756 1049 OFFCURVE",
"754 1031 CURVE",
"751 1049 OFFCURVE",
"747 1072 OFFCURVE",
"742 1092 CURVE SMOOTH",
"671 1399 LINE",
"562 1399 LINE",
"490 1092 LINE SMOOTH",
"486 1074 OFFCURVE",
"482 1053 OFFCURVE",
"479 1033 CURVE",
"477 1053 OFFCURVE",
"472 1074 OFFCURVE",
"468 1090 CURVE SMOOTH",
"393 1399 LINE",
"263 1399 LINE",
"422 790 LINE"
);
},
{
closed = 1;
nodes = (
"530 0 LINE",
"598 306 LINE SMOOTH",
"603 327 OFFCURVE",
"611 363 OFFCURVE",
"617 390 CURVE",
"621 363 OFFCURVE",
"627 327 OFFCURVE",
"632 306 CURVE SMOOTH",
"702 0 LINE",
"810 0 LINE",
"969 609 LINE",
"840 609 LINE",
"765 302 LINE SMOOTH",
"760 282 OFFCURVE",
"756 259 OFFCURVE",
"754 241 CURVE",
"751 259 OFFCURVE",
"747 282 OFFCURVE",
"742 302 CURVE SMOOTH",
"671 609 LINE",
"562 609 LINE",
"490 302 LINE SMOOTH",
"486 284 OFFCURVE",
"482 263 OFFCURVE",
"479 243 CURVE",
"477 263 OFFCURVE",
"472 284 OFFCURVE",
"468 300 CURVE SMOOTH",
"393 609 LINE",
"263 609 LINE",
"422 0 LINE"
);
}
);
};
layerId = "C8970C82-1F9F-492B-A412-6BE281DD1303";
paths = (
{
closed = 1;
nodes = (
"530 790 LINE",
"598 1096 LINE SMOOTH",
"603 1117 OFFCURVE",
"611 1153 OFFCURVE",
"617 1180 CURVE",
"621 1153 OFFCURVE",
"627 1117 OFFCURVE",
"632 1096 CURVE SMOOTH",
"702 790 LINE",
"870 790 LINE",
"1029 1399 LINE",
"870 1399 LINE",
"795 1092 LINE SMOOTH",
"790 1072 OFFCURVE",
"786 1049 OFFCURVE",
"784 1031 CURVE",
"781 1049 OFFCURVE",
"777 1072 OFFCURVE",
"772 1092 CURVE SMOOTH",
"701 1399 LINE",
"532 1399 LINE",
"460 1092 LINE SMOOTH",
"456 1074 OFFCURVE",
"452 1053 OFFCURVE",
"449 1033 CURVE",
"447 1053 OFFCURVE",
"442 1074 OFFCURVE",
"438 1090 CURVE SMOOTH",
"363 1399 LINE",
"203 1399 LINE",
"362 790 LINE"
);
},
{
closed = 1;
nodes = (
"530 0 LINE",
"598 306 LINE SMOOTH",
"603 327 OFFCURVE",
"611 363 OFFCURVE",
"617 390 CURVE",
"621 363 OFFCURVE",
"627 327 OFFCURVE",
"632 306 CURVE SMOOTH",
"702 0 LINE",
"870 0 LINE",
"1029 609 LINE",
"870 609 LINE",
"795 302 LINE SMOOTH",
"790 282 OFFCURVE",
"786 259 OFFCURVE",
"784 241 CURVE",
"781 259 OFFCURVE",
"777 282 OFFCURVE",
"772 302 CURVE SMOOTH",
"701 609 LINE",
"532 609 LINE",
"460 302 LINE SMOOTH",
"456 284 OFFCURVE",
"452 263 OFFCURVE",
"449 243 CURVE",
"447 263 OFFCURVE",
"442 284 OFFCURVE",
"438 300 CURVE SMOOTH",
"363 609 LINE",
"203 609 LINE",
"362 0 LINE"
);
}
);
width = 1232;
}
);
unicode = 02AC;
},
{
glyphname = c;
lastChange = "2020-09-15 16:21:19 +0000";
layers = (
{
anchors = (
{
name = bottom;
position = "{636, 0}";
},
{
name = top;
position = "{646, 1022}";
}
);
layerId = UUID0;
paths = (
{
closed = 1;
nodes = (
"820 -24 OFFCURVE",
"960 66 OFFCURVE",
"1010 210 CURVE",
"884 258 LINE",
"848 162 OFFCURVE",
"762 102 OFFCURVE",
"646 102 CURVE SMOOTH",
"454 102 OFFCURVE",
"370 252 OFFCURVE",
"370 510 CURVE SMOOTH",
"370 762 OFFCURVE",
"448 920 OFFCURVE",
"650 920 CURVE SMOOTH",
"768 920 OFFCURVE",
"834 860 OFFCURVE",
"868 782 CURVE",
"996 832 LINE",
"938 970 OFFCURVE",
"814 1046 OFFCURVE",
"656 1046 CURVE SMOOTH",
"382 1046 OFFCURVE",
"224 846 OFFCURVE",
"224 510 CURVE SMOOTH",
"224 170 OFFCURVE",
"382 -24 OFFCURVE",
"640 -24 CURVE SMOOTH"
);
}
);
width = 1232;
},
{
anchors = (
{
name = bottom;
position = "{632, 0}";
},
{
name = top;
position = "{632, 1022}";
}
);
layerId = "C8970C82-1F9F-492B-A412-6BE281DD1303";
paths = (
{
closed = 1;
nodes = (
"864 -24 OFFCURVE",
"1006 80 OFFCURVE",
"1066 278 CURVE",
"848 346 LINE",
"816 250 OFFCURVE",
"748 196 OFFCURVE",
"638 196 CURVE SMOOTH",
"490 196 OFFCURVE",
"402 316 OFFCURVE",
"402 510 CURVE SMOOTH",
"402 702 OFFCURVE",
"488 828 OFFCURVE",
"642 828 CURVE SMOOTH",
"750 828 OFFCURVE",
"812 772 OFFCURVE",
"842 694 CURVE",
"1060 768 LINE",
"996 958 OFFCURVE",
"852 1046 OFFCURVE",
"640 1046 CURVE SMOOTH",
"356 1046 OFFCURVE",
"168 844 OFFCURVE",
"168 510 CURVE SMOOTH",
"168 174 OFFCURVE",
"350 -24 OFFCURVE",
"636 -24 CURVE SMOOTH"
);
}
);
width = 1232;
}
);
unicode = 0063;
},
{
color = 4;
glyphname = chook;
lastChange = "2021-07-15 00:26:21 +0000";
layers = (
{
layerId = UUID0;
paths = (
{
closed = 1;
nodes = (
"783 -24 OFFCURVE",
"927 50 OFFCURVE",
"984 210 CURVE",
"858 258 LINE",
"822 162 OFFCURVE",
"736 102 OFFCURVE",
"620 102 CURVE SMOOTH",
"428 102 OFFCURVE",
"344 252 OFFCURVE",
"344 510 CURVE SMOOTH",
"344 762 OFFCURVE",
"422 920 OFFCURVE",
"624 920 CURVE SMOOTH",
"742 920 OFFCURVE",
"808 860 OFFCURVE",
"842 782 CURVE",
"953 826 LINE",
"953 1142 LINE SMOOTH",
"953 1295 OFFCURVE",
"1011 1365 OFFCURVE",
"1192 1391 CURVE",
"1125 1500 LINE",
"908 1469 OFFCURVE",
"813 1342 OFFCURVE",
"813 1098 CURVE SMOOTH",
"813 989 LINE",
"759 1026 OFFCURVE",
"692 1046 OFFCURVE",
"615 1046 CURVE SMOOTH",
"356 1046 OFFCURVE",
"200 844 OFFCURVE",
"200 510 CURVE SMOOTH",
"200 178 OFFCURVE",
"353 -24 OFFCURVE",
"605 -24 CURVE SMOOTH"
);
}
);
width = 1232;
},
{
layerId = "C8970C82-1F9F-492B-A412-6BE281DD1303";
paths = (
{
closed = 1;
nodes = (
"794 -24 OFFCURVE",
"955 69 OFFCURVE",
"1015 278 CURVE",
"797 346 LINE",
"765 250 OFFCURVE",
"697 196 OFFCURVE",
"587 196 CURVE SMOOTH",
"439 196 OFFCURVE",
"351 316 OFFCURVE",
"351 510 CURVE SMOOTH",
"351 702 OFFCURVE",
"437 828 OFFCURVE",
"591 828 CURVE SMOOTH",
"699 828 OFFCURVE",
"761 772 OFFCURVE",
"791 694 CURVE",
"997 764 LINE",
"997 1054 LINE SMOOTH",
"997 1205 OFFCURVE",
"1047 1258 OFFCURVE",
"1217 1301 CURVE",
"1091 1500 LINE",
"873 1452 OFFCURVE",
"748 1312 OFFCURVE",
"748 1045 CURVE SMOOTH",
"748 1019 LINE",
"698 1037 OFFCURVE",
"643 1046 OFFCURVE",
"580 1046 CURVE SMOOTH",
"297 1046 OFFCURVE",
"118 839 OFFCURVE",
"118 510 CURVE SMOOTH",
"118 180 OFFCURVE",
"294 -24 OFFCURVE",
"577 -24 CURVE SMOOTH"
);
}
);
width = 1232;
}
);
unicode = 0188;
},
{
glyphname = d;
lastChange = "2020-09-15 16:21:19 +0000";
layers = (
{
anchors = (
{
name = bottom;
position = "{602, 0}";
},
{
name = center;
position = "{600, 512}";
},
{
name = top;
position = "{602, 1400}";
},
{
name = topright;
position = "{1192, 1022}";
}
);
layerId = UUID0;
paths = (
{
closed = 1;
nodes = (
"728 -24 OFFCURVE",
"810 26 OFFCURVE",
"872 88 CURVE",
"872 0 LINE",
"1012 0 LINE",
"1012 1444 LINE",
"872 1374 LINE",
"872 950 LINE",
"810 1000 OFFCURVE",
"726 1046 OFFCURVE",
"586 1046 CURVE SMOOTH",
"318 1046 OFFCURVE",
"150 848 OFFCURVE",
"150 512 CURVE SMOOTH",
"150 186 OFFCURVE",
"316 -24 OFFCURVE",
"586 -24 CURVE SMOOTH"
);
},
{
closed = 1;
nodes = (
"414 102 OFFCURVE",
"296 284 OFFCURVE",
"296 512 CURVE SMOOTH",
"296 774 OFFCURVE",
"404 920 OFFCURVE",
"602 920 CURVE SMOOTH",
"746 920 OFFCURVE",
"830 840 OFFCURVE",
"872 772 CURVE",
"872 262 LINE",
"816 160 OFFCURVE",
"718 102 OFFCURVE",
"602 102 CURVE SMOOTH"
);
}
);
width = 1232;
},
{
anchors = (
{
name = bottom;
position = "{620, 0}";
},
{
name = center;
position = "{616, 512}";
},
{
name = top;
position = "{614, 1400}";
},
{
name = topright;
position = "{1166, 1022}";
}
);
layerId = "C8970C82-1F9F-492B-A412-6BE281DD1303";
paths = (
{
closed = 1;
nodes = (
"698 -24 OFFCURVE",
"790 28 OFFCURVE",
"828 78 CURVE",
"828 0 LINE",
"1058 0 LINE",
"1058 1444 LINE",
"828 1338 LINE",
"828 948 LINE",
"778 1002 OFFCURVE",
"688 1046 OFFCURVE",
"574 1046 CURVE SMOOTH",
"314 1046 OFFCURVE",
"130 844 OFFCURVE",
"130 512 CURVE SMOOTH",
"130 172 OFFCURVE",
"302 -24 OFFCURVE",
"580 -24 CURVE SMOOTH"
);
},
{
closed = 1;
nodes = (
"450 196 OFFCURVE",
"362 324 OFFCURVE",
"362 512 CURVE SMOOTH",
"362 716 OFFCURVE",
"450 828 OFFCURVE",
"608 828 CURVE SMOOTH",
"730 828 OFFCURVE",
"796 772 OFFCURVE",
"828 728 CURVE",
"828 296 LINE",
"784 230 OFFCURVE",
"720 196 OFFCURVE",
"612 196 CURVE SMOOTH"
);
}
);
width = 1232;
}
);
unicode = 0064;
},
{
glyphname = eth;
lastChange = "2020-09-15 16:21:19 +0000";
layers = (
{
layerId = UUID0;
paths = (
{
closed = 1;
nodes = (
"896 -24 OFFCURVE",
"1054 186 OFFCURVE",
"1054 538 CURVE SMOOTH",
"1054 888 OFFCURVE",
"930 1134 OFFCURVE",
"746 1276 CURVE",
"848 1384 LINE",
"778 1454 LINE",
"664 1330 LINE",
"570 1382 OFFCURVE",
"450 1414 OFFCURVE",
"336 1424 CURVE",
"336 1318 LINE",
"432 1310 OFFCURVE",
"516 1284 OFFCURVE",
"586 1246 CURVE",
"470 1120 LINE",
"536 1052 LINE",
"668 1192 LINE",
"812 1082 OFFCURVE",
"890 912 OFFCURVE",
"912 738 CURVE",
"868 822 OFFCURVE",
"782 912 OFFCURVE",
"616 912 CURVE SMOOTH",
"366 912 OFFCURVE",
"178 724 OFFCURVE",
"178 442 CURVE SMOOTH",
"178 174 OFFCURVE",
"350 -24 OFFCURVE",
"616 -24 CURVE SMOOTH"
);
},
{
closed = 1;
nodes = (
"458 102 OFFCURVE",
"324 248 OFFCURVE",
"324 442 CURVE SMOOTH",
"324 642 OFFCURVE",
"454 786 OFFCURVE",
"616 786 CURVE SMOOTH",
"784 786 OFFCURVE",
"908 634 OFFCURVE",
"908 440 CURVE SMOOTH",
"908 248 OFFCURVE",
"778 102 OFFCURVE",
"616 102 CURVE SMOOTH"
);
}
);
width = 1232;
},
{
layerId = "C8970C82-1F9F-492B-A412-6BE281DD1303";
paths = (
{
closed = 1;
nodes = (
"928 -24 OFFCURVE",
"1078 216 OFFCURVE",
"1078 536 CURVE SMOOTH",
"1078 836 OFFCURVE",
"988 1096 OFFCURVE",
"804 1252 CURVE",
"896 1348 LINE",
"772 1468 LINE",
"658 1348 LINE",
"564 1392 OFFCURVE",
"448 1422 OFFCURVE",
"312 1424 CURVE",
"312 1224 LINE",
"382 1222 OFFCURVE",
"448 1208 OFFCURVE",
"506 1186 CURVE",
"416 1094 LINE",
"540 976 LINE",
"660 1100 LINE",
"738 1034 OFFCURVE",
"800 926 OFFCURVE",
"818 824 CURVE",
"770 874 OFFCURVE",
"698 912 OFFCURVE",
"602 912 CURVE SMOOTH",
"340 912 OFFCURVE",
"154 704 OFFCURVE",
"154 442 CURVE SMOOTH",
"154 174 OFFCURVE",
"346 -24 OFFCURVE",
"616 -24 CURVE SMOOTH"
);
},
{
closed = 1;
nodes = (
"490 196 OFFCURVE",
"386 300 OFFCURVE",
"386 442 CURVE SMOOTH",
"386 592 OFFCURVE",
"486 694 OFFCURVE",
"614 694 CURVE SMOOTH",
"748 694 OFFCURVE",
"846 590 OFFCURVE",
"846 440 CURVE SMOOTH",
"846 300 OFFCURVE",
"746 196 OFFCURVE",
"616 196 CURVE SMOOTH"
);
}
);
width = 1232;
}
);
unicode = 00F0;
},
{
glyphname = dcroat;
lastChange = "2020-09-15 16:21:19 +0000";
layers = (
{
layerId = UUID0;
paths = (
{
closed = 1;
nodes = (
"726 -24 OFFCURVE",
"802 22 OFFCURVE",
"872 88 CURVE",
"872 0 LINE",
"1012 0 LINE",
"1012 1106 LINE",
"1142 1106 LINE",
"1142 1232 LINE",
"1012 1232 LINE",
"1012 1444 LINE",
"872 1374 LINE",
"872 1232 LINE",
"588 1232 LINE",
"588 1106 LINE",
"872 1106 LINE",
"872 880 LINE",
"810 936 OFFCURVE",
"718 978 OFFCURVE",
"586 978 CURVE SMOOTH",
"326 978 OFFCURVE",
"150 792 OFFCURVE",
"150 480 CURVE SMOOTH",
"150 184 OFFCURVE",
"318 -24 OFFCURVE",
"586 -24 CURVE SMOOTH"
);
},
{
closed = 1;
nodes = (
"416 102 OFFCURVE",
"296 282 OFFCURVE",
"296 480 CURVE SMOOTH",
"296 718 OFFCURVE",
"414 852 OFFCURVE",
"602 852 CURVE SMOOTH",
"744 852 OFFCURVE",
"830 772 OFFCURVE",
"872 704 CURVE",
"872 262 LINE",
"816 160 OFFCURVE",
"716 102 OFFCURVE",
"600 102 CURVE SMOOTH"
);
}
);
width = 1232;
},
{
layerId = "C8970C82-1F9F-492B-A412-6BE281DD1303";
paths = (
{
closed = 1;
nodes = (
"652 -24 OFFCURVE",
"726 14 OFFCURVE",
"774 78 CURVE",
"774 0 LINE",
"1004 0 LINE",
"1004 1082 LINE",
"1134 1082 LINE",
"1134 1264 LINE",
"1004 1264 LINE",
"1004 1444 LINE",
"774 1338 LINE",
"774 1264 LINE",
"530 1264 LINE",
"530 1082 LINE",
"774 1082 LINE",
"774 884 LINE",
"724 940 OFFCURVE",
"650 982 OFFCURVE",
"540 982 CURVE SMOOTH",
"292 982 OFFCURVE",
"112 784 OFFCURVE",
"112 480 CURVE SMOOTH",
"112 170 OFFCURVE",
"280 -24 OFFCURVE",
"538 -24 CURVE SMOOTH"
);
},
{
closed = 1;
nodes = (
"426 196 OFFCURVE",
"344 322 OFFCURVE",
"344 480 CURVE SMOOTH",
"344 652 OFFCURVE",
"430 762 OFFCURVE",
"574 762 CURVE SMOOTH",
"676 762 OFFCURVE",
"744 710 OFFCURVE",
"774 662 CURVE",
"774 296 LINE",
"732 230 OFFCURVE",
"666 196 OFFCURVE",
"574 196 CURVE SMOOTH"
);
}
);
width = 1232;
}
);
unicode = 0111;
},
{
color = 4;
glyphname = dezh;
lastChange = "2021-07-19 17:54:18 +0000";
layers = (
{
background = {
paths = (
{
closed = 1;
nodes = (
"388 -24 OFFCURVE",
"450 22 OFFCURVE",
"502 88 CURVE",
"502 0 LINE",
"642 0 LINE",
"642 1444 LINE",
"502 1374 LINE",
"502 950 LINE",
"465 1000 OFFCURVE",
"401 1046 OFFCURVE",
"306 1046 CURVE SMOOTH",
"128 1046 OFFCURVE",
"10 878 OFFCURVE",
"10 512 CURVE SMOOTH",
"10 156 OFFCURVE",
"126 -24 OFFCURVE",
"296 -24 CURVE SMOOTH"
);
},
{
closed = 1;
nodes = (
"224 102 OFFCURVE",
"156 254 OFFCURVE",
"156 512 CURVE SMOOTH",
"156 804 OFFCURVE",
"224 920 OFFCURVE",
"332 920 CURVE SMOOTH",
"406 920 OFFCURVE",
"465 870 OFFCURVE",
"502 802 CURVE",
"502 232 LINE",
"452 141 OFFCURVE",
"388 102 OFFCURVE",
"332 102 CURVE SMOOTH"
);
},
{
closed = 1;
nodes = (
"1091 -426 OFFCURVE",
"1222 -286 OFFCURVE",
"1222 -26 CURVE SMOOTH",
"1222 250 OFFCURVE",
"1102 370 OFFCURVE",
"878 384 CURVE",
"1206 926 LINE",
"1206 1022 LINE",
"610 1022 LINE",
"610 896 LINE",
"1030 896 LINE",
"722 364 LINE",
"796 278 LINE",
"990 272 OFFCURVE",
"1076 200 OFFCURVE",
"1076 -26 CURVE SMOOTH",
"1076 -212 OFFCURVE",
"1007 -296 OFFCURVE",
"906 -296 CURVE SMOOTH",
"813 -296 OFFCURVE",
"742 -242 OFFCURVE",
"712 -68 CURVE",
"592 -116 LINE",
"630 -334 OFFCURVE",
"755 -426 OFFCURVE",
"908 -426 CURVE SMOOTH"
);
}
);
};
layerId = UUID0;
paths = (
{
closed = 1;
nodes = (
"388 -24 OFFCURVE",
"450 22 OFFCURVE",
"502 88 CURVE",
"502 0 LINE",
"642 0 LINE",
"642 1444 LINE",
"502 1374 LINE",
"502 950 LINE",
"465 1000 OFFCURVE",
"401 1046 OFFCURVE",
"306 1046 CURVE SMOOTH",
"128 1046 OFFCURVE",
"10 878 OFFCURVE",
"10 512 CURVE SMOOTH",
"10 156 OFFCURVE",
"126 -24 OFFCURVE",
"296 -24 CURVE SMOOTH"
);
},
{
closed = 1;
nodes = (
"224 102 OFFCURVE",
"156 254 OFFCURVE",
"156 512 CURVE SMOOTH",
"156 804 OFFCURVE",
"224 920 OFFCURVE",
"332 920 CURVE SMOOTH",
"406 920 OFFCURVE",
"465 870 OFFCURVE",
"502 802 CURVE",
"502 232 LINE",
"452 141 OFFCURVE",
"388 102 OFFCURVE",
"332 102 CURVE SMOOTH"
);
},
{
closed = 1;
nodes = (
"1091 -426 OFFCURVE",
"1222 -286 OFFCURVE",
"1222 -26 CURVE SMOOTH",
"1222 250 OFFCURVE",
"1102 370 OFFCURVE",
"878 384 CURVE",
"1206 926 LINE",
"1206 1022 LINE",
"626 1022 LINE",
"626 896 LINE",
"1030 896 LINE",
"722 364 LINE",
"796 278 LINE",
"990 272 OFFCURVE",
"1076 200 OFFCURVE",
"1076 -26 CURVE SMOOTH",
"1076 -212 OFFCURVE",
"1007 -296 OFFCURVE",
"906 -296 CURVE SMOOTH",
"813 -296 OFFCURVE",
"742 -242 OFFCURVE",
"712 -68 CURVE",
"592 -116 LINE",
"630 -334 OFFCURVE",
"755 -426 OFFCURVE",
"908 -426 CURVE SMOOTH"
);
}
);
width = 1232;
},
{
background = {
paths = (
{
closed = 1;
nodes = (
"341 -24 OFFCURVE",
"391 21 OFFCURVE",
"414 78 CURVE",
"414 0 LINE",
"644 0 LINE",
"644 1444 LINE",
"414 1338 LINE",
"414 948 LINE",
"394 1002 OFFCURVE",
"343 1046 OFFCURVE",
"267 1046 CURVE SMOOTH",
"106 1046 OFFCURVE",
"0 854 OFFCURVE",
"0 512 CURVE SMOOTH",
"0 162 OFFCURVE",
"97 -24 OFFCURVE",
"266 -24 CURVE SMOOTH"
);
},
{
closed = 1;
nodes = (
"256 196 OFFCURVE",
"232 304 OFFCURVE",
"232 512 CURVE SMOOTH",
"232 736 OFFCURVE",
"256 828 OFFCURVE",
"326 828 CURVE SMOOTH",
"378 828 OFFCURVE",
"404 772 OFFCURVE",
"414 728 CURVE",
"414 296 LINE",
"399 234 OFFCURVE",
"372 196 OFFCURVE",
"328 196 CURVE SMOOTH"
);
},
{
closed = 1;
nodes = (
"1084 -426 OFFCURVE",
"1232 -296 OFFCURVE",
"1232 -1 CURVE SMOOTH",
"1232 254 OFFCURVE",
"1114 382 OFFCURVE",
"975 404 CURVE",
"1215 852 LINE",
"1215 1022 LINE",
"614 1022 LINE",
"614 814 LINE",
"949 814 LINE",
"716 367 LINE",
"827 242 LINE",
"923 242 OFFCURVE",
"1000 166 OFFCURVE",
"1000 -1 CURVE SMOOTH",
"1000 -148 OFFCURVE",
"953 -200 OFFCURVE",
"901 -200 CURVE SMOOTH",
"844 -200 OFFCURVE",
"806 -132 OFFCURVE",
"790 -2 CURVE",
"597 -87 LINE",
"630 -301 OFFCURVE",
"742 -426 OFFCURVE",
"910 -426 CURVE SMOOTH"
);
}
);
};
layerId = "C8970C82-1F9F-492B-A412-6BE281DD1303";
paths = (
{
closed = 1;
nodes = (
"341 -24 OFFCURVE",
"391 21 OFFCURVE",
"414 78 CURVE",
"414 0 LINE",
"644 0 LINE",
"644 1444 LINE",
"414 1338 LINE",
"414 948 LINE",
"394 1002 OFFCURVE",
"343 1046 OFFCURVE",
"267 1046 CURVE SMOOTH",
"106 1046 OFFCURVE",
"0 854 OFFCURVE",
"0 512 CURVE SMOOTH",
"0 162 OFFCURVE",
"97 -24 OFFCURVE",
"266 -24 CURVE SMOOTH"
);
},
{
closed = 1;
nodes = (
"256 196 OFFCURVE",
"232 304 OFFCURVE",
"232 512 CURVE SMOOTH",
"232 736 OFFCURVE",
"256 828 OFFCURVE",
"326 828 CURVE SMOOTH",
"378 828 OFFCURVE",
"404 772 OFFCURVE",
"414 728 CURVE",
"414 296 LINE",
"399 234 OFFCURVE",
"372 196 OFFCURVE",
"328 196 CURVE SMOOTH"
);
},
{
closed = 1;
nodes = (
"1084 -426 OFFCURVE",
"1232 -296 OFFCURVE",
"1232 -1 CURVE SMOOTH",
"1232 254 OFFCURVE",
"1114 382 OFFCURVE",
"975 404 CURVE",
"1215 852 LINE",
"1215 1022 LINE",
"628 1022 LINE",
"628 814 LINE",
"949 814 LINE",
"716 367 LINE",
"827 242 LINE",
"923 242 OFFCURVE",
"1000 166 OFFCURVE",
"1000 -1 CURVE SMOOTH",
"1000 -148 OFFCURVE",
"953 -200 OFFCURVE",
"901 -200 CURVE SMOOTH",
"852 -200 OFFCURVE",
"818 -150 OFFCURVE",
"798 -55 CURVE",
"607 -138 LINE",
"649 -321 OFFCURVE",
"756 -426 OFFCURVE",
"910 -426 CURVE SMOOTH"
);
}
);
width = 1232;
}
);
unicode = 02A4;
},
{
color = 4;
glyphname = dhook;
lastChange = "2021-07-16 18:37:16 +0000";
layers = (
{
anchors = (
{
name = bottom;
position = "{602, 0}";
},
{
name = top;
position = "{602, 1400}";
}
);
background = {
paths = (
{
closed = 1;
nodes = (
"728 -24 OFFCURVE",
"810 26 OFFCURVE",
"872 88 CURVE",
"872 0 LINE",
"1012 0 LINE",
"1012 1054 LINE",
"872 1054 LINE",
"872 950 LINE",
"810 1000 OFFCURVE",
"726 1046 OFFCURVE",
"586 1046 CURVE SMOOTH",
"318 1046 OFFCURVE",
"150 848 OFFCURVE",
"150 512 CURVE SMOOTH",
"150 186 OFFCURVE",
"316 -24 OFFCURVE",
"586 -24 CURVE SMOOTH"
);
},
{
closed = 1;
nodes = (
"414 102 OFFCURVE",
"296 284 OFFCURVE",
"296 512 CURVE SMOOTH",
"296 774 OFFCURVE",
"404 920 OFFCURVE",
"602 920 CURVE SMOOTH",
"746 920 OFFCURVE",
"830 840 OFFCURVE",
"872 772 CURVE",
"872 262 LINE",
"816 160 OFFCURVE",
"718 102 OFFCURVE",
"602 102 CURVE SMOOTH"
);
},
{
closed = 1;
nodes = (
"1012 1032 LINE",
"1012 1146 LINE SMOOTH",
"1012 1291 OFFCURVE",
"1044 1363 OFFCURVE",
"1193 1388 CURVE",
"1125 1500 LINE",
"937 1470 OFFCURVE",
"872 1356 OFFCURVE",
"872 1126 CURVE SMOOTH",
"872 1032 LINE"
);
}
);
};
layerId = UUID0;
paths = (
{
closed = 1;
nodes = (
"728 -24 OFFCURVE",
"810 26 OFFCURVE",
"872 88 CURVE",
"872 0 LINE",
"1012 0 LINE",
"1012 1146 LINE SMOOTH",
"1012 1291 OFFCURVE",
"1044 1363 OFFCURVE",
"1193 1388 CURVE",
"1125 1500 LINE",
"937 1470 OFFCURVE",
"872 1356 OFFCURVE",
"872 1126 CURVE SMOOTH",
"872 950 LINE",
"810 1000 OFFCURVE",
"726 1046 OFFCURVE",
"586 1046 CURVE SMOOTH",
"318 1046 OFFCURVE",
"150 848 OFFCURVE",
"150 512 CURVE SMOOTH",
"150 186 OFFCURVE",
"316 -24 OFFCURVE",
"586 -24 CURVE SMOOTH"
);
},
{
closed = 1;
nodes = (
"414 102 OFFCURVE",
"296 284 OFFCURVE",
"296 512 CURVE SMOOTH",
"296 774 OFFCURVE",
"404 920 OFFCURVE",
"602 920 CURVE SMOOTH",
"746 920 OFFCURVE",
"830 840 OFFCURVE",
"872 772 CURVE",
"872 262 LINE",
"816 160 OFFCURVE",
"718 102 OFFCURVE",
"602 102 CURVE SMOOTH"
);
}
);
width = 1232;
},
{
anchors = (
{
name = bottom;
position = "{620, 0}";
},
{
name = top;
position = "{614, 1400}";
}
);
background = {
paths = (
{
closed = 1;
nodes = (
"698 -24 OFFCURVE",
"790 28 OFFCURVE",
"828 78 CURVE",
"828 0 LINE",
"1058 0 LINE",
"1058 1018 LINE",
"828 1018 LINE",
"828 948 LINE",
"778 1002 OFFCURVE",
"688 1046 OFFCURVE",
"574 1046 CURVE SMOOTH",
"314 1046 OFFCURVE",
"130 844 OFFCURVE",
"130 512 CURVE SMOOTH",
"130 172 OFFCURVE",
"302 -24 OFFCURVE",
"580 -24 CURVE SMOOTH"
);
},
{
closed = 1;
nodes = (
"450 196 OFFCURVE",
"362 324 OFFCURVE",
"362 512 CURVE SMOOTH",
"362 716 OFFCURVE",
"450 828 OFFCURVE",
"608 828 CURVE SMOOTH",
"730 828 OFFCURVE",
"796 772 OFFCURVE",
"828 728 CURVE",
"828 296 LINE",
"784 230 OFFCURVE",
"720 196 OFFCURVE",
"612 196 CURVE SMOOTH"
);
},
{
closed = 1;
nodes = (
"1058 998 LINE",
"1058 1059 LINE SMOOTH",
"1058 1212 OFFCURVE",
"1089 1284 OFFCURVE",
"1242 1330 CURVE",
"1134 1500 LINE",
"914 1451 OFFCURVE",
"828 1322 OFFCURVE",
"828 1052 CURVE SMOOTH",
"828 998 LINE"
);
}
);
};
layerId = "C8970C82-1F9F-492B-A412-6BE281DD1303";
paths = (
{
closed = 1;
nodes = (
"698 -24 OFFCURVE",
"790 28 OFFCURVE",
"828 78 CURVE",
"828 0 LINE",
"1058 0 LINE",
"1058 1059 LINE SMOOTH",
"1058 1212 OFFCURVE",
"1089 1284 OFFCURVE",
"1242 1330 CURVE",
"1134 1500 LINE",
"914 1451 OFFCURVE",
"828 1322 OFFCURVE",
"828 1052 CURVE SMOOTH",
"828 948 LINE",
"778 1002 OFFCURVE",
"688 1046 OFFCURVE",
"574 1046 CURVE SMOOTH",
"314 1046 OFFCURVE",
"130 844 OFFCURVE",
"130 512 CURVE SMOOTH",
"130 172 OFFCURVE",
"302 -24 OFFCURVE",
"580 -24 CURVE SMOOTH"
);
},
{
closed = 1;
nodes = (
"450 196 OFFCURVE",
"362 324 OFFCURVE",
"362 512 CURVE SMOOTH",
"362 716 OFFCURVE",
"450 828 OFFCURVE",
"608 828 CURVE SMOOTH",
"730 828 OFFCURVE",
"796 772 OFFCURVE",
"828 728 CURVE",
"828 296 LINE",
"784 230 OFFCURVE",
"720 196 OFFCURVE",
"612 196 CURVE SMOOTH"
);
}
);
width = 1232;
}
);
unicode = 0257;
},
{
color = 4;
glyphname = dtail;
lastChange = "2021-07-19 21:22:55 +0000";
layers = (
{
background = {
paths = (
{
closed = 1;
nodes = (
"728 -24 OFFCURVE",
"810 26 OFFCURVE",
"872 88 CURVE",
"872 0 LINE",
"1012 0 LINE",
"1012 1444 LINE",
"872 1374 LINE",
"872 950 LINE",
"810 1000 OFFCURVE",
"726 1046 OFFCURVE",
"586 1046 CURVE SMOOTH",
"318 1046 OFFCURVE",
"150 848 OFFCURVE",
"150 512 CURVE SMOOTH",
"150 186 OFFCURVE",
"316 -24 OFFCURVE",
"586 -24 CURVE SMOOTH"
);
},
{
closed = 1;
nodes = (
"414 102 OFFCURVE",
"296 284 OFFCURVE",
"296 512 CURVE SMOOTH",
"296 774 OFFCURVE",
"404 920 OFFCURVE",
"602 920 CURVE SMOOTH",
"746 920 OFFCURVE",
"830 840 OFFCURVE",
"872 772 CURVE",
"872 262 LINE",
"816 160 OFFCURVE",
"718 102 OFFCURVE",
"602 102 CURVE SMOOTH"
);
},
{
closed = 1;
nodes = (
"1193 -338 LINE",
"1044 -313 OFFCURVE",
"1012 -241 OFFCURVE",
"1012 -96 CURVE SMOOTH",
"1012 18 LINE",
"872 18 LINE",
"872 -76 LINE SMOOTH",
"872 -306 OFFCURVE",
"937 -420 OFFCURVE",
"1125 -450 CURVE"
);
}
);
};
layerId = UUID0;
paths = (
{
closed = 1;
nodes = (
"1193 -338 LINE",
"1044 -313 OFFCURVE",
"1012 -241 OFFCURVE",
"1012 -96 CURVE SMOOTH",
"1012 1444 LINE",
"872 1374 LINE",
"872 950 LINE",
"810 1000 OFFCURVE",
"726 1046 OFFCURVE",
"586 1046 CURVE SMOOTH",
"318 1046 OFFCURVE",
"150 848 OFFCURVE",
"150 512 CURVE SMOOTH",
"150 186 OFFCURVE",
"316 -24 OFFCURVE",
"586 -24 CURVE SMOOTH",
"728 -24 OFFCURVE",
"810 26 OFFCURVE",
"872 88 CURVE",
"872 -76 LINE SMOOTH",
"872 -306 OFFCURVE",
"937 -420 OFFCURVE",
"1125 -450 CURVE"
);
},
{
closed = 1;
nodes = (
"414 102 OFFCURVE",
"296 284 OFFCURVE",
"296 512 CURVE SMOOTH",
"296 774 OFFCURVE",
"404 920 OFFCURVE",
"602 920 CURVE SMOOTH",
"746 920 OFFCURVE",
"830 840 OFFCURVE",
"872 772 CURVE",
"872 262 LINE",
"816 160 OFFCURVE",
"718 102 OFFCURVE",
"602 102 CURVE SMOOTH"
);
}
);
width = 1232;
},
{
background = {
paths = (
{
closed = 1;
nodes = (
"698 -24 OFFCURVE",
"790 28 OFFCURVE",
"828 78 CURVE",
"828 0 LINE",
"1058 0 LINE",
"1058 1444 LINE",
"828 1338 LINE",
"828 948 LINE",
"778 1002 OFFCURVE",
"688 1046 OFFCURVE",
"574 1046 CURVE SMOOTH",
"314 1046 OFFCURVE",
"130 844 OFFCURVE",
"130 512 CURVE SMOOTH",
"130 172 OFFCURVE",
"302 -24 OFFCURVE",
"580 -24 CURVE SMOOTH"
);
},
{
closed = 1;
nodes = (
"1242 -314 LINE",
"1089 -268 OFFCURVE",
"1058 -196 OFFCURVE",
"1058 -43 CURVE SMOOTH",
"1058 18 LINE",
"828 18 LINE",
"828 -36 LINE SMOOTH",
"828 -306 OFFCURVE",
"914 -435 OFFCURVE",
"1134 -484 CURVE"
);
},
{
closed = 1;
nodes = (
"450 196 OFFCURVE",
"362 324 OFFCURVE",
"362 512 CURVE SMOOTH",
"362 716 OFFCURVE",
"450 828 OFFCURVE",
"608 828 CURVE SMOOTH",
"730 828 OFFCURVE",
"796 772 OFFCURVE",
"828 728 CURVE",
"828 296 LINE",
"784 230 OFFCURVE",
"720 196 OFFCURVE",
"612 196 CURVE SMOOTH"
);
}
);
};
layerId = "C8970C82-1F9F-492B-A412-6BE281DD1303";
paths = (
{
closed = 1;
nodes = (
"1242 -314 LINE",
"1089 -268 OFFCURVE",
"1058 -196 OFFCURVE",
"1058 -43 CURVE SMOOTH",
"1058 1444 LINE",
"828 1338 LINE",
"828 948 LINE",
"778 1002 OFFCURVE",
"688 1046 OFFCURVE",
"574 1046 CURVE SMOOTH",
"314 1046 OFFCURVE",
"130 844 OFFCURVE",
"130 512 CURVE SMOOTH",
"130 172 OFFCURVE",
"302 -24 OFFCURVE",
"580 -24 CURVE SMOOTH",
"698 -24 OFFCURVE",
"790 28 OFFCURVE",
"828 78 CURVE",
"828 -36 LINE SMOOTH",
"828 -306 OFFCURVE",
"914 -435 OFFCURVE",
"1134 -484 CURVE"
);
},
{
closed = 1;
nodes = (
"450 196 OFFCURVE",
"362 324 OFFCURVE",
"362 512 CURVE SMOOTH",
"362 716 OFFCURVE",
"450 828 OFFCURVE",
"608 828 CURVE SMOOTH",
"730 828 OFFCURVE",
"796 772 OFFCURVE",
"828 728 CURVE",
"828 296 LINE",
"784 230 OFFCURVE",
"720 196 OFFCURVE",
"612 196 CURVE SMOOTH"
);
}
);
width = 1232;
}
);
unicode = 0256;
},
{
glyphname = dz;
lastChange = "2020-09-15 16:21:19 +0000";
layers = (
{
layerId = UUID0;
paths = (
{
closed = 1;
nodes = (
"1110 0 LINE",
"1110 126 LINE",
"886 126 LINE",
"1112 938 LINE",
"1112 1022 LINE",
"780 1022 LINE",
"780 896 LINE",
"962 896 LINE",
"740 86 LINE",
"740 0 LINE"
);
},
{
closed = 1;
nodes = (
"392 -24 OFFCURVE",
"448 22 OFFCURVE",
"482 78 CURVE",
"482 0 LINE",
"622 0 LINE",
"622 1444 LINE",
"482 1374 LINE",
"482 950 LINE",
"452 1000 OFFCURVE",
"402 1046 OFFCURVE",
"330 1046 CURVE SMOOTH",
"160 1046 OFFCURVE",
"80 848 OFFCURVE",
"80 512 CURVE SMOOTH",
"80 186 OFFCURVE",
"160 -24 OFFCURVE",
"318 -24 CURVE SMOOTH"
);
},
{
closed = 1;
nodes = (
"256 102 OFFCURVE",
"220 284 OFFCURVE",
"220 512 CURVE SMOOTH",
"220 774 OFFCURVE",
"250 920 OFFCURVE",
"352 920 CURVE SMOOTH",
"410 920 OFFCURVE",
"454 860 OFFCURVE",
"482 790 CURVE",
"482 224 LINE",
"446 140 OFFCURVE",
"390 102 OFFCURVE",
"352 102 CURVE SMOOTH"
);
}
);
width = 1232;
},
{
layerId = "C8970C82-1F9F-492B-A412-6BE281DD1303";
paths = (
{
closed = 1;
nodes = (
"1146 0 LINE",
"1146 206 LINE",
"926 206 LINE",
"1148 852 LINE",
"1148 1022 LINE",
"746 1022 LINE",
"746 816 LINE",
"930 816 LINE",
"708 174 LINE",
"708 0 LINE"
);
},
{
closed = 1;
nodes = (
"350 -24 OFFCURVE",
"398 28 OFFCURVE",
"418 78 CURVE",
"418 0 LINE",
"610 0 LINE",
"610 1444 LINE",
"418 1356 LINE",
"418 948 LINE",
"392 1002 OFFCURVE",
"344 1046 OFFCURVE",
"284 1046 CURVE SMOOTH",
"146 1046 OFFCURVE",
"50 844 OFFCURVE",
"50 512 CURVE SMOOTH",
"50 172 OFFCURVE",
"140 -24 OFFCURVE",
"280 -24 CURVE SMOOTH"
);
},
{
closed = 1;
nodes = (
"270 196 OFFCURVE",
"242 324 OFFCURVE",
"242 512 CURVE SMOOTH",
"242 716 OFFCURVE",
"270 828 OFFCURVE",
"332 828 CURVE SMOOTH",
"380 828 OFFCURVE",
"408 772 OFFCURVE",
"418 738 CURVE",
"418 286 LINE",
"400 230 OFFCURVE",
"374 196 OFFCURVE",
"334 196 CURVE SMOOTH"
);
}
);
width = 1232;
}
);
unicode = 01F3;
},
{
color = 4;
glyphname = dzaltone;
lastChange = "2021-07-19 17:54:05 +0000";
layers = (
{
layerId = UUID0;
paths = (
{
closed = 1;
nodes = (
"388 -24 OFFCURVE",
"450 22 OFFCURVE",
"502 88 CURVE",
"502 0 LINE",
"642 0 LINE",
"642 1444 LINE",
"502 1374 LINE",
"502 950 LINE",
"465 1000 OFFCURVE",
"401 1046 OFFCURVE",
"306 1046 CURVE SMOOTH",
"128 1046 OFFCURVE",
"10 878 OFFCURVE",
"10 512 CURVE SMOOTH",
"10 156 OFFCURVE",
"126 -24 OFFCURVE",
"296 -24 CURVE SMOOTH"
);
},
{
closed = 1;
nodes = (
"224 102 OFFCURVE",
"156 254 OFFCURVE",
"156 512 CURVE SMOOTH",
"156 804 OFFCURVE",
"224 920 OFFCURVE",
"332 920 CURVE SMOOTH",
"406 920 OFFCURVE",
"465 870 OFFCURVE",
"502 802 CURVE",
"502 232 LINE",
"452 141 OFFCURVE",
"388 102 OFFCURVE",
"332 102 CURVE SMOOTH"
);
},
{
closed = 1;
nodes = (
"1220 0 LINE",
"1220 126 LINE",
"880 126 LINE",
"1222 926 LINE",
"1222 1022 LINE",
"626 1022 LINE",
"626 896 LINE",
"1056 896 LINE",
"712 86 LINE",
"712 0 LINE"
);
}
);
width = 1232;
},
{
background = {
paths = (
{
closed = 1;
nodes = (
"628 814 LINE",
"949 814 LINE",
"687 174 LINE",
"687 0 LINE",
"1232 0 LINE",
"1232 206 LINE",
"940 206 LINE",
"1215 852 LINE",
"1215 1022 LINE",
"628 1022 LINE"
);
},
{
closed = 1;
nodes = (
"256 196 OFFCURVE",
"232 304 OFFCURVE",
"232 512 CURVE SMOOTH",
"232 736 OFFCURVE",
"256 828 OFFCURVE",
"326 828 CURVE SMOOTH",
"378 828 OFFCURVE",
"404 772 OFFCURVE",
"414 728 CURVE",
"414 296 LINE",
"399 234 OFFCURVE",
"372 196 OFFCURVE",
"328 196 CURVE SMOOTH"
);
},
{
closed = 1;
nodes = (
"644 1444 LINE",
"414 1338 LINE",
"414 948 LINE",
"394 1002 OFFCURVE",
"343 1046 OFFCURVE",
"267 1046 CURVE SMOOTH",
"106 1046 OFFCURVE",
"0 854 OFFCURVE",
"0 512 CURVE SMOOTH",
"0 162 OFFCURVE",
"97 -24 OFFCURVE",
"266 -24 CURVE SMOOTH",
"341 -24 OFFCURVE",
"391 21 OFFCURVE",
"414 78 CURVE",
"414 0 LINE",
"644 0 LINE"
);
}
);
};
layerId = "C8970C82-1F9F-492B-A412-6BE281DD1303";
paths = (
{
closed = 1;
nodes = (
"341 -24 OFFCURVE",
"391 21 OFFCURVE",
"414 78 CURVE",
"414 0 LINE",
"644 0 LINE",
"644 1444 LINE",
"414 1338 LINE",
"414 948 LINE",
"394 1002 OFFCURVE",
"343 1046 OFFCURVE",
"267 1046 CURVE SMOOTH",
"106 1046 OFFCURVE",
"0 854 OFFCURVE",
"0 512 CURVE SMOOTH",
"0 162 OFFCURVE",
"97 -24 OFFCURVE",
"266 -24 CURVE SMOOTH"
);
},
{
closed = 1;
nodes = (
"256 196 OFFCURVE",
"232 304 OFFCURVE",
"232 512 CURVE SMOOTH",
"232 736 OFFCURVE",
"256 828 OFFCURVE",
"326 828 CURVE SMOOTH",
"378 828 OFFCURVE",
"404 772 OFFCURVE",
"414 728 CURVE",
"414 296 LINE",
"399 234 OFFCURVE",
"372 196 OFFCURVE",
"328 196 CURVE SMOOTH"
);
},
{
closed = 1;
nodes = (
"1232 0 LINE",
"1232 206 LINE",
"960 206 LINE",
"1215 852 LINE",
"1215 1022 LINE",
"618 1022 LINE",
"618 814 LINE",
"949 814 LINE",
"707 174 LINE",
"707 0 LINE"
);
}
);
width = 1232;
}
);
unicode = 02A3;
},
{
glyphname = dzcaron;
lastChange = "2020-09-15 16:21:19 +0000";
layers = (
{
layerId = UUID0;
paths = (
{
closed = 1;
nodes = (
"1110 0 LINE",
"1110 126 LINE",
"886 126 LINE",
"1112 938 LINE",
"1112 1022 LINE",
"780 1022 LINE",
"780 896 LINE",
"962 896 LINE",
"740 86 LINE",
"740 0 LINE"
);
},
{
closed = 1;
nodes = (
"1024 1152 LINE",
"1202 1464 LINE",
"1086 1464 LINE",
"944 1246 LINE",
"802 1464 LINE",
"686 1464 LINE",
"864 1152 LINE"
);
},
{
closed = 1;
nodes = (
"392 -24 OFFCURVE",
"448 22 OFFCURVE",
"482 78 CURVE",
"482 0 LINE",
"622 0 LINE",
"622 1444 LINE",
"482 1374 LINE",
"482 950 LINE",
"452 1000 OFFCURVE",
"402 1046 OFFCURVE",
"330 1046 CURVE SMOOTH",
"160 1046 OFFCURVE",
"80 848 OFFCURVE",
"80 512 CURVE SMOOTH",
"80 186 OFFCURVE",
"160 -24 OFFCURVE",
"318 -24 CURVE SMOOTH"
);
},
{
closed = 1;
nodes = (
"256 102 OFFCURVE",
"220 284 OFFCURVE",
"220 512 CURVE SMOOTH",
"220 774 OFFCURVE",
"250 920 OFFCURVE",
"352 920 CURVE SMOOTH",
"410 920 OFFCURVE",
"454 860 OFFCURVE",
"482 790 CURVE",
"482 224 LINE",
"446 140 OFFCURVE",
"390 102 OFFCURVE",
"352 102 CURVE SMOOTH"
);
}
);
width = 1232;
},
{
layerId = "C8970C82-1F9F-492B-A412-6BE281DD1303";
paths = (
{
closed = 1;
nodes = (
"1146 0 LINE",
"1146 206 LINE",
"926 206 LINE",
"1148 852 LINE",
"1148 1022 LINE",
"746 1022 LINE",
"746 816 LINE",
"930 816 LINE",
"708 174 LINE",
"708 0 LINE"
);
},
{
closed = 1;
nodes = (
"1050 1152 LINE",
"1232 1464 LINE",
"1060 1464 LINE",
"946 1296 LINE",
"832 1464 LINE",
"660 1464 LINE",
"842 1152 LINE"
);
},
{
closed = 1;
nodes = (
"350 -24 OFFCURVE",
"398 28 OFFCURVE",
"418 78 CURVE",
"418 0 LINE",
"610 0 LINE",
"610 1444 LINE",
"418 1356 LINE",
"418 948 LINE",
"392 1002 OFFCURVE",
"344 1046 OFFCURVE",
"284 1046 CURVE SMOOTH",
"146 1046 OFFCURVE",
"50 844 OFFCURVE",
"50 512 CURVE SMOOTH",
"50 172 OFFCURVE",
"140 -24 OFFCURVE",
"280 -24 CURVE SMOOTH"
);
},
{
closed = 1;
nodes = (
"270 196 OFFCURVE",
"242 324 OFFCURVE",
"242 512 CURVE SMOOTH",
"242 716 OFFCURVE",
"270 828 OFFCURVE",
"332 828 CURVE SMOOTH",
"380 828 OFFCURVE",
"408 772 OFFCURVE",
"418 738 CURVE",
"418 286 LINE",
"400 230 OFFCURVE",
"374 196 OFFCURVE",
"334 196 CURVE SMOOTH"
);
}
);
width = 1232;
}
);
unicode = 01C6;
},
{
glyphname = e;
lastChange = "2020-09-15 16:21:19 +0000";
layers = (
{
anchors = (
{
name = bottom;
position = "{636, 0}";
},
{
name = ogonek;
position = "{786, 0}";
},
{
name = top;
position = "{634, 1022}";
}
);
layerId = UUID0;
paths = (
{
closed = 1;
nodes = (
"760 -24 OFFCURVE",
"878 26 OFFCURVE",
"962 92 CURVE",
"886 186 LINE",
"804 128 OFFCURVE",
"720 106 OFFCURVE",
"642 106 CURVE SMOOTH",
"442 106 OFFCURVE",
"322 272 OFFCURVE",
"322 546 CURVE SMOOTH",
"322 772 OFFCURVE",
"422 920 OFFCURVE",
"636 920 CURVE SMOOTH",
"750 920 OFFCURVE",
"912 854 OFFCURVE",
"912 580 CURVE",
"290 580 LINE",
"290 454 LINE",
"1050 454 LINE",
"1054 498 OFFCURVE",
"1054 530 OFFCURVE",
"1054 552 CURVE SMOOTH",
"1054 896 OFFCURVE",
"862 1046 OFFCURVE",
"636 1046 CURVE SMOOTH",
"360 1046 OFFCURVE",
"178 852 OFFCURVE",
"178 512 CURVE SMOOTH",
"178 224 OFFCURVE",
"346 -24 OFFCURVE",
"636 -24 CURVE SMOOTH"
);
}
);
width = 1232;
},
{
anchors = (
{
name = bottom;
position = "{630, 0}";
},
{
name = ogonek;
position = "{792, 0}";
},
{
name = top;
position = "{632, 1022}";
}
);
layerId = "C8970C82-1F9F-492B-A412-6BE281DD1303";
paths = (
{
closed = 1;
nodes = (
"796 -24 OFFCURVE",
"918 40 OFFCURVE",
"1004 134 CURVE",
"866 280 LINE",
"802 210 OFFCURVE",
"730 180 OFFCURVE",
"640 180 CURVE SMOOTH",
"470 180 OFFCURVE",
"372 314 OFFCURVE",
"372 516 CURVE SMOOTH",
"372 718 OFFCURVE",
"450 844 OFFCURVE",
"638 844 CURVE SMOOTH",
"744 844 OFFCURVE",
"842 776 OFFCURVE",
"856 618 CURVE",
"326 618 LINE",
"326 422 LINE",
"1074 422 LINE",
"1082 474 OFFCURVE",
"1082 526 OFFCURVE",
"1082 562 CURVE SMOOTH",
"1082 894 OFFCURVE",
"884 1046 OFFCURVE",
"638 1046 CURVE SMOOTH",
"340 1046 OFFCURVE",
"150 844 OFFCURVE",
"150 512 CURVE SMOOTH",
"150 188 OFFCURVE",
"334 -24 OFFCURVE",
"638 -24 CURVE SMOOTH"
);
}
);
width = 1232;
}
);
unicode = 0065;
},
{
glyphname = eogonek;
lastChange = "2021-07-22 17:43:54 +0000";
layers = (
{
layerId = UUID0;
paths = (
{
closed = 1;
nodes = (
"768 -468 OFFCURVE",
"832 -424 OFFCURVE",
"872 -380 CURVE",
"794 -322 LINE",
"772 -342 OFFCURVE",
"740 -368 OFFCURVE",
"684 -368 CURVE SMOOTH",
"632 -368 OFFCURVE",
"576 -336 OFFCURVE",
"576 -254 CURVE SMOOTH",
"576 -158 OFFCURVE",
"657 -58 OFFCURVE",
"806 4 CURVE SMOOTH",
"868 30 OFFCURVE",
"922 60 OFFCURVE",
"962 92 CURVE",
"886 186 LINE",
"804 128 OFFCURVE",
"720 106 OFFCURVE",
"642 106 CURVE SMOOTH",
"466 106 OFFCURVE",
"352 236 OFFCURVE",
"326 454 CURVE",
"1050 454 LINE",
"1054 498 OFFCURVE",
"1054 530 OFFCURVE",
"1054 552 CURVE SMOOTH",
"1054 896 OFFCURVE",
"862 1046 OFFCURVE",
"636 1046 CURVE SMOOTH",
"360 1046 OFFCURVE",
"178 852 OFFCURVE",
"178 512 CURVE SMOOTH",
"178 228 OFFCURVE",
"342 -18 OFFCURVE",
"626 -24 CURVE",
"518 -84 OFFCURVE",
"454 -170 OFFCURVE",
"454 -272 CURVE SMOOTH",
"454 -402 OFFCURVE",
"556 -468 OFFCURVE",
"672 -468 CURVE SMOOTH"
);
},
{
closed = 1;
nodes = (
"332 786 OFFCURVE",
"432 920 OFFCURVE",
"636 920 CURVE SMOOTH",
"750 920 OFFCURVE",
"912 854 OFFCURVE",
"912 580 CURVE",
"322 580 LINE"
);
}
);
width = 1232;
},
{
layerId = "C8970C82-1F9F-492B-A412-6BE281DD1303";
paths = (
{
closed = 1;
nodes = (
"774 -484 OFFCURVE",
"842 -428 OFFCURVE",
"882 -384 CURVE",
"772 -306 LINE",
"754 -328 OFFCURVE",
"726 -346 OFFCURVE",
"686 -346 CURVE SMOOTH",
"642 -346 OFFCURVE",
"602 -318 OFFCURVE",
"602 -252 CURVE SMOOTH",
"602 -168 OFFCURVE",
"664 -64 OFFCURVE",
"810 2 CURVE SMOOTH",
"894 40 OFFCURVE",
"954 78 OFFCURVE",
"1004 134 CURVE",
"866 280 LINE",
"802 210 OFFCURVE",
"730 180 OFFCURVE",
"640 180 CURVE SMOOTH",
"498 180 OFFCURVE",
"408 276 OFFCURVE",
"380 422 CURVE",
"1074 422 LINE",
"1082 474 OFFCURVE",
"1082 526 OFFCURVE",
"1082 562 CURVE SMOOTH",
"1082 894 OFFCURVE",
"884 1046 OFFCURVE",
"638 1046 CURVE SMOOTH",
"340 1046 OFFCURVE",
"150 844 OFFCURVE",
"150 512 CURVE SMOOTH",
"150 206 OFFCURVE",
"314 0 OFFCURVE",
"588 -22 CURVE",
"476 -80 OFFCURVE",
"412 -166 OFFCURVE",
"412 -272 CURVE SMOOTH",
"412 -402 OFFCURVE",
"512 -484 OFFCURVE",
"652 -484 CURVE SMOOTH"
);
},
{
closed = 1;
nodes = (
"402 756 OFFCURVE",
"486 844 OFFCURVE",
"638 844 CURVE SMOOTH",
"744 844 OFFCURVE",
"842 776 OFFCURVE",
"856 618 CURVE",
"378 618 LINE"
);
}
);
width = 1232;
}
);
unicode = 0119;
},
{
color = 4;
glyphname = eopen;
lastChange = "2021-07-19 21:10:19 +0000";
layers = (
{
anchors = (
{
name = bottom;
position = "{576, 0}";
},
{
name = top;
position = "{576, 1022}";
}
);
layerId = UUID0;
paths = (
{
closed = 1;
nodes = (
"771 -24 OFFCURVE",
"935 74 OFFCURVE",
"1007 245 CURVE",
"884 289 LINE",
"827 168 OFFCURVE",
"719 105 OFFCURVE",
"574 105 CURVE SMOOTH",
"429 105 OFFCURVE",
"334 171 OFFCURVE",
"334 283 CURVE SMOOTH",
"334 387 OFFCURVE",
"423 454 OFFCURVE",
"581 454 CURVE SMOOTH",
"751 454 LINE",
"751 583 LINE",
"581 583 LINE SMOOTH",
"452 583 OFFCURVE",
"376 650 OFFCURVE",
"376 755 CURVE SMOOTH",
"376 856 OFFCURVE",
"457 917 OFFCURVE",
"579 917 CURVE SMOOTH",
"705 917 OFFCURVE",
"802 859 OFFCURVE",
"850 743 CURVE",
"970 795 LINE",
"912 951 OFFCURVE",
"758 1046 OFFCURVE",
"578 1046 CURVE SMOOTH",
"368 1046 OFFCURVE",
"235 930 OFFCURVE",
"235 765 CURVE SMOOTH",
"235 656 OFFCURVE",
"291 569 OFFCURVE",
"398 529 CURVE",
"267 499 OFFCURVE",
"193 397 OFFCURVE",
"193 279 CURVE SMOOTH",
"193 100 OFFCURVE",
"339 -24 OFFCURVE",
"574 -24 CURVE SMOOTH"
);
}
);
width = 1232;
},
{
anchors = (
{
name = bottom;
position = "{616, 0}";
},
{
name = top;
position = "{616, 1022}";
}
);
layerId = "C8970C82-1F9F-492B-A412-6BE281DD1303";
paths = (
{
closed = 1;
nodes = (
"816 -24 OFFCURVE",
"987 75 OFFCURVE",
"1057 243 CURVE",
"856 316 LINE",
"809 226 OFFCURVE",
"721 176 OFFCURVE",
"610 176 CURVE SMOOTH",
"506 176 OFFCURVE",
"439 222 OFFCURVE",
"439 298 CURVE SMOOTH",
"439 370 OFFCURVE",
"504 418 OFFCURVE",
"617 418 CURVE SMOOTH",
"796 418 LINE",
"796 614 LINE",
"625 614 LINE SMOOTH",
"535 614 OFFCURVE",
"479 663 OFFCURVE",
"479 733 CURVE SMOOTH",
"479 802 OFFCURVE",
"536 846 OFFCURVE",
"626 846 CURVE SMOOTH",
"721 846 OFFCURVE",
"798 800 OFFCURVE",
"837 717 CURVE",
"1022 798 LINE",
"957 955 OFFCURVE",
"803 1046 OFFCURVE",
"612 1046 CURVE SMOOTH",
"388 1046 OFFCURVE",
"245 931 OFFCURVE",
"245 764 CURVE SMOOTH",
"245 653 OFFCURVE",
"309 566 OFFCURVE",
"426 529 CURVE",
"284 499 OFFCURVE",
"205 401 OFFCURVE",
"205 278 CURVE SMOOTH",
"205 99 OFFCURVE",
"361 -24 OFFCURVE",
"605 -24 CURVE SMOOTH"
);
}
);
width = 1232;
}
);
unicode = 025B;
},
{
glyphname = eturned;
lastChange = "2020-09-15 16:21:19 +0000";
layers = (
{
layerId = UUID0;
paths = (
{
closed = 1;
nodes = (
"872 -24 OFFCURVE",
"1054 170 OFFCURVE",
"1054 510 CURVE SMOOTH",
"1054 818 OFFCURVE",
"896 1046 OFFCURVE",
"606 1046 CURVE SMOOTH",
"462 1046 OFFCURVE",
"354 996 OFFCURVE",
"270 930 CURVE",
"346 836 LINE",
"428 894 OFFCURVE",
"502 916 OFFCURVE",
"600 916 CURVE SMOOTH",
"778 916 OFFCURVE",
"884 800 OFFCURVE",
"906 568 CURVE",
"182 568 LINE",
"178 524 OFFCURVE",
"178 492 OFFCURVE",
"178 470 CURVE SMOOTH",
"178 136 OFFCURVE",
"370 -24 OFFCURVE",
"606 -24 CURVE SMOOTH"
);
},
{
closed = 1;
nodes = (
"482 102 OFFCURVE",
"320 178 OFFCURVE",
"320 442 CURVE",
"910 442 LINE",
"900 236 OFFCURVE",
"800 102 OFFCURVE",
"606 102 CURVE SMOOTH"
);
}
);
width = 1232;
},
{
layerId = "C8970C82-1F9F-492B-A412-6BE281DD1303";
paths = (
{
closed = 1;
nodes = (
"892 -24 OFFCURVE",
"1082 178 OFFCURVE",
"1082 510 CURVE SMOOTH",
"1082 854 OFFCURVE",
"894 1046 OFFCURVE",
"614 1046 CURVE SMOOTH",
"452 1046 OFFCURVE",
"316 980 OFFCURVE",
"228 888 CURVE",
"368 744 LINE",
"432 810 OFFCURVE",
"512 842 OFFCURVE",
"610 842 CURVE SMOOTH",
"750 842 OFFCURVE",
"834 750 OFFCURVE",
"858 602 CURVE",
"158 602 LINE",
"152 548 OFFCURVE",
"152 504 OFFCURVE",
"152 468 CURVE SMOOTH",
"152 154 OFFCURVE",
"350 -24 OFFCURVE",
"614 -24 CURVE SMOOTH"
);
},
{
closed = 1;
nodes = (
"488 178 OFFCURVE",
"390 248 OFFCURVE",
"378 404 CURVE",
"856 404 LINE",
"832 270 OFFCURVE",
"758 178 OFFCURVE",
"614 178 CURVE SMOOTH"
);
}
);
width = 1232;
}
);
unicode = 01DD;
},
{
glyphname = schwa;
lastChange = "2020-09-15 16:21:19 +0000";
layers = (
{
layerId = UUID0;
paths = (
{
closed = 1;
nodes = (
"872 -24 OFFCURVE",
"1054 170 OFFCURVE",
"1054 510 CURVE SMOOTH",
"1054 818 OFFCURVE",
"896 1046 OFFCURVE",
"606 1046 CURVE SMOOTH",
"462 1046 OFFCURVE",
"354 996 OFFCURVE",
"270 930 CURVE",
"346 836 LINE",
"428 894 OFFCURVE",
"502 916 OFFCURVE",
"600 916 CURVE SMOOTH",
"800 916 OFFCURVE",
"910 770 OFFCURVE",
"910 476 CURVE SMOOTH",
"910 250 OFFCURVE",
"810 102 OFFCURVE",
"606 102 CURVE SMOOTH",
"482 102 OFFCURVE",
"320 178 OFFCURVE",
"320 442 CURVE",
"942 442 LINE",
"942 568 LINE",
"182 568 LINE",
"178 524 OFFCURVE",
"178 492 OFFCURVE",
"178 470 CURVE SMOOTH",
"178 136 OFFCURVE",
"370 -24 OFFCURVE",
"606 -24 CURVE SMOOTH"
);
}
);
width = 1232;
},
{
layerId = "C8970C82-1F9F-492B-A412-6BE281DD1303";
paths = (
{
closed = 1;
nodes = (
"892 -24 OFFCURVE",
"1082 178 OFFCURVE",
"1082 510 CURVE SMOOTH",
"1082 854 OFFCURVE",
"894 1046 OFFCURVE",
"614 1046 CURVE SMOOTH",
"452 1046 OFFCURVE",
"316 980 OFFCURVE",
"228 888 CURVE",
"368 744 LINE",
"432 810 OFFCURVE",
"512 842 OFFCURVE",
"610 842 CURVE SMOOTH",
"778 842 OFFCURVE",
"864 712 OFFCURVE",
"864 510 CURVE SMOOTH",
"864 320 OFFCURVE",
"794 178 OFFCURVE",
"614 178 CURVE SMOOTH",
"488 178 OFFCURVE",
"390 248 OFFCURVE",
"378 404 CURVE",
"888 404 LINE",
"888 602 LINE",
"158 602 LINE",
"152 548 OFFCURVE",
"152 504 OFFCURVE",
"152 468 CURVE SMOOTH",
"152 154 OFFCURVE",
"350 -24 OFFCURVE",
"614 -24 CURVE SMOOTH"
);
}
);
width = 1232;
}
);
unicode = 0259;
},
{
glyphname = ezh;
lastChange = "2021-07-16 19:23:41 +0000";
layers = (
{
anchors = (
{
name = bottom;
position = "{606, -406}";
},
{
name = top;
position = "{614, 1022}";
}
);
layerId = UUID0;
paths = (
{
closed = 1;
nodes = (
"844 -426 OFFCURVE",
"1018 -260 OFFCURVE",
"1018 -20 CURVE SMOOTH",
"1018 220 OFFCURVE",
"848 375 OFFCURVE",
"564 384 CURVE",
"986 926 LINE",
"986 1022 LINE",
"246 1022 LINE",
"246 896 LINE",
"810 896 LINE",
"398 364 LINE",
"482 278 LINE",
"730 278 OFFCURVE",
"872 170 OFFCURVE",
"872 -20 CURVE SMOOTH",
"872 -182 OFFCURVE",
"770 -296 OFFCURVE",
"604 -296 CURVE SMOOTH",
"461 -296 OFFCURVE",
"370 -222 OFFCURVE",
"310 -68 CURVE",
"190 -116 LINE",
"258 -314 OFFCURVE",
"408 -426 OFFCURVE",
"606 -426 CURVE SMOOTH"
);
}
);
width = 1232;
},
{
anchors = (
{
name = bottom;
position = "{614, -406}";
},
{
name = top;
position = "{612, 1022}";
}
);
layerId = "C8970C82-1F9F-492B-A412-6BE281DD1303";
paths = (
{
closed = 1;
nodes = (
"870 -426 OFFCURVE",
"1052 -246 OFFCURVE",
"1052 4 CURVE SMOOTH",
"1052 224 OFFCURVE",
"910 372 OFFCURVE",
"666 404 CURVE",
"1012 852 LINE",
"1012 1022 LINE",
"210 1022 LINE",
"210 814 LINE",
"730 814 LINE",
"388 372 LINE",
"518 242 LINE",
"706 232 OFFCURVE",
"814 146 OFFCURVE",
"814 4 CURVE SMOOTH",
"814 -118 OFFCURVE",
"732 -200 OFFCURVE",
"606 -200 CURVE SMOOTH",
"498 -200 OFFCURVE",
"416 -132 OFFCURVE",
"368 -2 CURVE",
"156 -88 LINE",
"218 -302 OFFCURVE",
"386 -426 OFFCURVE",
"614 -426 CURVE SMOOTH"
);
}
);
width = 1232;
}
);
unicode = 0292;
},
{
glyphname = f;
lastChange = "2020-09-15 16:21:19 +0000";
layers = (
{
anchors = (
{
name = bottom;
position = "{616, 0}";
},
{
name = top;
position = "{616, 1424}";
}
);
layerId = UUID0;
paths = (
{
closed = 1;
nodes = (
"630 0 LINE",
"630 896 LINE",
"902 896 LINE",
"902 1022 LINE",
"630 1022 LINE",
"630 1154 LINE SMOOTH",
"630 1230 OFFCURVE",
"634 1294 OFFCURVE",
"776 1294 CURVE SMOOTH",
"864 1294 OFFCURVE",
"922 1276 OFFCURVE",
"976 1250 CURVE",
"976 1376 LINE",
"922 1400 OFFCURVE",
"856 1424 OFFCURVE",
"762 1424 CURVE SMOOTH",
"616 1424 OFFCURVE",
"490 1364 OFFCURVE",
"490 1176 CURVE SMOOTH",
"490 1022 LINE",
"278 1022 LINE",
"278 896 LINE",
"490 896 LINE",
"490 0 LINE"
);
},
{
closed = 1;
nodes = (
"902 0 LINE",
"902 126 LINE",
"278 126 LINE",
"278 0 LINE"
);
}
);
width = 1232;
},
{
anchors = (
{
name = bottom;
position = "{596, 0}";
},
{
name = top;
position = "{650, 1424}";
}
);
layerId = "C8970C82-1F9F-492B-A412-6BE281DD1303";
paths = (
{
closed = 1;
nodes = (
"688 0 LINE",
"688 820 LINE",
"1032 820 LINE",
"1032 1022 LINE",
"688 1022 LINE",
"688 1118 LINE SMOOTH",
"688 1188 OFFCURVE",
"766 1220 OFFCURVE",
"858 1220 CURVE SMOOTH",
"918 1220 OFFCURVE",
"980 1214 OFFCURVE",
"1052 1184 CURVE",
"1052 1374 LINE",
"982 1410 OFFCURVE",
"912 1424 OFFCURVE",
"808 1424 CURVE SMOOTH",
"652 1424 OFFCURVE",
"458 1376 OFFCURVE",
"458 1162 CURVE SMOOTH",
"458 1022 LINE",
"238 1022 LINE",
"238 820 LINE",
"458 820 LINE",
"458 0 LINE"
);
},
{
closed = 1;
nodes = (
"960 0 LINE",
"960 202 LINE",
"238 202 LINE",
"238 0 LINE"
);
}
);
width = 1232;
}
);
unicode = 0066;
},
{
color = 4;
glyphname = fengdigraph;
lastChange = "2021-07-19 20:48:53 +0000";
layers = (
{
layerId = UUID0;
paths = (
{
closed = 1;
nodes = (
"995 -408 OFFCURVE",
"1074 -370 OFFCURVE",
"1127 -294 CURVE SMOOTH",
"1165 -239 OFFCURVE",
"1185 -169 OFFCURVE",
"1185 -54 CURVE SMOOTH",
"1185 616 LINE SMOOTH",
"1185 944 OFFCURVE",
"1091 1046 OFFCURVE",
"939 1046 CURVE SMOOTH",
"837 1046 OFFCURVE",
"766 990 OFFCURVE",
"727 872 CURVE",
"743 848 LINE",
"743 1022 LINE",
"611 1022 LINE",
"611 0 LINE",
"751 0 LINE",
"751 668 LINE SMOOTH",
"751 870 OFFCURVE",
"827 920 OFFCURVE",
"903 920 CURVE SMOOTH",
"985 920 OFFCURVE",
"1045 860 OFFCURVE",
"1045 664 CURVE SMOOTH",
"1045 -110 LINE SMOOTH",
"1045 -210 OFFCURVE",
"1003 -284 OFFCURVE",
"848 -310 CURVE",
"911 -421 LINE"
);
},
{
closed = 1;
nodes = (
"317 0 LINE",
"317 896 LINE",
"589 896 LINE",
"589 1022 LINE",
"317 1022 LINE",
"317 1154 LINE SMOOTH",
"317 1230 OFFCURVE",
"321 1294 OFFCURVE",
"438 1294 CURVE SMOOTH",
"501 1294 OFFCURVE",
"559 1276 OFFCURVE",
"613 1250 CURVE",
"613 1376 LINE",
"559 1400 OFFCURVE",
"493 1424 OFFCURVE",
"424 1424 CURVE SMOOTH",
"303 1424 OFFCURVE",
"177 1364 OFFCURVE",
"177 1176 CURVE SMOOTH",
"177 1022 LINE",
"15 1022 LINE",
"15 896 LINE",
"177 896 LINE",
"177 0 LINE"
);
}
);
width = 1232;
},
{
background = {
paths = (
{
closed = 1;
nodes = (
"983 -441 OFFCURVE",
"1075 -398 OFFCURVE",
"1142 -322 CURVE SMOOTH",
"1205 -251 OFFCURVE",
"1232 -152 OFFCURVE",
"1232 -20 CURVE SMOOTH",
"1232 624 LINE SMOOTH",
"1232 938 OFFCURVE",
"1127 1046 OFFCURVE",
"988 1046 CURVE SMOOTH",
"871 1046 OFFCURVE",
"807 960 OFFCURVE",
"779 872 CURVE",
"807 806 LINE",
"807 1022 LINE",
"577 1022 LINE",
"577 0 LINE",
"807 0 LINE",
"807 610 LINE SMOOTH",
"807 775 OFFCURVE",
"852 828 OFFCURVE",
"914 828 CURVE SMOOTH",
"975 828 OFFCURVE",
"1007 774 OFFCURVE",
"1007 606 CURVE SMOOTH",
"1007 -82 LINE SMOOTH",
"1007 -182 OFFCURVE",
"954 -240 OFFCURVE",
"786 -279 CURVE",
"897 -462 LINE"
);
},
{
closed = 1;
nodes = (
"380 0 LINE",
"380 820 LINE",
"624 820 LINE",
"624 1022 LINE",
"380 1022 LINE",
"380 1118 LINE SMOOTH",
"380 1188 OFFCURVE",
"428 1220 OFFCURVE",
"490 1220 CURVE SMOOTH",
"520 1220 OFFCURVE",
"582 1214 OFFCURVE",
"654 1184 CURVE",
"654 1374 LINE",
"584 1410 OFFCURVE",
"514 1424 OFFCURVE",
"440 1424 CURVE SMOOTH",
"314 1424 OFFCURVE",
"150 1376 OFFCURVE",
"150 1162 CURVE SMOOTH",
"150 1022 LINE",
"0 1022 LINE",
"0 820 LINE",
"150 820 LINE",
"150 0 LINE"
);
}
);
};
layerId = "C8970C82-1F9F-492B-A412-6BE281DD1303";
paths = (
{
closed = 1;
nodes = (
"983 -441 OFFCURVE",
"1075 -398 OFFCURVE",
"1142 -322 CURVE SMOOTH",
"1205 -251 OFFCURVE",
"1232 -152 OFFCURVE",
"1232 -20 CURVE SMOOTH",
"1232 624 LINE SMOOTH",
"1232 938 OFFCURVE",
"1127 1046 OFFCURVE",
"988 1046 CURVE SMOOTH",
"871 1046 OFFCURVE",
"807 960 OFFCURVE",
"779 872 CURVE",
"807 806 LINE",
"807 1022 LINE",
"577 1022 LINE",
"577 0 LINE",
"807 0 LINE",
"807 610 LINE SMOOTH",
"807 775 OFFCURVE",
"852 828 OFFCURVE",
"914 828 CURVE SMOOTH",
"975 828 OFFCURVE",
"1007 774 OFFCURVE",
"1007 606 CURVE SMOOTH",
"1007 -82 LINE SMOOTH",
"1007 -182 OFFCURVE",
"954 -240 OFFCURVE",
"786 -279 CURVE",
"897 -462 LINE"
);
},
{
closed = 1;
nodes = (
"377 0 LINE",
"377 820 LINE",
"621 820 LINE",
"621 1022 LINE",
"377 1022 LINE",
"377 1118 LINE SMOOTH",
"377 1188 OFFCURVE",
"425 1220 OFFCURVE",
"487 1220 CURVE SMOOTH",
"517 1220 OFFCURVE",
"579 1214 OFFCURVE",
"651 1184 CURVE",
"651 1374 LINE",
"581 1410 OFFCURVE",
"511 1424 OFFCURVE",
"437 1424 CURVE SMOOTH",
"311 1424 OFFCURVE",
"147 1376 OFFCURVE",
"147 1162 CURVE SMOOTH",
"147 1022 LINE",
"0 1022 LINE",
"0 820 LINE",
"147 820 LINE",
"147 0 LINE"
);
}
);
width = 1232;
}
);
unicode = 02A9;
},
{
glyphname = g;
lastChange = "2021-07-16 16:03:13 +0000";
layers = (
{
anchors = (
{
name = bottom;
position = "{954, -426}";
},
{
name = top;
position = "{608, 1022}";
},
{
name = topright;
position = "{1014, 1032}";
}
);
layerId = UUID0;
paths = (
{
closed = 1;
nodes = (
"784 -416 OFFCURVE",
"1014 -320 OFFCURVE",
"1014 16 CURVE SMOOTH",
"1014 1022 LINE",
"874 1022 LINE",
"874 926 LINE",
"840 966 OFFCURVE",
"758 1046 OFFCURVE",
"588 1046 CURVE SMOOTH",
"330 1046 OFFCURVE",
"148 848 OFFCURVE",
"148 512 CURVE SMOOTH",
"148 156 OFFCURVE",
"352 -24 OFFCURVE",
"580 -24 CURVE SMOOTH",
"734 -24 OFFCURVE",
"816 30 OFFCURVE",
"874 116 CURVE",
"874 -40 LINE SMOOTH",
"874 -180 OFFCURVE",
"802 -298 OFFCURVE",
"470 -316 CURVE",
"534 -426 LINE"
);
},
{
closed = 1;
nodes = (
"430 102 OFFCURVE",
"294 250 OFFCURVE",
"294 512 CURVE SMOOTH",
"294 774 OFFCURVE",
"400 920 OFFCURVE",
"612 920 CURVE SMOOTH",
"700 920 OFFCURVE",
"816 866 OFFCURVE",
"874 764 CURVE",
"874 272 LINE",
"818 166 OFFCURVE",
"710 102 OFFCURVE",
"612 102 CURVE SMOOTH"
);
}
);
width = 1232;
},
{
anchors = (
{
name = bottom;
position = "{976, -426}";
},
{
name = top;
position = "{640, 1022}";
},
{
name = topright;
position = "{1038, 998}";
}
);
layerId = "C8970C82-1F9F-492B-A412-6BE281DD1303";
paths = (
{
closed = 1;
nodes = (
"908 -382 OFFCURVE",
"1038 -240 OFFCURVE",
"1038 108 CURVE SMOOTH",
"1038 1022 LINE",
"808 1022 LINE",
"808 958 LINE",
"760 1006 OFFCURVE",
"684 1046 OFFCURVE",
"574 1046 CURVE SMOOTH",
"322 1046 OFFCURVE",
"146 844 OFFCURVE",
"146 512 CURVE SMOOTH",
"146 156 OFFCURVE",
"330 -24 OFFCURVE",
"570 -24 CURVE SMOOTH",
"668 -24 OFFCURVE",
"748 2 OFFCURVE",
"808 70 CURVE",
"808 10 LINE SMOOTH",
"808 -136 OFFCURVE",
"722 -196 OFFCURVE",
"432 -218 CURVE",
"556 -406 LINE"
);
},
{
closed = 1;
nodes = (
"460 196 OFFCURVE",
"376 320 OFFCURVE",
"376 512 CURVE SMOOTH",
"376 716 OFFCURVE",
"458 828 OFFCURVE",
"610 828 CURVE SMOOTH",
"704 828 OFFCURVE",
"770 780 OFFCURVE",
"808 726 CURVE",
"808 300 LINE",
"764 232 OFFCURVE",
"698 196 OFFCURVE",
"610 196 CURVE SMOOTH"
);
}
);
width = 1232;
}
);
unicode = 0067;
},
{
color = 4;
glyphname = "gamma-latin";
lastChange = "2021-07-19 20:55:34 +0000";
layers = (
{
layerId = UUID0;
paths = (
{
closed = 1;
nodes = (
"738 -478 OFFCURVE",
"826 -397 OFFCURVE",
"826 -261 CURVE SMOOTH",
"826 -150 OFFCURVE",
"751 27 OFFCURVE",
"688 175 CURVE SMOOTH",
"327 1022 LINE",
"187 1022 LINE",
"591 58 LINE SMOOTH",
"652 -87 OFFCURVE",
"696 -196 OFFCURVE",
"696 -261 CURVE SMOOTH",
"696 -319 OFFCURVE",
"663 -354 OFFCURVE",
"616 -354 CURVE SMOOTH",
"569 -354 OFFCURVE",
"536 -319 OFFCURVE",
"536 -261 CURVE SMOOTH",
"536 -196 OFFCURVE",
"581 -84 OFFCURVE",
"641 58 CURVE SMOOTH",
"1045 1022 LINE",
"905 1022 LINE",
"544 175 LINE SMOOTH",
"480 26 OFFCURVE",
"406 -150 OFFCURVE",
"406 -261 CURVE SMOOTH",
"406 -397 OFFCURVE",
"494 -478 OFFCURVE",
"616 -478 CURVE SMOOTH"
);
}
);
width = 1232;
},
{
layerId = "C8970C82-1F9F-492B-A412-6BE281DD1303";
paths = (
{
closed = 1;
nodes = (
"774 -484 OFFCURVE",
"887 -388 OFFCURVE",
"887 -222 CURVE SMOOTH",
"887 -86 OFFCURVE",
"812 79 OFFCURVE",
"655 419 CURVE SMOOTH",
"377 1022 LINE",
"130 1022 LINE",
"594 40 LINE SMOOTH",
"648 -74 OFFCURVE",
"687 -176 OFFCURVE",
"687 -228 CURVE SMOOTH",
"687 -275 OFFCURVE",
"654 -304 OFFCURVE",
"614 -304 CURVE SMOOTH",
"575 -304 OFFCURVE",
"544 -275 OFFCURVE",
"544 -228 CURVE SMOOTH",
"544 -176 OFFCURVE",
"585 -73 OFFCURVE",
"638 40 CURVE SMOOTH",
"1102 1022 LINE",
"855 1022 LINE",
"577 419 LINE SMOOTH",
"420 79 OFFCURVE",
"344 -86 OFFCURVE",
"344 -222 CURVE SMOOTH",
"344 -388 OFFCURVE",
"457 -484 OFFCURVE",
"615 -484 CURVE SMOOTH"
);
}
);
width = 1232;
}
);
unicode = 0263;
},
{
color = 4;
glyphname = ghook;
lastChange = "2021-07-16 18:39:35 +0000";
layers = (
{
anchors = (
{
name = bottom;
position = "{954, -426}";
},
{
name = top;
position = "{582, 1400}";
}
);
background = {
paths = (
{
closed = 1;
nodes = (
"784 -416 OFFCURVE",
"1014 -320 OFFCURVE",
"1014 16 CURVE SMOOTH",
"1014 1022 LINE",
"874 1022 LINE",
"874 926 LINE",
"840 966 OFFCURVE",
"758 1046 OFFCURVE",
"588 1046 CURVE SMOOTH",
"330 1046 OFFCURVE",
"148 848 OFFCURVE",
"148 512 CURVE SMOOTH",
"148 156 OFFCURVE",
"352 -24 OFFCURVE",
"580 -24 CURVE SMOOTH",
"734 -24 OFFCURVE",
"816 30 OFFCURVE",
"874 116 CURVE",
"874 -40 LINE SMOOTH",
"874 -180 OFFCURVE",
"802 -298 OFFCURVE",
"470 -316 CURVE",
"534 -426 LINE"
);
},
{
closed = 1;
nodes = (
"294 774 OFFCURVE",
"400 920 OFFCURVE",
"612 920 CURVE SMOOTH",
"700 920 OFFCURVE",
"816 866 OFFCURVE",
"874 764 CURVE",
"874 272 LINE",
"818 166 OFFCURVE",
"710 102 OFFCURVE",
"612 102 CURVE SMOOTH",
"430 102 OFFCURVE",
"294 250 OFFCURVE",
"294 512 CURVE SMOOTH"
);
},
{
closed = 1;
nodes = (
"1014 1002 LINE",
"1014 1146 LINE SMOOTH",
"1014 1291 OFFCURVE",
"1046 1363 OFFCURVE",
"1195 1388 CURVE",
"1127 1500 LINE",
"939 1470 OFFCURVE",
"874 1356 OFFCURVE",
"874 1126 CURVE SMOOTH",
"874 1002 LINE"
);
}
);
};
layerId = UUID0;
paths = (
{
closed = 1;
nodes = (
"784 -416 OFFCURVE",
"1014 -320 OFFCURVE",
"1014 16 CURVE SMOOTH",
"1014 1146 LINE SMOOTH",
"1014 1291 OFFCURVE",
"1046 1363 OFFCURVE",
"1195 1388 CURVE",
"1127 1500 LINE",
"939 1470 OFFCURVE",
"874 1356 OFFCURVE",
"874 1126 CURVE SMOOTH",
"874 926 LINE",
"840 966 OFFCURVE",
"758 1046 OFFCURVE",
"588 1046 CURVE SMOOTH",
"330 1046 OFFCURVE",
"148 848 OFFCURVE",
"148 512 CURVE SMOOTH",
"148 156 OFFCURVE",
"352 -24 OFFCURVE",
"580 -24 CURVE SMOOTH",
"734 -24 OFFCURVE",
"816 30 OFFCURVE",
"874 116 CURVE",
"874 -40 LINE SMOOTH",
"874 -180 OFFCURVE",
"802 -298 OFFCURVE",
"470 -316 CURVE",
"534 -426 LINE"
);
},
{
closed = 1;
nodes = (
"430 102 OFFCURVE",
"294 250 OFFCURVE",
"294 512 CURVE SMOOTH",
"294 774 OFFCURVE",
"400 920 OFFCURVE",
"612 920 CURVE SMOOTH",
"700 920 OFFCURVE",
"816 866 OFFCURVE",
"874 764 CURVE",
"874 272 LINE",
"818 166 OFFCURVE",
"710 102 OFFCURVE",
"612 102 CURVE SMOOTH"
);
}
);
width = 1232;
},
{
anchors = (
{
name = bottom;
position = "{976, -426}";
},
{
name = top;
position = "{592, 1400}";
}
);
background = {
paths = (
{
closed = 1;
nodes = (
"908 -382 OFFCURVE",
"1038 -240 OFFCURVE",
"1038 108 CURVE SMOOTH",
"1038 1022 LINE",
"808 1022 LINE",
"808 958 LINE",
"760 1006 OFFCURVE",
"684 1046 OFFCURVE",
"574 1046 CURVE SMOOTH",
"322 1046 OFFCURVE",
"146 844 OFFCURVE",
"146 512 CURVE SMOOTH",
"146 156 OFFCURVE",
"330 -24 OFFCURVE",
"570 -24 CURVE SMOOTH",
"668 -24 OFFCURVE",
"748 2 OFFCURVE",
"808 70 CURVE",
"808 10 LINE SMOOTH",
"808 -136 OFFCURVE",
"722 -196 OFFCURVE",
"432 -218 CURVE",
"556 -406 LINE"
);
},
{
closed = 1;
nodes = (
"460 196 OFFCURVE",
"376 320 OFFCURVE",
"376 512 CURVE SMOOTH",
"376 716 OFFCURVE",
"458 828 OFFCURVE",
"610 828 CURVE SMOOTH",
"704 828 OFFCURVE",
"770 780 OFFCURVE",
"808 726 CURVE",
"808 300 LINE",
"764 232 OFFCURVE",
"698 196 OFFCURVE",
"610 196 CURVE SMOOTH"
);
},
{
closed = 1;
nodes = (
"1038 998 LINE",
"1038 1059 LINE SMOOTH",
"1038 1212 OFFCURVE",
"1069 1284 OFFCURVE",
"1222 1330 CURVE",
"1114 1500 LINE",
"894 1451 OFFCURVE",
"808 1322 OFFCURVE",
"808 1052 CURVE SMOOTH",
"808 998 LINE"
);
}
);
};
layerId = "C8970C82-1F9F-492B-A412-6BE281DD1303";
paths = (
{
closed = 1;
nodes = (
"908 -382 OFFCURVE",
"1038 -240 OFFCURVE",
"1038 108 CURVE SMOOTH",
"1038 1059 LINE SMOOTH",
"1038 1212 OFFCURVE",
"1069 1284 OFFCURVE",
"1222 1330 CURVE",
"1114 1500 LINE",
"894 1451 OFFCURVE",
"808 1322 OFFCURVE",
"808 1052 CURVE SMOOTH",
"808 958 LINE",
"760 1006 OFFCURVE",
"684 1046 OFFCURVE",
"574 1046 CURVE SMOOTH",
"322 1046 OFFCURVE",
"146 844 OFFCURVE",
"146 512 CURVE SMOOTH",
"146 156 OFFCURVE",
"330 -24 OFFCURVE",
"570 -24 CURVE SMOOTH",
"668 -24 OFFCURVE",
"748 2 OFFCURVE",
"808 70 CURVE",
"808 10 LINE SMOOTH",
"808 -136 OFFCURVE",
"722 -196 OFFCURVE",
"432 -218 CURVE",
"556 -406 LINE"
);
},
{
closed = 1;
nodes = (
"460 196 OFFCURVE",
"376 320 OFFCURVE",
"376 512 CURVE SMOOTH",
"376 716 OFFCURVE",
"458 828 OFFCURVE",
"610 828 CURVE SMOOTH",
"704 828 OFFCURVE",
"770 780 OFFCURVE",
"808 726 CURVE",
"808 300 LINE",
"764 232 OFFCURVE",
"698 196 OFFCURVE",
"610 196 CURVE SMOOTH"
);
}
);
width = 1232;
}
);
unicode = 0260;
},
